Rubik-Bubbles-Regular.ufo
<glyph name="exclam" format="2">
	<advance width="330"/>
	<unicode hex="0021"/>
	<outline>
		<contour>
			<point x="192.682" y="293" type="curve"/>
			<point x="312.972" y="291.143"/>
			<point x="314.972" y="356.806"/>
			<point x="254" y="358.663" type="curve"/>
			<point x="322" y="358.663"/>
			<point x="322" y="454.158"/>
			<point x="254" y="454.158" type="curve"/>
			<point x="312" y="454.158"/>
			<point x="312" y="585.463"/>
			<point x="254" y="585.463" type="curve"/>
			<point x="304" y="585.463"/>
			<point x="304" y="641.168"/>
			<point x="254" y="641.168" type="curve"/>
			<point x="279.747" y="678.804"/>
			<point x="230.292" y="712.636"/>
			<point x="204.545" y="675" type="curve"/>
			<point x="204.695" y="732"/>
			<point x="74.124" y="732.343"/>
			<point x="73.974" y="675.344" type="curve"/>
			<point x="7.988" y="673.977"/>
			<point x="10.014" y="576.139"/>
			<point x="76" y="577.505" type="curve"/>
			<point x="12" y="577.505"/>
			<point x="12" y="521.8"/>
			<point x="76" y="521.8" type="curve"/>
			<point x="9" y="521.8"/>
			<point x="9" y="470.074"/>
			<point x="76" y="470.074" type="curve"/>
			<point x="17" y="470.074"/>
			<point x="17" y="354.684"/>
			<point x="76" y="354.684" type="curve"/>
			<point x="44.168" y="329.163"/>
			<point x="93.622" y="267.479"/>
			<point x="125.455" y="293" type="curve"/>
			<point x="125.455" y="238.6"/>
			<point x="192.682" y="238.6"/>
		</contour>
		<contour>
			<point x="125.455" y="25" type="curve"/>
			<point x="315.984" y="23.562"/>
			<point x="317.984" y="112.562"/>
			<point x="254" y="114" type="curve"/>
			<point x="293.796" y="130.809"/>
			<point x="256.205" y="219.809"/>
			<point x="216.409" y="203" type="curve"/>
			<point x="216.409" y="251.8"/>
			<point x="97.773" y="251.8"/>
			<point x="97.773" y="203" type="curve"/>
			<point x="93.455" y="250.002"/>
			<point x="71.682" y="248.002"/>
			<point x="76" y="201" type="curve"/>
			<point x="21" y="201"/>
			<point x="21" y="54.682"/>
			<point x="76" y="54.682" type="curve"/>
			<point x="48.829" y="9.41"/>
			<point x="98.283" y="-20.272"/>
		</contour>
	</outline>
</glyph>
<glyph name="quotedbl" format="2">
	<advance width="519"/>
	<unicode hex="0022"/>
	<outline>
		<contour>
			<point x="145.667" y="433" type="curve"/>
			<point x="223.963" y="422.666"/>
			<point x="244.488" y="523.886"/>
			<point x="193.525" y="534.22" type="curve"/>
			<point x="238.825" y="528.993"/>
			<point x="251.638" y="640.044"/>
			<point x="206.339" y="645.271" type="curve"/>
			<point x="230.094" y="689.722"/>
			<point x="155.756" y="729.45"/>
			<point x="132" y="685" type="curve"/>
			<point x="132" y="743"/>
			<point x="60" y="743"/>
			<point x="60" y="685" type="curve"/>
			<point x="0.091" y="681.691"/>
			<point x="6.447" y="566.607"/>
			<point x="66.356" y="569.915" type="curve"/>
			<point x="3.771" y="562.694"/>
			<point x="13.381" y="479.406"/>
			<point x="75.966" y="486.627" type="curve"/>
			<point x="29.432" y="460.028"/>
			<point x="60.085" y="406.401"/>
			<point x="106.619" y="433" type="curve"/>
			<point x="106.619" y="369"/>
			<point x="145.667" y="369"/>
		</contour>
		<contour>
			<point x="412.381" y="433" type="curve"/>
			<point x="490.919" y="421.288"/>
			<point x="514.19" y="546.305"/>
			<point x="451.271" y="558.017" type="curve"/>
			<point x="496.66" y="562.403"/>
			<point x="484.389" y="689.386"/>
			<point x="439" y="685" type="curve"/>
			<point x="439" y="747"/>
			<point x="359" y="747"/>
			<point x="359" y="685" type="curve"/>
			<point x="308.092" y="706.341"/>
			<point x="268.16" y="611.087"/>
			<point x="319.068" y="589.746" type="curve"/>
			<point x="274.563" y="584.611"/>
			<point x="280.97" y="529.085"/>
			<point x="325.475" y="534.22" type="curve"/>
			<point x="284.943" y="529.544"/>
			<point x="294.096" y="450.222"/>
			<point x="334.627" y="454.898" type="curve"/>
			<point x="319.88" y="402.535"/>
			<point x="397.634" y="380.637"/>
		</contour>
	</outline>
</glyph>
<glyph name="ampersand" format="2">
	<advance width="783"/>
	<unicode hex="0026"/>
	<outline>
		<contour>
			<point x="287.141" y="20.503" type="curve"/>
			<point x="322.234" y="-43.006"/>
			<point x="464.799" y="-17.587"/>
			<point x="453.565" y="45.42" type="curve"/>
			<point x="441.091" y="-32.589"/>
			<point x="537.527" y="-48.009"/>
			<point x="550" y="30" type="curve"/>
			<point x="550" y="-38"/>
			<point x="614" y="-38"/>
			<point x="614" y="30" type="curve"/>
			<point x="614" y="-49"/>
			<point x="750" y="-49"/>
			<point x="750" y="30" type="curve"/>
			<point x="755.476" y="91.758"/>
			<point x="724.515" y="94.503"/>
			<point x="719.039" y="32.745" type="curve"/>
			<point x="771.556" y="83.45"/>
			<point x="678.222" y="180.117"/>
			<point x="625.706" y="129.412" type="curve"/>
			<point x="689.529" y="100.662"/>
			<point x="742.896" y="219.132"/>
			<point x="679.072" y="247.882" type="curve"/>
			<point x="733.98" y="215"/>
			<point x="779.712" y="291.367"/>
			<point x="724.804" y="324.248" type="curve"/>
			<point x="766.359" y="270.423"/>
			<point x="781.581" y="282.174"/>
			<point x="740.026" y="336" type="curve"/>
			<point x="740.026" y="402"/>
			<point x="648.632" y="402"/>
			<point x="648.632" y="336" type="curve"/>
			<point x="618.672" y="384.256"/>
			<point x="541.64" y="336.432"/>
			<point x="571.599" y="288.175" type="curve"/>
			<point x="566.012" y="337.46"/>
			<point x="472.845" y="326.898"/>
			<point x="478.432" y="277.614" type="curve"/>
			<point x="530.58" y="327.258"/>
			<point x="503.534" y="355.667"/>
			<point x="451.386" y="306.023" type="curve"/>
			<point x="502.086" y="354.288"/>
			<point x="472.336" y="385.538"/>
			<point x="421.636" y="337.273" type="curve"/>
			<point x="472.72" y="301.437"/>
			<point x="514.305" y="360.716"/>
			<point x="463.221" y="396.552" type="curve"/>
			<point x="503.842" y="362.821"/>
			<point x="582.584" y="457.647"/>
			<point x="541.963" y="491.378" type="curve"/>
			<point x="602.262" y="499.165"/>
			<point x="588.416" y="606.389"/>
			<point x="528.117" y="598.603" type="curve"/>
			<point x="578.281" y="650.251"/>
			<point x="526.427" y="700.616"/>
			<point x="476.262" y="648.968" type="curve"/>
			<point x="499.884" y="710.596"/>
			<point x="435.766" y="735.172"/>
			<point x="412.144" y="673.544" type="curve"/>
			<point x="416.658" y="748.408"/>
			<point x="325.179" y="753.924"/>
			<point x="320.666" y="679.06" type="curve"/>
			<point x="301.258" y="735.834"/>
			<point x="165.454" y="689.412"/>
			<point x="184.861" y="632.637" type="curve"/>
			<point x="133.014" y="671.839"/>
			<point x="94.306" y="620.646"/>
			<point x="146.154" y="581.443" type="curve"/>
			<point x="91.183" y="576.417"/>
			<point x="103.436" y="442.432"/>
			<point x="158.406" y="447.459" type="curve"/>
			<point x="87.407" y="447.02"/>
			<point x="87.994" y="352.134"/>
			<point x="158.993" y="352.573" type="curve"/>
			<point x="113.976" y="408.764"/>
			<point x="63.636" y="368.435"/>
			<point x="108.653" y="312.243" type="curve"/>
			<point x="54.974" y="330.814"/>
			<point x="10.905" y="203.437"/>
			<point x="64.584" y="184.866" type="curve"/>
			<point x="10.159" y="156.012"/>
			<point x="72.371" y="38.668"/>
			<point x="126.795" y="67.522" type="curve"/>
			<point x="92.972" y="8.53"/>
			<point x="131.409" y="-13.508"/>
			<point x="165.233" y="45.483" type="curve"/>
			<point x="149.375" y="-31.909"/>
			<point x="271.283" y="-56.889"/>
		</contour>
		<contour>
			<point x="363.249" y="450.81" type="curve"/>
			<point x="361.648" y="465.373"/>
			<point x="327.831" y="499.518"/>
			<point x="299.183" y="471.145" type="curve"/>
			<point x="335.921" y="484.818"/>
			<point x="317.738" y="533.673"/>
			<point x="281" y="520" type="curve"/>
			<point x="306.729" y="492.691"/>
			<point x="377.733" y="559.586"/>
			<point x="352.005" y="586.895" type="curve"/>
			<point x="343.044" y="551.616"/>
			<point x="370.04" y="544.759"/>
			<point x="379.001" y="580.038" type="curve"/>
			<point x="343.33" y="554.828"/>
			<point x="378.789" y="504.656"/>
			<point x="414.46" y="529.866" type="curve"/>
			<point x="385.32" y="548.742"/>
			<point x="334.108" y="469.687"/>
		</contour>
		<contour>
			<point x="352.667" y="130.781" type="curve"/>
			<point x="323.507" y="159.389"/>
			<point x="263.769" y="182.457"/>
			<point x="251.262" y="150.068" type="curve"/>
			<point x="283.75" y="158.642"/>
			<point x="259.942" y="248.844"/>
			<point x="227.455" y="240.269" type="curve"/>
			<point x="258.466" y="219.149"/>
			<point x="281.542" y="253.033"/>
			<point x="250.531" y="274.153" type="curve"/>
			<point x="251.803" y="236.094"/>
			<point x="309.772" y="238.032"/>
			<point x="308.5" y="276.091" type="curve"/>
			<point x="278.44" y="246.758"/>
			<point x="336.19" y="187.576"/>
			<point x="366.25" y="216.909" type="curve"/>
			<point x="337.393" y="188.75"/>
			<point x="384.143" y="140.841"/>
			<point x="413" y="169" type="curve"/>
			<point x="390.824" y="204.007"/>
			<point x="330.491" y="165.789"/>
		</contour>
	</outline>
</glyph>
<glyph name="quotesingle" format="2">
	<advance width="264"/>
	<unicode hex="0027"/>
	<outline>
		<contour>
			<point x="77.797" y="470.763" type="curve"/>
			<point x="232.051" y="422.371"/>
			<point x="256.695" y="559.286"/>
			<point x="197.644" y="569.915" type="curve"/>
			<point x="266.63" y="568.503"/>
			<point x="268.986" y="683.588"/>
			<point x="200" y="685" type="curve"/>
			<point x="200" y="748"/>
			<point x="156" y="748"/>
			<point x="156" y="685" type="curve"/>
			<point x="156" y="740"/>
			<point x="64" y="740"/>
			<point x="64" y="685" type="curve"/>
			<point x="7.366" y="691.445"/>
			<point x="1.942" y="643.784"/>
			<point x="58.576" y="637.339" type="curve"/>
			<point x="-0.035" y="630.576"/>
			<point x="7.287" y="567.119"/>
			<point x="65.898" y="573.881" type="curve"/>
			<point x="11.261" y="567.577"/>
			<point x="23.159" y="464.458"/>
		</contour>
	</outline>
</glyph>
<glyph name="asterisk" format="2">
	<advance width="444"/>
	<unicode hex="002A"/>
	<outline>
		<contour>
			<point x="148.897" y="406.759" type="curve"/>
			<point x="223.416" y="383.736"/>
			<point x="261" y="482"/>
			<point x="211" y="486" type="curve"/>
			<point x="254" y="474"/>
			<point x="267" y="519"/>
			<point x="224" y="531" type="curve"/>
			<point x="200" y="472"/>
			<point x="245" y="367"/>
			<point x="287.741" y="401.667" type="curve"/>
			<point x="331.818" y="352.543"/>
			<point x="389.506" y="404.305"/>
			<point x="345.429" y="453.429" type="curve"/>
			<point x="368.305" y="487.212"/>
			<point x="281" y="578"/>
			<point x="258" y="545" type="curve"/>
			<point x="280" y="481"/>
			<point x="409.323" y="485.506"/>
			<point x="388.034" y="549.034" type="curve"/>
			<point x="445.157" y="570.436"/>
			<point x="426.493" y="620.253"/>
			<point x="369.37" y="598.852" type="curve"/>
			<point x="381.984" y="638.493"/>
			<point x="335.027" y="653.435"/>
			<point x="322.414" y="613.793" type="curve"/>
			<point x="326.619" y="669.635"/>
			<point x="244.206" y="675.842"/>
			<point x="240" y="620" type="curve"/>
			<point x="283.675" y="606.89"/>
			<point x="308.889" y="690.89"/>
			<point x="265.214" y="704" type="curve"/>
			<point x="262.823" y="768.956"/>
			<point x="172.275" y="765.623"/>
			<point x="174.667" y="700.667" type="curve"/>
			<point x="112.64" y="678.112"/>
			<point x="129.974" y="630.445"/>
			<point x="192" y="653" type="curve"/>
			<point x="134.488" y="666.165"/>
			<point x="115.488" y="583.165"/>
			<point x="173" y="570" type="curve"/>
			<point x="197" y="602"/>
			<point x="117.69" y="661.483"/>
			<point x="93.69" y="629.483" type="curve"/>
			<point x="36" y="672"/>
			<point x="17" y="552"/>
			<point x="83.034" y="554.552" type="curve"/>
			<point x="73.786" y="513.173"/>
			<point x="162.751" y="493.288"/>
			<point x="172" y="534.667" type="curve"/>
			<point x="121.122" y="545.412"/>
			<point x="112.456" y="504.375"/>
			<point x="163.333" y="493.63" type="curve"/>
			<point x="135.439" y="538.46"/>
			<point x="98.772" y="515.645"/>
			<point x="126.667" y="470.815" type="curve"/>
			<point x="99.723" y="514.117"/>
			<point x="63.057" y="491.302"/>
			<point x="90" y="448" type="curve"/>
			<point x="59.026" y="403.766"/>
			<point x="117.923" y="362.525"/>
		</contour>
	</outline>
</glyph>
<glyph name="comma" format="2">
	<advance width="303"/>
	<unicode hex="002C"/>
	<outline>
		<contour>
			<point x="117.692" y="-50" type="curve"/>
			<point x="195.055" y="-78.268"/>
			<point x="249.763" y="26.348"/>
			<point x="195.708" y="54.615" type="curve"/>
			<point x="254.369" y="31.64"/>
			<point x="297.753" y="142.409"/>
			<point x="239.092" y="165.385" type="curve"/>
			<point x="280.537" y="201.846"/>
			<point x="247.444" y="239.461"/>
			<point x="206" y="203" type="curve"/>
			<point x="206" y="264"/>
			<point x="154" y="264"/>
			<point x="154" y="203" type="curve"/>
			<point x="126.481" y="234.197"/>
			<point x="44.126" y="161.552"/>
			<point x="71.645" y="130.355" type="curve"/>
			<point x="15.3" y="138.97"/>
			<point x="5.155" y="72.615"/>
			<point x="61.5" y="64" type="curve"/>
			<point x="2.581" y="67.081"/>
			<point x="-3.381" y="-46.919"/>
			<point x="55.538" y="-50" type="curve"/>
			<point x="55.538" y="-100"/>
			<point x="117.692" y="-100"/>
		</contour>
	</outline>
</glyph>
<glyph name="period" format="2">
	<advance width="312"/>
	<unicode hex="002E"/>
	<outline>
		<contour>
			<point x="223.227" y="25" type="curve"/>
			<point x="300.638" y="18.53"/>
			<point x="302.638" y="36.349"/>
			<point x="245" y="42.818" type="curve"/>
			<point x="302" y="42.818"/>
			<point x="302" y="121.909"/>
			<point x="245" y="121.909" type="curve"/>
			<point x="284.164" y="138.154"/>
			<point x="250.528" y="219.245"/>
			<point x="211.364" y="203" type="curve"/>
			<point x="211.364" y="269"/>
			<point x="116.455" y="269"/>
			<point x="116.455" y="203" type="curve"/>
			<point x="123.196" y="261.614"/>
			<point x="71.471" y="267.563"/>
			<point x="64.729" y="208.949" type="curve"/>
			<point x="14.743" y="207.754"/>
			<point x="17.014" y="112.804"/>
			<point x="67" y="114" type="curve"/>
			<point x="12.655" y="105.535"/>
			<point x="26.519" y="16.535"/>
			<point x="80.864" y="25" type="curve"/>
			<point x="80.864" y="-32"/>
			<point x="223.227" y="-32"/>
		</contour>
	</outline>
</glyph>
<glyph name="slash" format="2">
	<advance width="579"/>
	<unicode hex="002F"/>
	<outline>
		<contour>
			<point x="46" y="-62" type="curve"/>
			<point x="217.341" y="-87.733"/>
			<point x="258.314" y="-25.928"/>
			<point x="214.973" y="2.805" type="curve"/>
			<point x="268.49" y="-19.555"/>
			<point x="300.753" y="57.668"/>
			<point x="247.236" y="80.027" type="curve"/>
			<point x="297.985" y="58.824"/>
			<point x="317.958" y="106.629"/>
			<point x="267.209" y="127.832" type="curve"/>
			<point x="327.185" y="102.774"/>
			<point x="351.767" y="161.61"/>
			<point x="291.791" y="186.668" type="curve"/>
			<point x="353.612" y="160.839"/>
			<point x="401.239" y="274.835"/>
			<point x="339.418" y="300.664" type="curve"/>
			<point x="402.162" y="274.449"/>
			<point x="451.326" y="392.122"/>
			<point x="388.582" y="418.336" type="curve"/>
			<point x="450.403" y="392.507"/>
			<point x="498.03" y="506.503"/>
			<point x="436.209" y="532.332" type="curve"/>
			<point x="496.185" y="507.274"/>
			<point x="545.349" y="624.947"/>
			<point x="485.373" y="650.005" type="curve"/>
			<point x="546.271" y="624.561"/>
			<point x="566.244" y="672.366"/>
			<point x="505.345" y="697.809" type="curve"/>
			<point x="558.862" y="675.45"/>
			<point x="586.517" y="741.641"/>
			<point x="533" y="764" type="curve"/>
			<point x="531.653" y="813.982"/>
			<point x="420.359" y="810.982"/>
			<point x="421.706" y="761" type="curve"/>
			<point x="389.896" y="796.946"/>
			<point x="335.423" y="748.741"/>
			<point x="367.233" y="712.795" type="curve"/>
			<point x="309.96" y="736.54"/>
			<point x="291.604" y="692.266"/>
			<point x="348.877" y="668.521" type="curve"/>
			<point x="290.68" y="692.649"/>
			<point x="243.26" y="578.275"/>
			<point x="301.457" y="554.146" type="curve"/>
			<point x="245.108" y="577.509"/>
			<point x="199.217" y="466.824"/>
			<point x="255.566" y="443.461" type="curve"/>
			<point x="201.065" y="466.058"/>
			<point x="175.06" y="403.336"/>
			<point x="229.562" y="380.74" type="curve"/>
			<point x="165.823" y="407.166"/>
			<point x="148.996" y="366.582"/>
			<point x="212.735" y="340.155" type="curve"/>
			<point x="163.776" y="360.454"/>
			<point x="140.831" y="305.111"/>
			<point x="189.79" y="284.813" type="curve"/>
			<point x="133.441" y="308.175"/>
			<point x="96.729" y="219.627"/>
			<point x="153.078" y="196.265" type="curve"/>
			<point x="102.271" y="217.329"/>
			<point x="53.321" y="99.265"/>
			<point x="104.128" y="78.201" type="curve"/>
			<point x="48.703" y="101.18"/>
			<point x="-9.425" y="-39.021"/>
		</contour>
	</outline>
</glyph>
<glyph name="zero" format="2">
	<advance width="718"/>
	<unicode hex="0030"/>
	<outline>
		<contour>
			<point x="329.9" y="20.937" type="curve"/>
			<point x="361.333" y="-40.909"/>
			<point x="409.681" y="-38.263"/>
			<point x="406.348" y="22.646" type="curve"/>
			<point x="427.407" y="-49.337"/>
			<point x="546.739" y="-14.425"/>
			<point x="525.68" y="57.558" type="curve"/>
			<point x="567.767" y="4.147"/>
			<point x="627.702" y="51.376"/>
			<point x="585.615" y="104.786" type="curve"/>
			<point x="633.238" y="83.905"/>
			<point x="687.547" y="207.762"/>
			<point x="639.924" y="228.644" type="curve"/>
			<point x="702.784" y="224.447"/>
			<point x="707.051" y="288.353"/>
			<point x="644.191" y="292.551" type="curve"/>
			<point x="719.179" y="291.182"/>
			<point x="719.919" y="331.729"/>
			<point x="644.931" y="333.097" type="curve"/>
			<point x="719.93" y="333.618"/>
			<point x="719.479" y="398.501"/>
			<point x="644.481" y="397.98" type="curve"/>
			<point x="721.419" y="401.076"/>
			<point x="719.299" y="453.75"/>
			<point x="642.361" y="450.654" type="curve"/>
			<point x="699.086" y="472.539"/>
			<point x="644.577" y="613.819"/>
			<point x="587.853" y="591.934" type="curve"/>
			<point x="625.365" y="652.215"/>
			<point x="510.534" y="723.674"/>
			<point x="473.021" y="663.393" type="curve"/>
			<point x="483.318" y="722.503"/>
			<point x="392.27" y="738.363"/>
			<point x="381.973" y="679.253" type="curve"/>
			<point x="377.055" y="752.087"/>
			<point x="272.874" y="745.052"/>
			<point x="277.792" y="672.218" type="curve"/>
			<point x="260.661" y="731.804"/>
			<point x="206.434" y="716.214"/>
			<point x="223.565" y="656.627" type="curve"/>
			<point x="186.233" y="715.842"/>
			<point x="101.488" y="662.414"/>
			<point x="138.819" y="603.199" type="curve"/>
			<point x="74.239" y="645.133"/>
			<point x="24.099" y="567.913"/>
			<point x="88.679" y="525.98" type="curve"/>
			<point x="29.061" y="532.739"/>
			<point x="11.475" y="377.621"/>
			<point x="71.093" y="370.862" type="curve"/>
			<point x="-4.872" y="368.579"/>
			<point x="-0.818" y="233.679"/>
			<point x="75.147" y="235.962" type="curve"/>
			<point x="5.024" y="219.632"/>
			<point x="19.614" y="156.977"/>
			<point x="89.738" y="173.307" type="curve"/>
			<point x="24.559" y="136.203"/>
			<point x="60.28" y="73.452"/>
			<point x="125.46" y="110.555" type="curve"/>
			<point x="93.584" y="57.844"/>
			<point x="222.465" y="-20.095"/>
			<point x="254.341" y="32.616" type="curve"/>
			<point x="243.343" y="-38.539"/>
			<point x="318.902" y="-50.218"/>
		</contour>
		<contour>
			<point x="371.426" y="156.887" type="curve"/>
			<point x="372.03" y="200.752"/>
			<point x="322.179" y="216.381"/>
			<point x="308.149" y="171.628" type="curve"/>
			<point x="344.885" y="185.307"/>
			<point x="310.012" y="278.963"/>
			<point x="273.276" y="265.284" type="curve"/>
			<point x="317.513" y="265.86"/>
			<point x="316.082" y="375.878"/>
			<point x="271.846" y="375.303" type="curve"/>
			<point x="308.768" y="373.635"/>
			<point x="313.237" y="472.534"/>
			<point x="276.314" y="474.203" type="curve"/>
			<point x="306.432" y="456.929"/>
			<point x="339.986" y="515.431"/>
			<point x="309.868" y="532.705" type="curve"/>
			<point x="321.737" y="488.056"/>
			<point x="374.932" y="502.197"/>
			<point x="363.063" y="546.846" type="curve"/>
			<point x="347.724" y="498.837"/>
			<point x="389.79" y="485.396"/>
			<point x="405.13" y="533.405" type="curve"/>
			<point x="376.713" y="509.772"/>
			<point x="402.405" y="478.881"/>
			<point x="430.821" y="502.514" type="curve"/>
			<point x="397.036" y="492.353"/>
			<point x="406.373" y="461.309"/>
			<point x="440.158" y="471.471" type="curve"/>
			<point x="398.203" y="469.518"/>
			<point x="402.049" y="386.898"/>
			<point x="444.003" y="388.851" type="curve"/>
			<point x="400.323" y="388.789"/>
			<point x="400.415" y="323.606"/>
			<point x="444.095" y="323.667" type="curve"/>
			<point x="402.666" y="324.626"/>
			<point x="401.347" y="267.605"/>
			<point x="442.776" y="266.647" type="curve"/>
			<point x="402.535" y="273.851"/>
			<point x="390.847" y="208.566"/>
			<point x="431.087" y="201.362" type="curve"/>
			<point x="399.233" y="228.735"/>
			<point x="370.272" y="195.034"/>
			<point x="402.127" y="167.66" type="curve"/>
			<point x="385.67" y="214.557"/>
			<point x="354.97" y="203.783"/>
		</contour>
	</outline>
</glyph>
<glyph name="four" format="2">
	<advance width="735"/>
	<unicode hex="0034"/>
	<outline>
		<contour>
			<point x="543" y="30" type="curve"/>
			<point x="632.916" y="33.624"/>
			<point x="629.916" y="98.124"/>
			<point x="552" y="94.5" type="curve"/>
			<point x="623" y="94.5"/>
			<point x="623" y="158.029"/>
			<point x="552" y="158.029" type="curve"/>
			<point x="558.872" y="90.378"/>
			<point x="683.872" y="103.075"/>
			<point x="677" y="170.727" type="curve"/>
			<point x="732.742" y="185.239"/>
			<point x="702.992" y="299.512"/>
			<point x="647.25" y="285" type="curve"/>
			<point x="647.25" y="348"/>
			<point x="595.656" y="348"/>
			<point x="595.656" y="285" type="curve"/>
			<point x="654.017" y="330.497"/>
			<point x="610.361" y="386.497"/>
			<point x="552" y="341" type="curve"/>
			<point x="622" y="341"/>
			<point x="622" y="461"/>
			<point x="552" y="461" type="curve"/>
			<point x="626" y="461"/>
			<point x="626" y="577"/>
			<point x="552" y="577" type="curve"/>
			<point x="601.877" y="596.629"/>
			<point x="565.277" y="689.629"/>
			<point x="515.4" y="670" type="curve"/>
			<point x="515.4" y="730"/>
			<point x="392.64" y="730"/>
			<point x="392.64" y="670" type="curve"/>
			<point x="375.265" y="720.706"/>
			<point x="314.531" y="699.894"/>
			<point x="331.906" y="649.188" type="curve"/>
			<point x="280.277" y="688.677"/>
			<point x="212.55" y="600.13"/>
			<point x="264.179" y="560.641" type="curve"/>
			<point x="203.019" y="607.421"/>
			<point x="140.13" y="525.199"/>
			<point x="201.291" y="478.419" type="curve"/>
			<point x="149.661" y="517.908"/>
			<point x="115.798" y="473.635"/>
			<point x="167.427" y="434.145" type="curve"/>
			<point x="111.032" y="477.28"/>
			<point x="43.306" y="388.733"/>
			<point x="99.701" y="345.598" type="curve"/>
			<point x="49.814" y="365.201"/>
			<point x="6.113" y="253.99"/>
			<point x="56" y="234.387" type="curve"/>
			<point x="19.778" y="198.202"/>
			<point x="92.091" y="125.815"/>
			<point x="128.313" y="162" type="curve"/>
			<point x="128.313" y="96"/>
			<point x="171.916" y="96"/>
			<point x="171.916" y="162" type="curve"/>
			<point x="171.916" y="101"/>
			<point x="247.229" y="101"/>
			<point x="247.229" y="162" type="curve"/>
			<point x="247.229" y="97"/>
			<point x="302.723" y="97"/>
			<point x="302.723" y="162" type="curve"/>
			<point x="289.955" y="98.266"/>
			<point x="369.232" y="82.384"/>
			<point x="382" y="146.118" type="curve"/>
			<point x="323.788" y="131.579"/>
			<point x="352.788" y="15.462"/>
			<point x="411" y="30" type="curve"/>
			<point x="411" y="-32"/>
			<point x="543" y="-32"/>
		</contour>
		<contour>
			<point x="304.667" y="424.4" type="curve"/>
			<point x="305.309" y="423.554"/>
			<point x="359.309" y="385.781"/>
			<point x="389" y="428.227" type="curve"/>
			<point x="345.32" y="428.227"/>
			<point x="345.32" y="345.182"/>
			<point x="389" y="345.182" type="curve"/>
			<point x="350.441" y="364.484"/>
			<point x="314.809" y="293.302"/>
			<point x="353.367" y="274" type="curve"/>
			<point x="353.367" y="318.24"/>
			<point x="286.061" y="318.24"/>
			<point x="286.061" y="274" type="curve"/>
			<point x="286.061" y="311.52"/>
			<point x="246.469" y="311.52"/>
			<point x="246.469" y="274" type="curve"/>
			<point x="286.948" y="309.591"/>
			<point x="258.812" y="341.591"/>
			<point x="218.333" y="306" type="curve"/>
			<point x="250.46" y="282.575"/>
			<point x="273.793" y="314.575"/>
			<point x="241.667" y="338" type="curve"/>
			<point x="272.436" y="315.564"/>
			<point x="335.436" y="401.964"/>
		</contour>
	</outline>
</glyph>
<glyph name="eight" format="2">
	<advance width="712"/>
	<unicode hex="0038"/>
	<outline>
		<contour>
			<point x="334.762" y="20.318" type="curve"/>
			<point x="357.833" y="-46.94"/>
			<point x="410.107" y="-44.728"/>
			<point x="407.274" y="22.212" type="curve"/>
			<point x="419.308" y="-46.746"/>
			<point x="498.522" y="-32.922"/>
			<point x="486.488" y="36.036" type="curve"/>
			<point x="511.543" y="-18.483"/>
			<point x="598.881" y="21.654"/>
			<point x="573.827" y="76.173" type="curve"/>
			<point x="633.62" y="32.575"/>
			<point x="698.797" y="121.963"/>
			<point x="639.003" y="165.56" type="curve"/>
			<point x="702.222" y="155.591"/>
			<point x="709.102" y="199.22"/>
			<point x="645.883" y="209.189" type="curve"/>
			<point x="711.853" y="225.683"/>
			<point x="690.07" y="312.805"/>
			<point x="624.1" y="296.311" type="curve"/>
			<point x="681.614" y="313.403"/>
			<point x="646.719" y="430.823"/>
			<point x="589.205" y="413.731" type="curve"/>
			<point x="649.317" y="404.61"/>
			<point x="669.915" y="540.36"/>
			<point x="609.803" y="549.481" type="curve"/>
			<point x="667.56" y="579.299"/>
			<point x="640.215" y="632.266"/>
			<point x="582.458" y="602.448" type="curve"/>
			<point x="623.703" y="668.651"/>
			<point x="526.6" y="729.146"/>
			<point x="485.356" y="662.942" type="curve"/>
			<point x="493.499" y="741.522"/>
			<point x="335.049" y="757.943"/>
			<point x="326.906" y="679.364" type="curve"/>
			<point x="310.209" y="750.429"/>
			<point x="162.866" y="715.81"/>
			<point x="179.563" y="644.745" type="curve"/>
			<point x="136.563" y="678.067"/>
			<point x="51.164" y="567.865"/>
			<point x="94.164" y="534.542" type="curve"/>
			<point x="34.18" y="533.149"/>
			<point x="35.921" y="458.207"/>
			<point x="95.905" y="459.601" type="curve"/>
			<point x="55.439" y="423.243"/>
			<point x="129.119" y="341.239"/>
			<point x="169.584" y="377.597" type="curve"/>
			<point x="99.571" y="360.801"/>
			<point x="104.139" y="341.757"/>
			<point x="174.153" y="358.554" type="curve"/>
			<point x="145.65" y="413.614"/>
			<point x="88.997" y="384.286"/>
			<point x="117.5" y="329.226" type="curve"/>
			<point x="61.601" y="355.108"/>
			<point x="10.101" y="243.882"/>
			<point x="66" y="218" type="curve"/>
			<point x="-9.026" y="200.675"/>
			<point x="9.756" y="119.341"/>
			<point x="84.782" y="136.666" type="curve"/>
			<point x="36.02" y="95.214"/>
			<point x="85.006" y="37.591"/>
			<point x="133.767" y="79.044" type="curve"/>
			<point x="104.093" y="20.091"/>
			<point x="182.565" y="-19.408"/>
			<point x="212.24" y="39.545" type="curve"/>
			<point x="202.783" y="-20.718"/>
			<point x="325.305" y="-39.945"/>
		</contour>
		<contour>
			<point x="403.841" y="414.127" type="curve"/>
			<point x="362.194" y="442.673"/>
			<point x="322.16" y="449.933"/>
			<point x="314.966" y="410.26" type="curve"/>
			<point x="342.249" y="432.627"/>
			<point x="290.286" y="496.011"/>
			<point x="263.003" y="473.644" type="curve"/>
			<point x="298.614" y="469.606"/>
			<point x="303.748" y="514.883"/>
			<point x="268.137" y="518.921" type="curve"/>
			<point x="298.186" y="486.453"/>
			<point x="347.71" y="532.288"/>
			<point x="317.66" y="564.756" type="curve"/>
			<point x="318.48" y="530.046"/>
			<point x="388.284" y="531.694"/>
			<point x="387.465" y="566.405" type="curve"/>
			<point x="366.777" y="531.146"/>
			<point x="405.393" y="508.489"/>
			<point x="426.08" y="543.748" type="curve"/>
			<point x="392.547" y="525.703"/>
			<point x="413.689" y="486.414"/>
			<point x="447.222" y="504.459" type="curve"/>
			<point x="412.895" y="520.944"/>
			<point x="369.514" y="430.612"/>
		</contour>
		<contour>
			<point x="364.355" y="128.327" type="curve"/>
			<point x="364.849" y="163.624"/>
			<point x="303.756" y="180.514"/>
			<point x="293.908" y="144.89" type="curve"/>
			<point x="328.233" y="158.594"/>
			<point x="291.495" y="250.612"/>
			<point x="257.169" y="236.907" type="curve"/>
			<point x="283.89" y="208.995"/>
			<point x="352.554" y="274.729"/>
			<point x="325.834" y="302.641" type="curve"/>
			<point x="327.429" y="259.55"/>
			<point x="376.601" y="261.371"/>
			<point x="375.005" y="304.462" type="curve"/>
			<point x="353.355" y="267.171"/>
			<point x="417.639" y="229.848"/>
			<point x="439.289" y="267.138" type="curve"/>
			<point x="394.69" y="250.506"/>
			<point x="409.95" y="209.585"/>
			<point x="454.55" y="226.217" type="curve"/>
			<point x="421.694" y="244.334"/>
			<point x="373.901" y="157.663"/>
			<point x="406.756" y="139.545" type="curve"/>
			<point x="395.442" y="182.314"/>
			<point x="353.04" y="171.096"/>
		</contour>
	</outline>
</glyph>
<glyph name="colon" format="2">
	<advance width="322"/>
	<unicode hex="003A"/>
	<outline>
		<contour>
			<point x="232.182" y="375" type="curve"/>
			<point x="311.986" y="373.639"/>
			<point x="313.986" y="467.639"/>
			<point x="250" y="469" type="curve"/>
			<point x="308.821" y="464.412"/>
			<point x="314.771" y="540.683"/>
			<point x="255.949" y="545.271" type="curve"/>
			<point x="253.959" y="604.237"/>
			<point x="186.691" y="601.966"/>
			<point x="188.682" y="543" type="curve"/>
			<point x="184.156" y="595.806"/>
			<point x="67.474" y="585.806"/>
			<point x="72" y="533" type="curve"/>
			<point x="7" y="533"/>
			<point x="7" y="397"/>
			<point x="72" y="397" type="curve"/>
			<point x="52.158" y="359.529"/>
			<point x="93.703" y="337.529"/>
			<point x="113.545" y="375" type="curve"/>
			<point x="113.545" y="331.8"/>
			<point x="168.909" y="331.8"/>
			<point x="168.909" y="375" type="curve"/>
			<point x="168.909" y="327"/>
			<point x="232.182" y="327"/>
		</contour>
		<contour>
			<point x="196.591" y="25" type="curve"/>
			<point x="305.991" y="23.983"/>
			<point x="307.991" y="137.983"/>
			<point x="250" y="139" type="curve"/>
			<point x="290.063" y="163.955"/>
			<point x="256.427" y="217.955"/>
			<point x="216.364" y="193" type="curve"/>
			<point x="216.364" y="243.4"/>
			<point x="93.773" y="243.4"/>
			<point x="93.773" y="193" type="curve"/>
			<point x="71.235" y="242.072"/>
			<point x="49.462" y="232.072"/>
			<point x="72" y="183" type="curve"/>
			<point x="21" y="183"/>
			<point x="21" y="143"/>
			<point x="72" y="143" type="curve"/>
			<point x="18" y="143"/>
			<point x="18" y="103"/>
			<point x="72" y="103" type="curve"/>
			<point x="4.032" y="105.102"/>
			<point x="1.607" y="26.673"/>
			<point x="69.574" y="24.571" type="curve"/>
			<point x="69.797" y="-41.429"/>
			<point x="196.814" y="-41"/>
		</contour>
	</outline>
</glyph>
<glyph name="semicolon" format="2">
	<advance width="325"/>
	<unicode hex="003B"/>
	<outline>
		<contour>
			<point x="230.364" y="375" type="curve"/>
			<point x="315.991" y="374.018"/>
			<point x="317.991" y="484.018"/>
			<point x="264" y="485" type="curve"/>
			<point x="302.946" y="499.62"/>
			<point x="281.174" y="557.62"/>
			<point x="242.227" y="543" type="curve"/>
			<point x="242.227" y="605"/>
			<point x="178.955" y="605"/>
			<point x="178.955" y="543" type="curve"/>
			<point x="178.955" y="612"/>
			<point x="107.773" y="612"/>
			<point x="107.773" y="543" type="curve"/>
			<point x="56.762" y="553.097"/>
			<point x="34.99" y="443.097"/>
			<point x="86" y="433" type="curve"/>
			<point x="49.475" y="401.856"/>
			<point x="98.93" y="343.856"/>
			<point x="135.455" y="375" type="curve"/>
			<point x="135.455" y="323.8"/>
			<point x="230.364" y="323.8"/>
		</contour>
		<contour>
			<point x="99.269" y="-50" type="curve"/>
			<point x="197.01" y="-80.707"/>
			<point x="243.041" y="1.755"/>
			<point x="188.031" y="32.462" type="curve"/>
			<point x="242.967" y="10.945"/>
			<point x="258.875" y="51.56"/>
			<point x="203.938" y="73.077" type="curve"/>
			<point x="251.426" y="54.478"/>
			<point x="287.58" y="146.785"/>
			<point x="240.092" y="165.385" type="curve"/>
			<point x="274.84" y="199.649"/>
			<point x="237.748" y="237.264"/>
			<point x="203" y="203" type="curve"/>
			<point x="190.118" y="256.676"/>
			<point x="66.327" y="226.966"/>
			<point x="79.21" y="173.29" type="curve"/>
			<point x="16.933" y="182.812"/>
			<point x="6.788" y="116.457"/>
			<point x="69.065" y="106.935" type="curve"/>
			<point x="3.823" y="116.91"/>
			<point x="-6.322" y="50.556"/>
			<point x="58.919" y="40.581" type="curve"/>
			<point x="-5.334" y="50.405"/>
			<point x="-19.657" y="-43.273"/>
			<point x="44.597" y="-53.097" type="curve"/>
			<point x="47.933" y="-112.002"/>
			<point x="102.606" y="-108.906"/>
		</contour>
	</outline>
</glyph>
<glyph name="greater" format="2">
	<advance width="538"/>
	<unicode hex="003E"/>
	<outline>
		<contour>
			<point x="78" y="70.561" type="curve"/>
			<point x="102.935" y="-2.997"/>
			<point x="154.563" y="32.573"/>
			<point x="125.628" y="74.57" type="curve"/>
			<point x="160.906" y="22.374"/>
			<point x="233.27" y="71.283"/>
			<point x="197.992" y="123.479" type="curve"/>
			<point x="227.67" y="79.568"/>
			<point x="286.877" y="119.585"/>
			<point x="257.198" y="163.496" type="curve"/>
			<point x="286.877" y="119.585"/>
			<point x="323.059" y="144.039"/>
			<point x="293.38" y="187.95" type="curve"/>
			<point x="325.299" y="140.725"/>
			<point x="433.844" y="214.089"/>
			<point x="401.926" y="261.314" type="curve"/>
			<point x="434.852" y="232.127"/>
			<point x="521.926" y="330.359"/>
			<point x="489" y="359.545" type="curve"/>
			<point x="525.212" y="394.022"/>
			<point x="471.031" y="450.932"/>
			<point x="434.818" y="416.455" type="curve"/>
			<point x="471.216" y="470.308"/>
			<point x="425.167" y="501.432"/>
			<point x="388.769" y="447.579" type="curve"/>
			<point x="425.727" y="502.26"/>
			<point x="297.446" y="588.963"/>
			<point x="260.488" y="534.281" type="curve"/>
			<point x="295.206" y="585.649"/>
			<point x="196.528" y="652.343"/>
			<point x="161.81" y="600.975" type="curve"/>
			<point x="190.421" y="660.451"/>
			<point x="106.611" y="700.769"/>
			<point x="78" y="641.293" type="curve"/>
			<point x="11" y="641.293"/>
			<point x="11" y="589.927"/>
			<point x="78" y="589.927" type="curve"/>
			<point x="12.084" y="586.606"/>
			<point x="17.077" y="487.504"/>
			<point x="82.993" y="490.825" type="curve"/>
			<point x="56.171" y="448.628"/>
			<point x="165.565" y="379.093"/>
			<point x="192.387" y="421.29" type="curve"/>
			<point x="166.19" y="379.173"/>
			<point x="280.803" y="307.883"/>
			<point x="307" y="350" type="curve"/>
			<point x="282.782" y="388.638"/>
			<point x="238.96" y="361.17"/>
			<point x="263.177" y="322.532" type="curve"/>
			<point x="227.063" y="380.15"/>
			<point x="119.192" y="312.537"/>
			<point x="155.306" y="254.919" type="curve"/>
			<point x="125.254" y="284.829"/>
			<point x="47.947" y="207.154"/>
			<point x="78" y="177.244" type="curve"/>
			<point x="13" y="177.244"/>
			<point x="13" y="70.561"/>
		</contour>
	</outline>
</glyph>
<glyph name="question" format="2">
	<advance width="653"/>
	<unicode hex="003F"/>
	<outline>
		<contour>
			<point x="404.333" y="278" type="curve"/>
			<point x="481.515" y="240.417"/>
			<point x="576.778" y="345.646"/>
			<point x="535.263" y="383.229" type="curve"/>
			<point x="581.583" y="357.885"/>
			<point x="648.33" y="479.872"/>
			<point x="602.01" y="505.216" type="curve"/>
			<point x="651.324" y="528.184"/>
			<point x="591.088" y="657.518"/>
			<point x="541.774" y="634.551" type="curve"/>
			<point x="563.701" y="682.802"/>
			<point x="483.703" y="719.155"/>
			<point x="461.777" y="670.904" type="curve"/>
			<point x="476.223" y="738.375"/>
			<point x="436.986" y="746.776"/>
			<point x="422.54" y="679.305" type="curve"/>
			<point x="428.45" y="744.036"/>
			<point x="368.521" y="749.507"/>
			<point x="362.611" y="684.776" type="curve"/>
			<point x="353.964" y="747.18"/>
			<point x="199.902" y="725.832"/>
			<point x="208.549" y="663.428" type="curve"/>
			<point x="184.486" y="712.885"/>
			<point x="112.372" y="677.797"/>
			<point x="136.436" y="628.341" type="curve"/>
			<point x="99.331" y="671.61"/>
			<point x="56.702" y="635.054"/>
			<point x="93.807" y="591.785" type="curve"/>
			<point x="41.367" y="618.824"/>
			<point x="-0.502" y="537.624"/>
			<point x="51.938" y="510.585" type="curve"/>
			<point x="3.585" y="491.454"/>
			<point x="16.477" y="458.869"/>
			<point x="64.83" y="478" type="curve"/>
			<point x="64.83" y="419"/>
			<point x="175.638" y="419"/>
			<point x="175.638" y="478" type="curve"/>
			<point x="192.901" y="441.917"/>
			<point x="308.587" y="497.264"/>
			<point x="291.324" y="533.347" type="curve"/>
			<point x="283.376" y="487.633"/>
			<point x="368.463" y="472.84"/>
			<point x="376.411" y="518.554" type="curve"/>
			<point x="332.956" y="532.377"/>
			<point x="296.894" y="419.004"/>
			<point x="340.348" y="405.182" type="curve"/>
			<point x="307.553" y="435.703"/>
			<point x="217.649" y="339.097"/>
			<point x="250.444" y="308.576" type="curve"/>
			<point x="225.112" y="263.164"/>
			<point x="279.928" y="232.587"/>
			<point x="305.259" y="278" type="curve"/>
			<point x="305.259" y="223.6"/>
			<point x="404.333" y="223.6"/>
		</contour>
		<contour>
			<point x="407.065" y="25" type="curve"/>
			<point x="479.991" y="23.96"/>
			<point x="481.991" y="141.235"/>
			<point x="421" y="142.275" type="curve"/>
			<point x="463.543" y="177.448"/>
			<point x="425.738" y="223.173"/>
			<point x="383.196" y="188" type="curve"/>
			<point x="383.196" y="239.2"/>
			<point x="239.978" y="239.2"/>
			<point x="239.978" y="188" type="curve"/>
			<point x="190.358" y="209.303"/>
			<point x="184.38" y="195.378"/>
			<point x="234" y="174.075" type="curve"/>
			<point x="170" y="174.075"/>
			<point x="170" y="86.625"/>
			<point x="234" y="86.625" type="curve"/>
			<point x="185.316" y="66.188"/>
			<point x="211.185" y="4.563"/>
			<point x="259.87" y="25" type="curve"/>
			<point x="259.87" y="-43"/>
			<point x="407.065" y="-43"/>
		</contour>
	</outline>
</glyph>
<glyph name="A" format="2">
	<advance width="755"/>
	<unicode hex="0041"/>
	<anchor x="679" y="10" name="ogonek"/>
	<anchor x="378" y="0" name="bottom"/>
	<anchor x="378" y="700" name="top"/>
	<outline>
		<contour>
			<point x="195.191" y="30" type="curve"/>
			<point x="270.129" y="-4.622"/>
			<point x="320.037" y="86.378"/>
			<point x="256.908" y="121" type="curve"/>
			<point x="256.908" y="57"/>
			<point x="395.292" y="57"/>
			<point x="395.292" y="121" type="curve"/>
			<point x="382.095" y="60.421"/>
			<point x="502.237" y="34.247"/>
			<point x="515.435" y="94.826" type="curve"/>
			<point x="482.162" y="47.808"/>
			<point x="573.77" y="-17.018"/>
			<point x="607.043" y="30" type="curve"/>
			<point x="604.439" y="-48.957"/>
			<point x="723.482" y="-52.882"/>
			<point x="726.086" y="26.075" type="curve"/>
			<point x="789.376" y="50.942"/>
			<point x="765.573" y="111.526"/>
			<point x="702.282" y="86.659" type="curve"/>
			<point x="769.285" y="110.146"/>
			<point x="745.567" y="177.805"/>
			<point x="678.565" y="154.318" type="curve"/>
			<point x="741.792" y="176.482"/>
			<point x="700.945" y="293.006"/>
			<point x="637.718" y="270.841" type="curve"/>
			<point x="703.776" y="293.998"/>
			<point x="684.012" y="350.38"/>
			<point x="617.953" y="327.224" type="curve"/>
			<point x="687.787" y="351.704"/>
			<point x="652.21" y="453.192"/>
			<point x="582.376" y="428.712" type="curve"/>
			<point x="649.379" y="452.199"/>
			<point x="599.308" y="595.035"/>
			<point x="532.306" y="571.547" type="curve"/>
			<point x="591.759" y="592.388"/>
			<point x="578.582" y="629.976"/>
			<point x="519.129" y="609.135" type="curve"/>
			<point x="591.794" y="634.608"/>
			<point x="575.982" y="679.714"/>
			<point x="503.318" y="654.241" type="curve"/>
			<point x="512.842" y="719.55"/>
			<point x="404.779" y="735.309"/>
			<point x="395.255" y="670" type="curve"/>
			<point x="394.43" y="738.995"/>
			<point x="259.586" y="737.383"/>
			<point x="260.411" y="668.388" type="curve"/>
			<point x="192.967" y="696.321"/>
			<point x="168.426" y="637.069"/>
			<point x="235.871" y="609.135" type="curve"/>
			<point x="171.699" y="631.63"/>
			<point x="129.534" y="511.348"/>
			<point x="193.706" y="488.853" type="curve"/>
			<point x="127.647" y="512.01"/>
			<point x="84.165" y="387.969"/>
			<point x="150.224" y="364.812" type="curve"/>
			<point x="76.615" y="390.615"/>
			<point x="48.945" y="311.68"/>
			<point x="122.553" y="285.876" type="curve"/>
			<point x="54.607" y="309.695"/>
			<point x="24.301" y="223.242"/>
			<point x="92.247" y="199.424" type="curve"/>
			<point x="26.188" y="222.58"/>
			<point x="5.106" y="162.439"/>
			<point x="71.165" y="139.282" type="curve"/>
			<point x="6.993" y="161.777"/>
			<point x="-23.313" y="75.325"/>
			<point x="40.859" y="52.829" type="curve"/>
			<point x="22.822" y="-6.907"/>
			<point x="98.431" y="-29.736"/>
			<point x="116.468" y="30" type="curve"/>
			<point x="116.468" y="-49"/>
			<point x="195.191" y="-49"/>
		</contour>
		<contour>
			<point x="327.559" y="412.356" type="curve"/>
			<point x="335.585" y="429.989"/>
			<point x="398.263" y="414.735"/>
			<point x="410.678" y="465.746" type="curve"/>
			<point x="374.271" y="454.581"/>
			<point x="387.136" y="412.632"/>
			<point x="423.542" y="423.797" type="curve"/>
			<point x="391.419" y="413.945"/>
			<point x="418.317" y="326.234"/>
			<point x="450.441" y="336.085" type="curve"/>
			<point x="410.822" y="323.935"/>
			<point x="429.534" y="262.918"/>
			<point x="469.153" y="275.068" type="curve"/>
			<point x="457.249" y="323.321"/>
			<point x="379.954" y="304.253"/>
			<point x="391.857" y="256" type="curve"/>
			<point x="391.857" y="298.7"/>
			<point x="364.143" y="298.7"/>
			<point x="364.143" y="256" type="curve"/>
			<point x="364.143" y="294.64"/>
			<point x="288.918" y="294.64"/>
			<point x="288.918" y="256" type="curve"/>
			<point x="327.96" y="252.481"/>
			<point x="331.398" y="290.616"/>
			<point x="292.356" y="294.136" type="curve"/>
			<point x="327.779" y="283.587"/>
			<point x="340.27" y="325.537"/>
			<point x="304.847" y="336.085" type="curve"/>
			<point x="338.66" y="326.016"/>
			<point x="361.372" y="402.287"/>
		</contour>
	</outline>
</glyph>
<glyph name="J" format="2">
	<advance width="702"/>
	<unicode hex="004A"/>
	<outline>
		<contour>
			<point x="266.917" y="24.095" type="curve"/>
			<point x="336.073" y="-58.477"/>
			<point x="451.756" y="-45.103"/>
			<point x="442.683" y="33.374" type="curve"/>
			<point x="474.331" y="-26.812"/>
			<point x="590.639" y="34.346"/>
			<point x="558.991" y="94.532" type="curve"/>
			<point x="611.528" y="59.765"/>
			<point x="660.007" y="133.022"/>
			<point x="607.47" y="167.789" type="curve"/>
			<point x="672.72" y="157.872"/>
			<point x="688.251" y="260.054"/>
			<point x="623" y="269.971" type="curve"/>
			<point x="688" y="269.971"/>
			<point x="688" y="357.76"/>
			<point x="623" y="357.76" type="curve"/>
			<point x="684" y="357.76"/>
			<point x="684" y="437.567"/>
			<point x="623" y="437.567" type="curve"/>
			<point x="697" y="437.567"/>
			<point x="697" y="505.404"/>
			<point x="623" y="505.404" type="curve"/>
			<point x="692" y="505.404"/>
			<point x="692" y="661.029"/>
			<point x="623" y="661.029" type="curve"/>
			<point x="629.947" y="735.706"/>
			<point x="533.511" y="744.678"/>
			<point x="526.564" y="670" type="curve"/>
			<point x="526.564" y="737"/>
			<point x="431.105" y="737"/>
			<point x="431.105" y="670" type="curve"/>
			<point x="431.105" y="746"/>
			<point x="355.534" y="746"/>
			<point x="355.534" y="670" type="curve"/>
			<point x="355.534" y="738"/>
			<point x="315.759" y="738"/>
			<point x="315.759" y="670" type="curve"/>
			<point x="315.759" y="730"/>
			<point x="168.594" y="730"/>
			<point x="168.594" y="670" type="curve"/>
			<point x="154.229" y="747.683"/>
			<point x="85.635" y="734.999"/>
			<point x="100" y="657.316" type="curve"/>
			<point x="31" y="657.316"/>
			<point x="31" y="543.605"/>
			<point x="100" y="543.605" type="curve"/>
			<point x="83.719" y="468.346"/>
			<point x="160.475" y="451.741"/>
			<point x="176.756" y="527" type="curve"/>
			<point x="176.756" y="459"/>
			<point x="232.585" y="459"/>
			<point x="232.585" y="527" type="curve"/>
			<point x="232.585" y="457"/>
			<point x="292.402" y="457"/>
			<point x="292.402" y="527" type="curve"/>
			<point x="286.925" y="466.246"/>
			<point x="418.523" y="454.383"/>
			<point x="424" y="515.136" type="curve"/>
			<point x="355" y="515.136"/>
			<point x="355" y="475.591"/>
			<point x="424" y="475.591" type="curve"/>
			<point x="355" y="475.591"/>
			<point x="355" y="360.909"/>
			<point x="424" y="360.909" type="curve"/>
			<point x="364.049" y="363.324"/>
			<point x="358.306" y="220.721"/>
			<point x="418.257" y="218.306" type="curve"/>
			<point x="379.595" y="274.246"/>
			<point x="288.315" y="211.158"/>
			<point x="326.977" y="155.219" type="curve"/>
			<point x="372.195" y="212.528"/>
			<point x="281.217" y="284.31"/>
			<point x="236" y="227" type="curve"/>
			<point x="236" y="288"/>
			<point x="116" y="288"/>
			<point x="116" y="227" type="curve"/>
			<point x="84.922" y="281.11"/>
			<point x="15.653" y="241.327"/>
			<point x="46.731" y="187.216" type="curve"/>
			<point x="-7.014" y="152.467"/>
			<point x="55.538" y="55.723"/>
			<point x="109.283" y="90.472" type="curve"/>
			<point x="75.926" y="25.539"/>
			<point x="186.2" y="-31.11"/>
			<point x="219.557" y="33.824" type="curve"/>
			<point x="204.867" y="-37.683"/>
			<point x="252.228" y="-47.412"/>
		</contour>
	</outline>
</glyph>
<glyph name="L" format="2">
	<advance width="626"/>
	<unicode hex="004C"/>
	<anchor x="313" y="350" name="center"/>
	<anchor x="173" y="700" name="top"/>
	<anchor x="606" y="700" name="topright"/>
	<anchor x="313" y="0" name="bottom"/>
	<outline>
		<contour>
			<point x="578" y="30" type="curve"/>
			<point x="652.961" y="32.273"/>
			<point x="649.961" y="120.667"/>
			<point x="583" y="118.395" type="curve"/>
			<point x="658" y="118.395"/>
			<point x="658" y="158.132"/>
			<point x="583" y="158.132" type="curve"/>
			<point x="593.577" y="221.251"/>
			<point x="492.915" y="238.12"/>
			<point x="482.338" y="175" type="curve"/>
			<point x="482.338" y="235"/>
			<point x="342.792" y="235"/>
			<point x="342.792" y="175" type="curve"/>
			<point x="377.207" y="243.881"/>
			<point x="313.415" y="275.753"/>
			<point x="279" y="206.872" type="curve"/>
			<point x="357" y="206.872"/>
			<point x="357" y="342.328"/>
			<point x="279" y="342.328" type="curve"/>
			<point x="344" y="342.328"/>
			<point x="344" y="477.784"/>
			<point x="279" y="477.784" type="curve"/>
			<point x="346" y="477.784"/>
			<point x="346" y="521.608"/>
			<point x="279" y="521.608" type="curve"/>
			<point x="349" y="521.608"/>
			<point x="349" y="637.144"/>
			<point x="279" y="637.144" type="curve"/>
			<point x="295.581" y="688.115"/>
			<point x="194.581" y="720.971"/>
			<point x="178" y="670" type="curve"/>
			<point x="178" y="746"/>
			<point x="94" y="746"/>
			<point x="94" y="670" type="curve"/>
			<point x="34.748" y="691.405"/>
			<point x="25.748" y="666.491"/>
			<point x="85" y="645.086" type="curve"/>
			<point x="11" y="645.086"/>
			<point x="11" y="565.333"/>
			<point x="85" y="565.333" type="curve"/>
			<point x="12" y="565.333"/>
			<point x="12" y="421.778"/>
			<point x="85" y="421.778" type="curve"/>
			<point x="9" y="421.778"/>
			<point x="9" y="282.21"/>
			<point x="85" y="282.21" type="curve"/>
			<point x="13" y="282.21"/>
			<point x="13" y="194.481"/>
			<point x="85" y="194.481" type="curve"/>
			<point x="23" y="194.481"/>
			<point x="23" y="66.877"/>
			<point x="85" y="66.877" type="curve"/>
			<point x="65.002" y="7.768"/>
			<point x="174.002" y="-29.109"/>
			<point x="194" y="30" type="curve"/>
			<point x="194" y="-46"/>
			<point x="246" y="-46"/>
			<point x="246" y="30" type="curve"/>
			<point x="246" y="-42"/>
			<point x="374" y="-42"/>
			<point x="374" y="30" type="curve"/>
			<point x="374" y="-40"/>
			<point x="474" y="-40"/>
			<point x="474" y="30" type="curve"/>
			<point x="474" y="-40"/>
			<point x="578" y="-40"/>
		</contour>
	</outline>
</glyph>
<glyph name="O" format="2">
	<advance width="742"/>
	<unicode hex="004F"/>
	<anchor x="371" y="350" name="center"/>
	<anchor x="668" y="10" name="ogonek"/>
	<anchor x="371" y="700" name="top"/>
	<anchor x="722" y="700" name="topright"/>
	<anchor x="20" y="700" name="topleft"/>
	<anchor x="371" y="0" name="bottom"/>
	<outline>
		<contour>
			<point x="330.63" y="21.388" type="curve"/>
			<point x="375.177" y="-48.873"/>
			<point x="443.229" y="-44.747"/>
			<point x="439.053" y="24.127" type="curve"/>
			<point x="453.554" y="-51.495"/>
			<point x="504.753" y="-41.677"/>
			<point x="490.252" y="33.945" type="curve"/>
			<point x="516.126" y="-22.398"/>
			<point x="610.382" y="20.887"/>
			<point x="584.508" y="77.23" type="curve"/>
			<point x="624.943" y="31.557"/>
			<point x="654.946" y="58.12"/>
			<point x="614.51" y="103.792" type="curve"/>
			<point x="678.046" y="72.103"/>
			<point x="732.852" y="181.985"/>
			<point x="669.316" y="213.675" type="curve"/>
			<point x="741.242" y="210.401"/>
			<point x="748.333" y="366.173"/>
			<point x="676.407" y="369.447" type="curve"/>
			<point x="745.396" y="370.675"/>
			<point x="744.538" y="418.874"/>
			<point x="675.549" y="417.646" type="curve"/>
			<point x="745.739" y="428.343"/>
			<point x="731.069" y="524.598"/>
			<point x="660.879" y="513.9" type="curve"/>
			<point x="715.166" y="553.168"/>
			<point x="638.55" y="659.089"/>
			<point x="584.263" y="619.821" type="curve"/>
			<point x="621.936" y="685.826"/>
			<point x="566.191" y="717.644"/>
			<point x="528.518" y="651.638" type="curve"/>
			<point x="551.47" y="718.826"/>
			<point x="509.637" y="733.117"/>
			<point x="486.684" y="665.929" type="curve"/>
			<point x="494.493" y="737.505"/>
			<point x="366.723" y="751.444"/>
			<point x="358.914" y="679.869" type="curve"/>
			<point x="352.578" y="752.593"/>
			<point x="288.416" y="747.003"/>
			<point x="294.752" y="674.279" type="curve"/>
			<point x="269.99" y="736.535"/>
			<point x="132.869" y="681.997"/>
			<point x="157.63" y="619.74" type="curve"/>
			<point x="109.296" y="655.29"/>
			<point x="34.005" y="552.92"/>
			<point x="82.339" y="517.371" type="curve"/>
			<point x="7.814" y="532.271"/>
			<point x="-7.141" y="457.466"/>
			<point x="67.384" y="442.566" type="curve"/>
			<point x="-5.595" y="444.31"/>
			<point x="-7.408" y="368.45"/>
			<point x="65.571" y="366.706" type="curve"/>
			<point x="-12.427" y="366.136"/>
			<point x="-11.869" y="289.793"/>
			<point x="66.129" y="290.364" type="curve"/>
			<point x="-4.485" y="282.975"/>
			<point x="4.802" y="194.217"/>
			<point x="75.416" y="201.606" type="curve"/>
			<point x="23.074" y="169.127"/>
			<point x="95.705" y="52.077"/>
			<point x="148.047" y="84.555" type="curve"/>
			<point x="115.695" y="25.884"/>
			<point x="192.482" y="-16.456"/>
			<point x="224.833" y="42.215" type="curve"/>
			<point x="210.347" y="-31.372"/>
			<point x="316.143" y="-52.199"/>
		</contour>
		<contour>
			<point x="392.491" y="156.727" type="curve"/>
			<point x="397.988" y="203.267"/>
			<point x="308.14" y="253.504"/>
			<point x="281.152" y="205.237" type="curve"/>
			<point x="331.05" y="212.335"/>
			<point x="315.692" y="320.301"/>
			<point x="265.794" y="313.203" type="curve"/>
			<point x="320.394" y="313.375"/>
			<point x="320.204" y="373.646"/>
			<point x="265.604" y="373.474" type="curve"/>
			<point x="311.794" y="372.521"/>
			<point x="312.872" y="424.746"/>
			<point x="266.681" y="425.699" type="curve"/>
			<point x="316.955" y="422.136"/>
			<point x="319.033" y="451.458"/>
			<point x="268.759" y="455.02" type="curve"/>
			<point x="315.029" y="438.891"/>
			<point x="330.808" y="484.158"/>
			<point x="284.538" y="500.286" type="curve"/>
			<point x="310.395" y="461.158"/>
			<point x="375.396" y="504.112"/>
			<point x="349.539" y="543.241" type="curve"/>
			<point x="341.034" y="498.543"/>
			<point x="423.359" y="482.879"/>
			<point x="431.864" y="527.577" type="curve"/>
			<point x="387.894" y="497.629"/>
			<point x="425.582" y="442.296"/>
			<point x="469.551" y="472.245" type="curve"/>
			<point x="417.854" y="468.978"/>
			<point x="424.775" y="359.453"/>
			<point x="476.472" y="362.72" type="curve"/>
			<point x="429.582" y="363.669"/>
			<point x="427.359" y="253.894"/>
			<point x="474.249" y="252.944" type="curve"/>
			<point x="427.466" y="273.501"/>
			<point x="395.762" y="201.349"/>
			<point x="442.545" y="180.792" type="curve"/>
			<point x="419.493" y="228.738"/>
			<point x="369.439" y="204.673"/>
		</contour>
	</outline>
</glyph>
<glyph name="P" format="2">
	<advance width="705"/>
	<unicode hex="0050"/>
	<outline>
		<contour>
			<point x="244.423" y="30" type="curve"/>
			<point x="348.913" y="33.252"/>
			<point x="345.913" y="89.448"/>
			<point x="285" y="86.196" type="curve"/>
			<point x="362" y="86.196"/>
			<point x="362" y="192.75"/>
			<point x="285" y="192.75" type="curve"/>
			<point x="331.396" y="139.006"/>
			<point x="395.396" y="194.256"/>
			<point x="349" y="248" type="curve"/>
			<point x="350.96" y="177.027"/>
			<point x="443.134" y="179.572"/>
			<point x="441.175" y="250.545" type="curve"/>
			<point x="453.574" y="180.636"/>
			<point x="520.744" y="192.549"/>
			<point x="508.344" y="262.458" type="curve"/>
			<point x="529.504" y="205.246"/>
			<point x="574.664" y="221.948"/>
			<point x="553.504" y="279.16" type="curve"/>
			<point x="590.266" y="230.482"/>
			<point x="650.741" y="276.153"/>
			<point x="613.979" y="324.831" type="curve"/>
			<point x="678.801" y="293.493"/>
			<point x="715.161" y="368.702"/>
			<point x="650.338" y="400.04" type="curve"/>
			<point x="716.039" y="393.762"/>
			<point x="721.674" y="452.738"/>
			<point x="655.973" y="459.015" type="curve"/>
			<point x="729.956" y="480.359"/>
			<point x="695.977" y="598.14"/>
			<point x="621.995" y="576.797" type="curve"/>
			<point x="666.464" y="621.422"/>
			<point x="621.225" y="666.504"/>
			<point x="576.755" y="621.879" type="curve"/>
			<point x="601.898" y="695.715"/>
			<point x="470.259" y="740.543"/>
			<point x="445.115" y="666.707" type="curve"/>
			<point x="447.11" y="729.675"/>
			<point x="343.139" y="732.968"/>
			<point x="341.145" y="670" type="curve"/>
			<point x="341.145" y="747"/>
			<point x="245.461" y="747"/>
			<point x="245.461" y="670" type="curve"/>
			<point x="245.461" y="733"/>
			<point x="173.697" y="733"/>
			<point x="173.697" y="670" type="curve"/>
			<point x="164.017" y="736.297"/>
			<point x="75.32" y="723.346"/>
			<point x="85" y="657.049" type="curve"/>
			<point x="6" y="657.049"/>
			<point x="6" y="549.383"/>
			<point x="85" y="549.383" type="curve"/>
			<point x="10" y="549.383"/>
			<point x="10" y="497.543"/>
			<point x="85" y="497.543" type="curve"/>
			<point x="19" y="497.543"/>
			<point x="19" y="429.753"/>
			<point x="85" y="429.753" type="curve"/>
			<point x="11" y="429.753"/>
			<point x="11" y="330.062"/>
			<point x="85" y="330.062" type="curve"/>
			<point x="8" y="330.062"/>
			<point x="8" y="266.259"/>
			<point x="85" y="266.259" type="curve"/>
			<point x="24" y="266.259"/>
			<point x="24" y="150.617"/>
			<point x="85" y="150.617" type="curve"/>
			<point x="7" y="150.617"/>
			<point x="7" y="66.877"/>
			<point x="85" y="66.877" type="curve"/>
			<point x="60.337" y="23.843"/>
			<point x="124.684" y="-13.034"/>
			<point x="149.346" y="30" type="curve"/>
			<point x="149.346" y="-41"/>
			<point x="188.962" y="-41"/>
			<point x="188.962" y="30" type="curve"/>
			<point x="188.962" y="-36"/>
			<point x="244.423" y="-36"/>
		</contour>
		<contour>
			<point x="280" y="480.372" type="curve"/>
			<point x="279.965" y="503.12"/>
			<point x="383.99" y="503.031"/>
			<point x="384.025" y="543.911" type="curve"/>
			<point x="366.664" y="508.141"/>
			<point x="419.327" y="482.581"/>
			<point x="436.688" y="518.35" type="curve"/>
			<point x="396.713" y="513.089"/>
			<point x="409.478" y="416.101"/>
			<point x="449.453" y="421.362" type="curve"/>
			<point x="414.129" y="453.268"/>
			<point x="377" y="412.161"/>
			<point x="412.324" y="380.255" type="curve"/>
			<point x="409.405" y="423.838"/>
			<point x="301.081" y="416.582"/>
			<point x="304" y="373" type="curve"/>
			<point x="311.049" y="415.54"/>
			<point x="287.049" y="419.517"/>
			<point x="280" y="376.977" type="curve"/>
			<point x="319.2" y="376.977"/>
			<point x="319.2" y="440.605"/>
			<point x="280" y="440.605" type="curve"/>
			<point x="320.32" y="440.605"/>
			<point x="320.32" y="480.372"/>
		</contour>
	</outline>
</glyph>
<glyph name="R" format="2">
	<advance width="722"/>
	<unicode hex="0052"/>
	<anchor x="341" y="700" name="top"/>
	<anchor x="361" y="0" name="bottom"/>
	<outline>
		<contour>
			<point x="254" y="30" type="curve"/>
			<point x="327.581" y="31.384"/>
			<point x="324.581" y="138.884"/>
			<point x="275" y="137.5" type="curve"/>
			<point x="336.343" y="122.294"/>
			<point x="363.735" y="232.794"/>
			<point x="302.391" y="248" type="curve"/>
			<point x="302.391" y="182"/>
			<point x="365" y="182"/>
			<point x="365" y="248" type="curve"/>
			<point x="319.765" y="227.655"/>
			<point x="368.385" y="119.551"/>
			<point x="413.621" y="139.897" type="curve"/>
			<point x="361.819" y="116.598"/>
			<point x="384.509" y="66.15"/>
			<point x="436.31" y="89.448" type="curve"/>
			<point x="380.238" y="49.237"/>
			<point x="422.87" y="-10.211"/>
			<point x="478.942" y="30" type="curve"/>
			<point x="478.942" y="-41"/>
			<point x="597.212" y="-41"/>
			<point x="597.212" y="30" type="curve"/>
			<point x="597.212" y="-44"/>
			<point x="644.519" y="-44"/>
			<point x="644.519" y="30" type="curve"/>
			<point x="693.099" y="25.371"/>
			<point x="696.361" y="59.604"/>
			<point x="647.781" y="64.233" type="curve"/>
			<point x="715.663" y="100.579"/>
			<point x="659.772" y="204.963"/>
			<point x="591.89" y="168.616" type="curve"/>
			<point x="658.891" y="204.491"/>
			<point x="638.398" y="242.765"/>
			<point x="571.397" y="206.89" type="curve"/>
			<point x="640.226" y="239.117"/>
			<point x="608.427" y="307.035"/>
			<point x="539.597" y="274.808" type="curve"/>
			<point x="573.188" y="220.332"/>
			<point x="607.421" y="241.44"/>
			<point x="573.83" y="295.916" type="curve"/>
			<point x="621.691" y="247.611"/>
			<point x="664.434" y="289.961"/>
			<point x="616.574" y="338.266" type="curve"/>
			<point x="677.052" y="322.902"/>
			<point x="713.339" y="465.735"/>
			<point x="652.86" y="481.099" type="curve"/>
			<point x="723.21" y="509.854"/>
			<point x="679.774" y="616.122"/>
			<point x="609.424" y="587.367" type="curve"/>
			<point x="650.189" y="649.126"/>
			<point x="557.246" y="710.475"/>
			<point x="516.481" y="648.716" type="curve"/>
			<point x="531.847" y="712.902"/>
			<point x="461.555" y="729.731"/>
			<point x="446.188" y="665.545" type="curve"/>
			<point x="452.614" y="734.245"/>
			<point x="412.576" y="737.99"/>
			<point x="406.15" y="669.29" type="curve"/>
			<point x="406.485" y="735.289"/>
			<point x="266.335" y="736"/>
			<point x="266" y="670" type="curve"/>
			<point x="266" y="742"/>
			<point x="114" y="742"/>
			<point x="114" y="670" type="curve"/>
			<point x="55.273" y="691.093"/>
			<point x="26.273" y="610.352"/>
			<point x="85" y="589.259" type="curve"/>
			<point x="25" y="589.259"/>
			<point x="25" y="517.481"/>
			<point x="85" y="517.481" type="curve"/>
			<point x="10" y="517.481"/>
			<point x="10" y="429.753"/>
			<point x="85" y="429.753" type="curve"/>
			<point x="23" y="429.753"/>
			<point x="23" y="338.037"/>
			<point x="85" y="338.037" type="curve"/>
			<point x="15" y="338.037"/>
			<point x="15" y="278.222"/>
			<point x="85" y="278.222" type="curve"/>
			<point x="15" y="278.222"/>
			<point x="15" y="174.543"/>
			<point x="85" y="174.543" type="curve"/>
			<point x="15" y="174.543"/>
			<point x="15" y="38.963"/>
			<point x="85" y="38.963" type="curve"/>
			<point x="76.394" y="-23.447"/>
			<point x="141.394" y="-32.409"/>
			<point x="150" y="30" type="curve"/>
			<point x="150" y="-40"/>
			<point x="254" y="-40"/>
		</contour>
		<contour>
			<point x="275" y="512.381" type="curve"/>
			<point x="275" y="507.6"/>
			<point x="306.692" y="507.6"/>
			<point x="306.692" y="544" type="curve"/>
			<point x="306.479" y="502"/>
			<point x="385.939" y="501.596"/>
			<point x="386.152" y="543.596" type="curve"/>
			<point x="371.936" y="504.671"/>
			<point x="406.075" y="492.202"/>
			<point x="420.291" y="531.127" type="curve"/>
			<point x="383.196" y="518.454"/>
			<point x="414.82" y="425.888"/>
			<point x="451.915" y="438.561" type="curve"/>
			<point x="410.581" y="472.054"/>
			<point x="365.852" y="416.854"/>
			<point x="407.186" y="383.361" type="curve"/>
			<point x="403.649" y="423.525"/>
			<point x="342.771" y="418.165"/>
			<point x="346.308" y="378" type="curve"/>
			<point x="346.308" y="413.84"/>
			<point x="310.654" y="413.84"/>
			<point x="310.654" y="378" type="curve"/>
			<point x="337.959" y="398.526"/>
			<point x="302.305" y="445.955"/>
			<point x="275" y="425.429" type="curve"/>
			<point x="309.16" y="425.429"/>
			<point x="309.16" y="512.381"/>
		</contour>
	</outline>
</glyph>
<glyph name="U" format="2">
	<advance width="746"/>
	<unicode hex="0055"/>
	<anchor x="671" y="10" name="ogonek"/>
	<anchor x="373" y="700" name="top"/>
	<anchor x="726" y="700" name="topright"/>
	<anchor x="373" y="0" name="bottom"/>
	<outline>
		<contour>
			<point x="341.326" y="20.866" type="curve"/>
			<point x="376.748" y="-46.944"/>
			<point x="425.007" y="-44.963"/>
			<point x="422.26" y="21.981" type="curve"/>
			<point x="441.367" y="-49.51"/>
			<point x="572.73" y="-14.4"/>
			<point x="553.623" y="57.091" type="curve"/>
			<point x="605.668" y="-1.006"/>
			<point x="682.779" y="68.072"/>
			<point x="630.733" y="126.169" type="curve"/>
			<point x="680.337" y="113.483"/>
			<point x="716.603" y="255.284"/>
			<point x="667" y="267.971" type="curve"/>
			<point x="731" y="267.971"/>
			<point x="731" y="414.893"/>
			<point x="667" y="414.893" type="curve"/>
			<point x="734" y="414.893"/>
			<point x="734" y="474.456"/>
			<point x="667" y="474.456" type="curve"/>
			<point x="739" y="474.456"/>
			<point x="739" y="518.136"/>
			<point x="667" y="518.136" type="curve"/>
			<point x="735" y="518.136"/>
			<point x="735" y="557.845"/>
			<point x="667" y="557.845" type="curve"/>
			<point x="737" y="557.845"/>
			<point x="737" y="625.35"/>
			<point x="667" y="625.35" type="curve"/>
			<point x="713.199" y="663.633"/>
			<point x="676.199" y="708.283"/>
			<point x="630" y="670" type="curve"/>
			<point x="630" y="739"/>
			<point x="498" y="739"/>
			<point x="498" y="670" type="curve"/>
			<point x="448.758" y="680.742"/>
			<point x="427.758" y="584.477"/>
			<point x="477" y="573.735" type="curve"/>
			<point x="411" y="573.735"/>
			<point x="411" y="494.324"/>
			<point x="477" y="494.324" type="curve"/>
			<point x="416" y="494.324"/>
			<point x="416" y="430.794"/>
			<point x="477" y="430.794" type="curve"/>
			<point x="416" y="430.794"/>
			<point x="416" y="383.147"/>
			<point x="477" y="383.147" type="curve"/>
			<point x="405" y="383.147"/>
			<point x="405" y="291.824"/>
			<point x="477" y="291.824" type="curve"/>
			<point x="411.73" y="310.899"/>
			<point x="380.867" y="205.295"/>
			<point x="446.136" y="186.22" type="curve"/>
			<point x="441.694" y="257.08"/>
			<point x="306.262" y="248.589"/>
			<point x="310.704" y="177.728" type="curve"/>
			<point x="366.724" y="196.872"/>
			<point x="325.019" y="318.909"/>
			<point x="269" y="299.765" type="curve"/>
			<point x="345" y="299.765"/>
			<point x="345" y="434.765"/>
			<point x="269" y="434.765" type="curve"/>
			<point x="345" y="434.765"/>
			<point x="345" y="494.324"/>
			<point x="269" y="494.324" type="curve"/>
			<point x="335" y="494.324"/>
			<point x="335" y="557.853"/>
			<point x="269" y="557.853" type="curve"/>
			<point x="343" y="557.853"/>
			<point x="343" y="645.206"/>
			<point x="269" y="645.206" type="curve"/>
			<point x="288.296" y="702.018"/>
			<point x="215.296" y="726.813"/>
			<point x="196" y="670" type="curve"/>
			<point x="196" y="748"/>
			<point x="128" y="748"/>
			<point x="128" y="670" type="curve"/>
			<point x="86.331" y="695.399"/>
			<point x="37.331" y="615.011"/>
			<point x="79" y="589.612" type="curve"/>
			<point x="9" y="589.612"/>
			<point x="9" y="526.078"/>
			<point x="79" y="526.078" type="curve"/>
			<point x="8" y="526.078"/>
			<point x="8" y="442.689"/>
			<point x="79" y="442.689" type="curve"/>
			<point x="7" y="442.689"/>
			<point x="7" y="299.738"/>
			<point x="79" y="299.738" type="curve"/>
			<point x="11.512" y="291.406"/>
			<point x="28.139" y="156.726"/>
			<point x="95.627" y="165.058" type="curve"/>
			<point x="50.425" y="128.081"/>
			<point x="130.75" y="29.887"/>
			<point x="175.952" y="66.864" type="curve"/>
			<point x="152.578" y="6.212"/>
			<point x="249.939" y="-31.31"/>
			<point x="273.314" y="29.342" type="curve"/>
			<point x="265.894" y="-30.198"/>
			<point x="333.906" y="-38.674"/>
		</contour>
	</outline>
</glyph>
<glyph name="V" format="2">
	<advance width="726"/>
	<unicode hex="0056"/>
	<outline>
		<contour>
			<point x="425" y="30" type="curve"/>
			<point x="546.726" y="2.372"/>
			<point x="596.498" y="127.982"/>
			<point x="526.772" y="155.611" type="curve"/>
			<point x="585.285" y="138.369"/>
			<point x="597.668" y="180.393"/>
			<point x="539.156" y="197.635" type="curve"/>
			<point x="610.138" y="176.718"/>
			<point x="634.905" y="260.766"/>
			<point x="563.922" y="281.683" type="curve"/>
			<point x="626.272" y="263.31"/>
			<point x="661.17" y="381.741"/>
			<point x="598.82" y="400.114" type="curve"/>
			<point x="656.374" y="383.154"/>
			<point x="695.775" y="516.867"/>
			<point x="638.222" y="533.826" type="curve"/>
			<point x="696.734" y="516.584"/>
			<point x="732.758" y="638.836"/>
			<point x="674.246" y="656.078" type="curve"/>
			<point x="711" y="657"/>
			<point x="710" y="671"/>
			<point x="673.17" y="670" type="curve"/>
			<point x="673.17" y="733"/>
			<point x="582.149" y="733"/>
			<point x="582.149" y="670" type="curve"/>
			<point x="582.149" y="730"/>
			<point x="526.745" y="730"/>
			<point x="526.745" y="670" type="curve"/>
			<point x="513.749" y="740.817"/>
			<point x="475.676" y="733.831"/>
			<point x="488.672" y="663.013" type="curve"/>
			<point x="425.814" y="679.563"/>
			<point x="402.371" y="590.529"/>
			<point x="465.229" y="573.979" type="curve"/>
			<point x="393.542" y="592.336"/>
			<point x="375.73" y="522.773"/>
			<point x="447.417" y="504.417" type="curve"/>
			<point x="397.817" y="517.117"/>
			<point x="371.098" y="412.774"/>
			<point x="420.698" y="400.073" type="curve"/>
			<point x="373.426" y="423.594"/>
			<point x="317.662" y="311.521"/>
			<point x="364.933" y="288" type="curve"/>
			<point x="401.229" y="326.346"/>
			<point x="360.4" y="364.992"/>
			<point x="324.104" y="326.646" type="curve"/>
			<point x="383.779" y="341.926"/>
			<point x="364.977" y="415.353"/>
			<point x="305.302" y="400.073" type="curve"/>
			<point x="355.677" y="412.972"/>
			<point x="318.073" y="559.826"/>
			<point x="267.698" y="546.927" type="curve"/>
			<point x="320.136" y="574.402"/>
			<point x="255.651" y="697.475"/>
			<point x="203.213" y="670" type="curve"/>
			<point x="203.213" y="746"/>
			<point x="124.064" y="746"/>
			<point x="124.064" y="670" type="curve"/>
			<point x="127.781" y="745.909"/>
			<point x="47.632" y="749.834"/>
			<point x="43.914" y="673.925" type="curve"/>
			<point x="-20.711" y="652.77"/>
			<point x="5.141" y="573.797"/>
			<point x="69.766" y="594.952" type="curve"/>
			<point x="7.417" y="576.58"/>
			<point x="27.681" y="507.813"/>
			<point x="90.03" y="526.186" type="curve"/>
			<point x="18.088" y="504.987"/>
			<point x="59.741" y="363.633"/>
			<point x="131.683" y="384.832" type="curve"/>
			<point x="64.537" y="365.047"/>
			<point x="94.932" y="261.897"/>
			<point x="162.078" y="281.683" type="curve"/>
			<point x="93.973" y="261.614"/>
			<point x="110.859" y="204.309"/>
			<point x="178.964" y="224.377" type="curve"/>
			<point x="112.778" y="204.874"/>
			<point x="155.556" y="59.7"/>
			<point x="221.743" y="79.204" type="curve"/>
			<point x="188.758" y="42.161"/>
			<point x="244.015" y="-7.043"/>
			<point x="277" y="30" type="curve"/>
			<point x="277" y="-34"/>
			<point x="381" y="-34"/>
			<point x="381" y="30" type="curve"/>
			<point x="381" y="-44"/>
			<point x="425" y="-44"/>
		</contour>
	</outline>
</glyph>
<glyph name="Y" format="2">
	<advance width="710"/>
	<unicode hex="0059"/>
	<anchor x="355" y="700" name="top"/>
	<anchor x="355" y="0" name="bottom"/>
	<anchor x="20" y="700" name="topleft"/>
	<outline>
		<contour>
			<point x="409" y="30" type="curve"/>
			<point x="515.982" y="31.512"/>
			<point x="512.982" y="156.512"/>
			<point x="450" y="155" type="curve"/>
			<point x="522.445" y="139.908"/>
			<point x="549.374" y="269.176"/>
			<point x="476.929" y="284.268" type="curve"/>
			<point x="531.368" y="256.747"/>
			<point x="599.588" y="391.691"/>
			<point x="545.15" y="419.213" type="curve"/>
			<point x="602.266" y="390.338"/>
			<point x="634.581" y="454.259"/>
			<point x="577.465" y="483.134" type="curve"/>
			<point x="642.613" y="450.199"/>
			<point x="701.857" y="567.388"/>
			<point x="636.709" y="600.323" type="curve"/>
			<point x="705.427" y="565.583"/>
			<point x="734.151" y="622.402"/>
			<point x="665.433" y="657.142" type="curve"/>
			<point x="700.827" y="724.397"/>
			<point x="676.394" y="737.255"/>
			<point x="641" y="670" type="curve"/>
			<point x="641" y="738"/>
			<point x="593" y="738"/>
			<point x="593" y="670" type="curve"/>
			<point x="573.756" y="723.441"/>
			<point x="443.353" y="676.482"/>
			<point x="462.597" y="623.042" type="curve"/>
			<point x="404.414" y="652.019"/>
			<point x="360.317" y="563.478"/>
			<point x="418.5" y="534.5" type="curve"/>
			<point x="370.269" y="561.347"/>
			<point x="303.241" y="440.93"/>
			<point x="351.472" y="414.083" type="curve"/>
			<point x="403.032" y="439.762"/>
			<point x="360.698" y="524.762"/>
			<point x="309.139" y="499.083" type="curve"/>
			<point x="366.427" y="527.615"/>
			<point x="322.33" y="616.157"/>
			<point x="265.042" y="587.625" type="curve"/>
			<point x="330.984" y="629.285"/>
			<point x="278.943" y="711.66"/>
			<point x="213" y="670" type="curve"/>
			<point x="213" y="744"/>
			<point x="57" y="744"/>
			<point x="57" y="670" type="curve"/>
			<point x="-12.917" y="673.4"/>
			<point x="-14.579" y="639.235"/>
			<point x="55.339" y="635.835" type="curve"/>
			<point x="-8.917" y="603.351"/>
			<point x="25.193" y="535.878"/>
			<point x="89.449" y="568.362" type="curve"/>
			<point x="22.516" y="534.525"/>
			<point x="76.374" y="427.989"/>
			<point x="143.307" y="461.827" type="curve"/>
			<point x="81.729" y="430.696"/>
			<point x="149.949" y="295.751"/>
			<point x="211.528" y="326.882" type="curve"/>
			<point x="143.702" y="292.593"/>
			<point x="165.245" y="249.979"/>
			<point x="233.071" y="284.268" type="curve"/>
			<point x="162.497" y="270.007"/>
			<point x="189.426" y="136.739"/>
			<point x="260" y="151" type="curve"/>
			<point x="192" y="151"/>
			<point x="192" y="35"/>
			<point x="260" y="35" type="curve"/>
			<point x="246.747" y="-41.866"/>
			<point x="275.747" y="-46.866"/>
			<point x="289" y="30" type="curve"/>
			<point x="289" y="-30"/>
			<point x="409" y="-30"/>
		</contour>
	</outline>
</glyph>
<glyph name="bracketleft" format="2">
	<advance width="432"/>
	<unicode hex="005B"/>
	<outline>
		<contour>
			<point x="361.066" y="-134" type="curve"/>
			<point x="440.993" y="-134.929"/>
			<point x="442.993" y="-5.794"/>
			<point x="383" y="-4.865" type="curve"/>
			<point x="391.71" y="34.175"/>
			<point x="293.71" y="56.04"/>
			<point x="285" y="17" type="curve"/>
			<point x="329.031" y="46.5"/>
			<point x="281.031" y="118.143"/>
			<point x="237" y="88.642" type="curve"/>
			<point x="306" y="88.642"/>
			<point x="306" y="148.344"/>
			<point x="237" y="148.344" type="curve"/>
			<point x="296" y="148.344"/>
			<point x="296" y="303.57"/>
			<point x="237" y="303.57" type="curve"/>
			<point x="296" y="303.57"/>
			<point x="296" y="347.351"/>
			<point x="237" y="347.351" type="curve"/>
			<point x="301" y="347.351"/>
			<point x="301" y="438.894"/>
			<point x="237" y="438.894" type="curve"/>
			<point x="297" y="438.894"/>
			<point x="297" y="490.636"/>
			<point x="237" y="490.636" type="curve"/>
			<point x="286.78" y="485.946"/>
			<point x="298.78" y="613.31"/>
			<point x="249" y="618" type="curve"/>
			<point x="249" y="560"/>
			<point x="353" y="560"/>
			<point x="353" y="618" type="curve"/>
			<point x="396.702" y="602.409"/>
			<point x="426.702" y="686.5"/>
			<point x="383" y="702.091" type="curve"/>
			<point x="433.695" y="720.693"/>
			<point x="415.747" y="769.603"/>
			<point x="365.053" y="751" type="curve"/>
			<point x="365.053" y="801"/>
			<point x="233.487" y="801"/>
			<point x="233.487" y="751" type="curve"/>
			<point x="233.487" y="804"/>
			<point x="117.868" y="804"/>
			<point x="117.868" y="751" type="curve"/>
			<point x="89.97" y="790.06"/>
			<point x="48.101" y="760.155"/>
			<point x="76" y="721.095" type="curve"/>
			<point x="14" y="721.095"/>
			<point x="14" y="629.407"/>
			<point x="76" y="629.407" type="curve"/>
			<point x="17" y="629.407"/>
			<point x="17" y="545.692"/>
			<point x="76" y="545.692" type="curve"/>
			<point x="15" y="545.692"/>
			<point x="15" y="469.95"/>
			<point x="76" y="469.95" type="curve"/>
			<point x="23" y="469.95"/>
			<point x="23" y="382.249"/>
			<point x="76" y="382.249" type="curve"/>
			<point x="17" y="382.249"/>
			<point x="17" y="286.575"/>
			<point x="76" y="286.575" type="curve"/>
			<point x="25" y="286.575"/>
			<point x="25" y="147.05"/>
			<point x="76" y="147.05" type="curve"/>
			<point x="26" y="147.05"/>
			<point x="26" y="19.484"/>
			<point x="76" y="19.484" type="curve"/>
			<point x="14" y="19.484"/>
			<point x="14" y="-124.027"/>
			<point x="76" y="-124.027" type="curve"/>
			<point x="68.501" y="-176.494"/>
			<point x="138.277" y="-186.467"/>
			<point x="145.776" y="-134" type="curve"/>
			<point x="145.776" y="-185"/>
			<point x="209.566" y="-185"/>
			<point x="209.566" y="-134" type="curve"/>
			<point x="209.566" y="-198"/>
			<point x="361.066" y="-198"/>
		</contour>
	</outline>
</glyph>
<glyph name="bracketright" format="2">
	<advance width="432"/>
	<unicode hex="005D"/>
	<outline>
		<contour>
			<point x="314.132" y="-134" type="curve"/>
			<point x="403.96" y="-136.005"/>
			<point x="405.96" y="-86.168"/>
			<point x="356" y="-84.163" type="curve"/>
			<point x="417" y="-84.163"/>
			<point x="417" y="31.443"/>
			<point x="356" y="31.443" type="curve"/>
			<point x="419" y="31.443"/>
			<point x="419" y="123.131"/>
			<point x="356" y="123.131" type="curve"/>
			<point x="413" y="123.131"/>
			<point x="413" y="210.833"/>
			<point x="356" y="210.833" type="curve"/>
			<point x="410" y="210.833"/>
			<point x="410" y="306.507"/>
			<point x="356" y="306.507" type="curve"/>
			<point x="410" y="306.507"/>
			<point x="410" y="450.018"/>
			<point x="356" y="450.018" type="curve"/>
			<point x="413" y="450.018"/>
			<point x="413" y="537.719"/>
			<point x="356" y="537.719" type="curve"/>
			<point x="418" y="537.719"/>
			<point x="418" y="661.299"/>
			<point x="356" y="661.299" type="curve"/>
			<point x="413.979" y="659.738"/>
			<point x="416.405" y="749.869"/>
			<point x="358.426" y="751.429" type="curve"/>
			<point x="358.065" y="815.428"/>
			<point x="281.876" y="814.999"/>
			<point x="282.237" y="751" type="curve"/>
			<point x="282.237" y="811"/>
			<point x="218.447" y="811"/>
			<point x="218.447" y="751" type="curve"/>
			<point x="218.447" y="818"/>
			<point x="70.934" y="818"/>
			<point x="70.934" y="751" type="curve"/>
			<point x="24.462" y="765.891"/>
			<point x="2.527" y="697.436"/>
			<point x="49" y="682.545" type="curve"/>
			<point x="16.746" y="657.56"/>
			<point x="66.746" y="593.014"/>
			<point x="99" y="618" type="curve"/>
			<point x="93.298" y="549.236"/>
			<point x="189.298" y="541.276"/>
			<point x="195" y="610.04" type="curve"/>
			<point x="144" y="610.04"/>
			<point x="144" y="534.417"/>
			<point x="195" y="534.417" type="curve"/>
			<point x="145" y="534.417"/>
			<point x="145" y="403.073"/>
			<point x="195" y="403.073" type="curve"/>
			<point x="128" y="403.073"/>
			<point x="128" y="343.371"/>
			<point x="195" y="343.371" type="curve"/>
			<point x="145" y="343.371"/>
			<point x="145" y="295.609"/>
			<point x="195" y="295.609" type="curve"/>
			<point x="142" y="295.609"/>
			<point x="142" y="164.265"/>
			<point x="195" y="164.265" type="curve"/>
			<point x="144.019" y="165.65"/>
			<point x="140.019" y="18.385"/>
			<point x="191" y="17" type="curve"/>
			<point x="191" y="77"/>
			<point x="135" y="77"/>
			<point x="135" y="17" type="curve"/>
			<point x="119.541" y="61.597"/>
			<point x="33.541" y="31.786"/>
			<point x="49" y="-12.811" type="curve"/>
			<point x="-7" y="-12.811"/>
			<point x="-7" y="-64.459"/>
			<point x="49" y="-64.459" type="curve"/>
			<point x="-16" y="-64.459"/>
			<point x="-16" y="-104.189"/>
			<point x="49" y="-104.189" type="curve"/>
			<point x="34.819" y="-152.553"/>
			<point x="136.49" y="-182.364"/>
			<point x="150.671" y="-134" type="curve"/>
			<point x="150.671" y="-199"/>
			<point x="206.487" y="-199"/>
			<point x="206.487" y="-134" type="curve"/>
			<point x="206.487" y="-198"/>
			<point x="274.263" y="-198"/>
			<point x="274.263" y="-134" type="curve"/>
			<point x="274.263" y="-189"/>
			<point x="314.132" y="-189"/>
		</contour>
	</outline>
</glyph>
<glyph name="asciicircum" format="2">
	<advance width="492"/>
	<unicode hex="005E"/>
	<outline>
		<contour>
			<point x="51.882" y="620" type="curve"/>
			<point x="133.505" y="566.441"/>
			<point x="229.988" y="601.579"/>
			<point x="210.483" y="655.138" type="curve"/>
			<point x="217.029" y="596.502"/>
			<point x="273.857" y="602.847"/>
			<point x="267.31" y="661.483" type="curve"/>
			<point x="245.553" y="603.426"/>
			<point x="356.242" y="561.943"/>
			<point x="378" y="620" type="curve"/>
			<point x="378" y="563"/>
			<point x="440.118" y="563"/>
			<point x="440.118" y="620" type="curve"/>
			<point x="475.993" y="666.84"/>
			<point x="425.447" y="705.554"/>
			<point x="389.571" y="658.714" type="curve"/>
			<point x="427.128" y="693.218"/>
			<point x="392.152" y="731.289"/>
			<point x="354.595" y="696.786" type="curve"/>
			<point x="374.173" y="742.359"/>
			<point x="273.577" y="785.573"/>
			<point x="254" y="740" type="curve"/>
			<point x="241.507" y="793.768"/>
			<point x="143.746" y="771.054"/>
			<point x="156.238" y="717.286" type="curve"/>
			<point x="109.108" y="760.584"/>
			<point x="55.298" y="702.013"/>
			<point x="102.429" y="658.714" type="curve"/>
			<point x="64.121" y="708.73"/>
			<point x="13.575" y="670.015"/>
		</contour>
	</outline>
</glyph>
<glyph name="h" format="2">
	<advance width="685"/>
	<unicode hex="0068"/>
	<outline>
		<contour>
			<point x="211.286" y="25" type="curve"/>
			<point x="318.192" y="24.123"/>
			<point x="320.192" y="140.843"/>
			<point x="269" y="141.721" type="curve"/>
			<point x="320.2" y="141.721"/>
			<point x="320.2" y="248.529"/>
			<point x="269" y="248.529" type="curve"/>
			<point x="308.766" y="244.207"/>
			<point x="318.686" y="335.462"/>
			<point x="278.92" y="339.785" type="curve"/>
			<point x="308.219" y="282.885"/>
			<point x="378.389" y="319.017"/>
			<point x="349.091" y="375.917" type="curve"/>
			<point x="311.253" y="353.46"/>
			<point x="382.162" y="233.984"/>
			<point x="420" y="256.441" type="curve"/>
			<point x="376" y="256.441"/>
			<point x="376" y="201.059"/>
			<point x="420" y="201.059" type="curve"/>
			<point x="365.6" y="201.059"/>
			<point x="365.6" y="129.853"/>
			<point x="420" y="129.853" type="curve"/>
			<point x="376.866" y="132.248"/>
			<point x="370.917" y="25.125"/>
			<point x="414.051" y="22.729" type="curve"/>
			<point x="415.15" y="-37.261"/>
			<point x="539.099" y="-34.99"/>
			<point x="538" y="25" type="curve"/>
			<point x="536.607" y="-36.984"/>
			<point x="624.281" y="-38.954"/>
			<point x="625.673" y="23.03" type="curve"/>
			<point x="694.562" y="26.94"/>
			<point x="688.889" y="126.909"/>
			<point x="620" y="123" type="curve"/>
			<point x="671" y="123"/>
			<point x="671" y="167"/>
			<point x="620" y="167" type="curve"/>
			<point x="683" y="167"/>
			<point x="683" y="291"/>
			<point x="620" y="291" type="curve"/>
			<point x="679.961" y="293.163"/>
			<point x="678.366" y="337.377"/>
			<point x="618.405" y="335.214" type="curve"/>
			<point x="665.938" y="358.202"/>
			<point x="600.952" y="492.578"/>
			<point x="553.418" y="469.59" type="curve"/>
			<point x="574.559" y="527.875"/>
			<point x="477.644" y="563.027"/>
			<point x="456.503" y="504.743" type="curve"/>
			<point x="449.064" y="565.288"/>
			<point x="378.012" y="556.558"/>
			<point x="385.45" y="496.013" type="curve"/>
			<point x="365.403" y="535.181"/>
			<point x="310.986" y="507.329"/>
			<point x="331.034" y="468.161" type="curve"/>
			<point x="343.595" y="517.59"/>
			<point x="281.562" y="533.355"/>
			<point x="269" y="483.926" type="curve"/>
			<point x="328" y="483.926"/>
			<point x="328" y="591.426"/>
			<point x="269" y="591.426" type="curve"/>
			<point x="311.883" y="606.932"/>
			<point x="278.046" y="700.506"/>
			<point x="235.163" y="685" type="curve"/>
			<point x="235.163" y="741"/>
			<point x="95.878" y="741"/>
			<point x="95.878" y="685" type="curve"/>
			<point x="43.237" y="701.612"/>
			<point x="17.359" y="619.612"/>
			<point x="70" y="603" type="curve"/>
			<point x="5" y="603"/>
			<point x="5" y="483"/>
			<point x="70" y="483" type="curve"/>
			<point x="13" y="483"/>
			<point x="13" y="435"/>
			<point x="70" y="435" type="curve"/>
			<point x="13" y="435"/>
			<point x="13" y="355"/>
			<point x="70" y="355" type="curve"/>
			<point x="13" y="355"/>
			<point x="13" y="211"/>
			<point x="70" y="211" type="curve"/>
			<point x="18" y="211"/>
			<point x="18" y="139"/>
			<point x="70" y="139" type="curve"/>
			<point x="9.014" y="140.293"/>
			<point x="6.588" y="25.864"/>
			<point x="67.574" y="24.571" type="curve"/>
			<point x="68.056" y="-38.427"/>
			<point x="124.216" y="-37.998"/>
			<point x="123.735" y="25" type="curve"/>
			<point x="123.735" y="-29"/>
			<point x="211.286" y="-29"/>
		</contour>
	</outline>
</glyph>
<glyph name="i" format="2">
	<advance width="323"/>
	<unicode hex="0069"/>
	<outline>
		<contour>
			<point x="202.767" y="600" type="curve"/>
			<point x="302.965" y="597.989"/>
			<point x="304.965" y="654.634"/>
			<point x="248" y="656.645" type="curve"/>
			<point x="294.522" y="671.381"/>
			<point x="272.871" y="739.736"/>
			<point x="226.349" y="725" type="curve"/>
			<point x="226.349" y="792"/>
			<point x="183.116" y="792"/>
			<point x="183.116" y="725" type="curve"/>
			<point x="183.116" y="781"/>
			<point x="88.791" y="781"/>
			<point x="88.791" y="725" type="curve"/>
			<point x="36.323" y="737.774"/>
			<point x="22.533" y="681.128"/>
			<point x="75" y="668.355" type="curve"/>
			<point x="30.968" y="639.217"/>
			<point x="76.2" y="570.862"/>
			<point x="120.233" y="600" type="curve"/>
			<point x="120.233" y="559.2"/>
			<point x="159.535" y="559.2"/>
			<point x="159.535" y="600" type="curve"/>
			<point x="159.535" y="551.2"/>
			<point x="202.767" y="551.2"/>
		</contour>
		<contour>
			<point x="223.156" y="25" type="curve"/>
			<point x="303.993" y="24.128"/>
			<point x="305.993" y="145.615"/>
			<point x="253" y="146.487" type="curve"/>
			<point x="319" y="146.487"/>
			<point x="319" y="297.838"/>
			<point x="253" y="297.838" type="curve"/>
			<point x="308" y="297.838"/>
			<point x="308" y="345.632"/>
			<point x="253" y="345.632" type="curve"/>
			<point x="304" y="345.632"/>
			<point x="304" y="397.41"/>
			<point x="253" y="397.41" type="curve"/>
			<point x="310" y="397.41"/>
			<point x="310" y="453.171"/>
			<point x="253" y="453.171" type="curve"/>
			<point x="283.476" y="492.304"/>
			<point x="229.765" y="534.133"/>
			<point x="199.289" y="495" type="curve"/>
			<point x="199.289" y="550.2"/>
			<point x="95.867" y="550.2"/>
			<point x="95.867" y="495" type="curve"/>
			<point x="52.333" y="513.238"/>
			<point x="26.466" y="451.494"/>
			<point x="70" y="433.256" type="curve"/>
			<point x="8" y="433.256"/>
			<point x="8" y="309.786"/>
			<point x="70" y="309.786" type="curve"/>
			<point x="7" y="309.786"/>
			<point x="7" y="238.094"/>
			<point x="70" y="238.094" type="curve"/>
			<point x="9" y="238.094"/>
			<point x="9" y="150.47"/>
			<point x="70" y="150.47" type="curve"/>
			<point x="6.201" y="145.408"/>
			<point x="16.156" y="19.938"/>
			<point x="79.956" y="25" type="curve"/>
			<point x="79.956" y="-29"/>
			<point x="127.689" y="-29"/>
			<point x="127.689" y="25" type="curve"/>
			<point x="127.689" y="-26"/>
			<point x="223.156" y="-26"/>
		</contour>
	</outline>
</glyph>
<glyph name="k" format="2">
	<advance width="643"/>
	<unicode hex="006B"/>
	<outline>
		<contour>
			<point x="191.318" y="25" type="curve"/>
			<point x="298.185" y="23.752"/>
			<point x="300.185" y="105.752"/>
			<point x="249" y="107" type="curve"/>
			<point x="281.805" y="82.742"/>
			<point x="338.005" y="158.742"/>
			<point x="305.2" y="183" type="curve"/>
			<point x="266.784" y="159.951"/>
			<point x="295.344" y="112.351"/>
			<point x="333.76" y="135.4" type="curve"/>
			<point x="291.262" y="107.206"/>
			<point x="364.502" y="-3.194"/>
			<point x="407" y="25" type="curve"/>
			<point x="407" y="-43"/>
			<point x="474.358" y="-43"/>
			<point x="474.358" y="25" type="curve"/>
			<point x="474.358" y="-37"/>
			<point x="601.151" y="-37"/>
			<point x="601.151" y="25" type="curve"/>
			<point x="659.364" y="34.604"/>
			<point x="654.732" y="62.68"/>
			<point x="596.519" y="53.076" type="curve"/>
			<point x="654.432" y="90.588"/>
			<point x="572.179" y="217.575"/>
			<point x="514.266" y="180.063" type="curve"/>
			<point x="562.946" y="211.595"/>
			<point x="523.984" y="271.747"/>
			<point x="475.304" y="240.215" type="curve"/>
			<point x="530.917" y="259.916"/>
			<point x="509.739" y="319.701"/>
			<point x="454.125" y="300" type="curve"/>
			<point x="504.053" y="264.954"/>
			<point x="588.459" y="385.204"/>
			<point x="538.531" y="420.25" type="curve"/>
			<point x="586.32" y="393.024"/>
			<point x="628.906" y="467.774"/>
			<point x="581.118" y="495" type="curve"/>
			<point x="581.118" y="564"/>
			<point x="486.059" y="564"/>
			<point x="486.059" y="495" type="curve"/>
			<point x="486.059" y="555"/>
			<point x="438.529" y="555"/>
			<point x="438.529" y="495" type="curve"/>
			<point x="406.816" y="533.137"/>
			<point x="300.124" y="444.416"/>
			<point x="331.837" y="406.279" type="curve"/>
			<point x="299.217" y="442.574"/>
			<point x="239.379" y="388.795"/>
			<point x="272" y="352.5" type="curve"/>
			<point x="315.182" y="369.478"/>
			<point x="292.182" y="427.978"/>
			<point x="249" y="411" type="curve"/>
			<point x="303.4" y="411"/>
			<point x="303.4" y="555"/>
			<point x="249" y="555" type="curve"/>
			<point x="306" y="555"/>
			<point x="306" y="647"/>
			<point x="249" y="647" type="curve"/>
			<point x="269.555" y="686.806"/>
			<point x="195.964" y="724.806"/>
			<point x="175.409" y="685" type="curve"/>
			<point x="175.409" y="747"/>
			<point x="83.932" y="747"/>
			<point x="83.932" y="685" type="curve"/>
			<point x="25.225" y="697.392"/>
			<point x="11.294" y="631.392"/>
			<point x="70" y="619" type="curve"/>
			<point x="2" y="619"/>
			<point x="2" y="515"/>
			<point x="70" y="515" type="curve"/>
			<point x="1" y="515"/>
			<point x="1" y="435"/>
			<point x="70" y="435" type="curve"/>
			<point x="20" y="435"/>
			<point x="20" y="303"/>
			<point x="70" y="303" type="curve"/>
			<point x="9" y="303"/>
			<point x="9" y="159"/>
			<point x="70" y="159" type="curve"/>
			<point x="11" y="159"/>
			<point x="11" y="95"/>
			<point x="70" y="95" type="curve"/>
			<point x="19" y="84.85"/>
			<point x="32.932" y="14.85"/>
			<point x="83.932" y="25" type="curve"/>
			<point x="83.932" y="-43"/>
			<point x="191.318" y="-43"/>
		</contour>
	</outline>
</glyph>
<glyph name="n" format="2">
	<advance width="674"/>
	<unicode hex="006E"/>
	<outline>
		<contour>
			<point x="222.417" y="25" type="curve"/>
			<point x="311.574" y="23.384"/>
			<point x="313.574" y="84.722"/>
			<point x="264" y="86.338" type="curve"/>
			<point x="313.6" y="86.338"/>
			<point x="313.6" y="208.971"/>
			<point x="264" y="208.971" type="curve"/>
			<point x="317.572" y="207.246"/>
			<point x="321.285" y="322.6"/>
			<point x="267.713" y="324.325" type="curve"/>
			<point x="298.191" y="291.489"/>
			<point x="352.143" y="341.567"/>
			<point x="321.665" y="374.403" type="curve"/>
			<point x="304.197" y="312.833"/>
			<point x="376.814" y="292.23"/>
			<point x="394.282" y="353.8" type="curve"/>
			<point x="344.811" y="344.172"/>
			<point x="364.528" y="242.857"/>
			<point x="414" y="252.485" type="curve"/>
			<point x="362" y="252.485"/>
			<point x="362" y="165.456"/>
			<point x="414" y="165.456" type="curve"/>
			<point x="365.204" y="166.114"/>
			<point x="363.235" y="19.985"/>
			<point x="412.03" y="19.327" type="curve"/>
			<point x="423.789" y="-46.633"/>
			<point x="455.613" y="-40.96"/>
			<point x="443.854" y="25" type="curve"/>
			<point x="443.854" y="-39"/>
			<point x="559.25" y="-39"/>
			<point x="559.25" y="25" type="curve"/>
			<point x="602.34" y="-1.143"/>
			<point x="652.09" y="80.857"/>
			<point x="609" y="107" type="curve"/>
			<point x="678" y="107"/>
			<point x="678" y="263"/>
			<point x="609" y="263" type="curve"/>
			<point x="658.903" y="266.11"/>
			<point x="652.41" y="370.299"/>
			<point x="602.507" y="367.189" type="curve"/>
			<point x="656.581" y="388.166"/>
			<point x="631.855" y="451.902"/>
			<point x="577.782" y="430.925" type="curve"/>
			<point x="628.823" y="477.355"/>
			<point x="588.31" y="521.891"/>
			<point x="537.269" y="475.46" type="curve"/>
			<point x="551.959" y="530.535"/>
			<point x="442.492" y="559.733"/>
			<point x="427.801" y="504.659" type="curve"/>
			<point x="412.242" y="560.533"/>
			<point x="322.821" y="535.632"/>
			<point x="338.38" y="479.758" type="curve"/>
			<point x="342.008" y="534.639"/>
			<point x="252.628" y="540.547"/>
			<point x="249" y="485.667" type="curve"/>
			<point x="265.302" y="551.684"/>
			<point x="227.507" y="561.017"/>
			<point x="211.205" y="495" type="curve"/>
			<point x="211.205" y="556"/>
			<point x="163.477" y="556"/>
			<point x="163.477" y="495" type="curve"/>
			<point x="163.477" y="547"/>
			<point x="75.977" y="547"/>
			<point x="75.977" y="495" type="curve"/>
			<point x="16.137" y="499.38"/>
			<point x="10.16" y="417.722"/>
			<point x="70" y="413.342" type="curve"/>
			<point x="15" y="413.342"/>
			<point x="15" y="265.974"/>
			<point x="70" y="265.974" type="curve"/>
			<point x="15" y="265.974"/>
			<point x="15" y="166.402"/>
			<point x="70" y="166.402" type="curve"/>
			<point x="1" y="166.402"/>
			<point x="1" y="30.983"/>
			<point x="70" y="30.983" type="curve"/>
			<point x="65.303" y="-35.852"/>
			<point x="150.428" y="-41.835"/>
			<point x="155.125" y="25" type="curve"/>
			<point x="155.125" y="-27"/>
			<point x="222.417" y="-27"/>
		</contour>
	</outline>
</glyph>
<glyph name="p" format="2">
	<advance width="661"/>
	<unicode hex="0070"/>
	<outline>
		<contour>
			<point x="237.319" y="-165" type="curve"/>
			<point x="312.983" y="-166.384"/>
			<point x="314.983" y="-85.495"/>
			<point x="259" y="-84.111" type="curve"/>
			<point x="318.822" y="-88.735"/>
			<point x="329.437" y="48.607"/>
			<point x="269.615" y="53.231" type="curve"/>
			<point x="257.571" y="15.087"/>
			<point x="332.492" y="-8.57"/>
			<point x="344.536" y="29.574" type="curve"/>
			<point x="336.3" y="-29.858"/>
			<point x="432.923" y="-43.247"/>
			<point x="441.159" y="16.185" type="curve"/>
			<point x="466.624" y="-28.233"/>
			<point x="591.701" y="43.475"/>
			<point x="566.236" y="87.893" type="curve"/>
			<point x="611.811" y="75.615"/>
			<point x="649.834" y="216.755"/>
			<point x="604.259" y="229.033" type="curve"/>
			<point x="672.257" y="229.454"/>
			<point x="671.805" y="302.437"/>
			<point x="603.807" y="302.017" type="curve"/>
			<point x="666.332" y="309.739"/>
			<point x="659.442" y="365.526"/>
			<point x="596.917" y="357.804" type="curve"/>
			<point x="654.685" y="382.94"/>
			<point x="616.551" y="470.582"/>
			<point x="558.782" y="445.446" type="curve"/>
			<point x="589.967" y="489.531"/>
			<point x="521.992" y="537.614"/>
			<point x="490.808" y="493.528" type="curve"/>
			<point x="499.04" y="552.961"/>
			<point x="417.218" y="564.293"/>
			<point x="408.986" y="504.861" type="curve"/>
			<point x="398.248" y="563.892"/>
			<point x="343.269" y="553.891"/>
			<point x="354.008" y="494.859" type="curve"/>
			<point x="318.08" y="546.61"/>
			<point x="256.279" y="503.705"/>
			<point x="292.207" y="451.954" type="curve"/>
			<point x="332.681" y="506.597"/>
			<point x="274.567" y="549.643"/>
			<point x="234.093" y="495" type="curve"/>
			<point x="234.093" y="564"/>
			<point x="119.442" y="564"/>
			<point x="119.442" y="495" type="curve"/>
			<point x="112.575" y="551.585"/>
			<point x="63.133" y="545.585"/>
			<point x="70" y="489" type="curve"/>
			<point x="13" y="489"/>
			<point x="13" y="429"/>
			<point x="70" y="429" type="curve"/>
			<point x="13" y="429"/>
			<point x="13" y="333"/>
			<point x="70" y="333" type="curve"/>
			<point x="16" y="333"/>
			<point x="16" y="185"/>
			<point x="70" y="185" type="curve"/>
			<point x="20" y="185"/>
			<point x="20" y="125"/>
			<point x="70" y="125" type="curve"/>
			<point x="12" y="125"/>
			<point x="12" y="29"/>
			<point x="70" y="29" type="curve"/>
			<point x="8" y="29"/>
			<point x="8" y="-51"/>
			<point x="70" y="-51" type="curve"/>
			<point x="14" y="-51"/>
			<point x="14" y="-107"/>
			<point x="70" y="-107" type="curve"/>
			<point x="31.684" y="-131.724"/>
			<point x="69.11" y="-189.724"/>
			<point x="107.426" y="-165" type="curve"/>
			<point x="107.426" y="-233"/>
			<point x="237.319" y="-233"/>
		</contour>
		<contour>
			<point x="359.277" y="147.138" type="curve"/>
			<point x="350.738" y="189.307"/>
			<point x="295.663" y="209.654"/>
			<point x="278.925" y="164.347" type="curve"/>
			<point x="309.9" y="178.751"/>
			<point x="291.493" y="218.333"/>
			<point x="260.518" y="203.929" type="curve"/>
			<point x="295.184" y="205.872"/>
			<point x="292.171" y="259.61"/>
			<point x="257.505" y="257.666" type="curve"/>
			<point x="294.431" y="256.08"/>
			<point x="296.211" y="297.528"/>
			<point x="259.285" y="299.113" type="curve"/>
			<point x="293.703" y="287.265"/>
			<point x="312.205" y="341.012"/>
			<point x="277.788" y="352.86" type="curve"/>
			<point x="288.326" y="306.442"/>
			<point x="372.647" y="325.584"/>
			<point x="362.109" y="372.003" type="curve"/>
			<point x="329.579" y="354.458"/>
			<point x="377.367" y="265.856"/>
			<point x="409.897" y="283.402" type="curve"/>
			<point x="374.071" y="284.435"/>
			<point x="372.124" y="216.944"/>
			<point x="407.949" y="215.911" type="curve"/>
			<point x="373.057" y="228.101"/>
			<point x="357.054" y="182.298"/>
			<point x="391.946" y="170.107" type="curve"/>
			<point x="370.688" y="200.342"/>
			<point x="338.019" y="177.372"/>
		</contour>
	</outline>
</glyph>
<glyph name="q" format="2">
	<advance width="661"/>
	<unicode hex="0071"/>
	<outline>
		<contour>
			<point x="577.191" y="-165" type="curve"/>
			<point x="651.989" y="-166.188"/>
			<point x="653.989" y="-60.188"/>
			<point x="591" y="-59" type="curve"/>
			<point x="658" y="-59"/>
			<point x="658" y="-3"/>
			<point x="591" y="-3" type="curve"/>
			<point x="651" y="-3"/>
			<point x="651" y="97"/>
			<point x="591" y="97" type="curve"/>
			<point x="643" y="97"/>
			<point x="643" y="173"/>
			<point x="591" y="173" type="curve"/>
			<point x="644" y="173"/>
			<point x="644" y="221"/>
			<point x="591" y="221" type="curve"/>
			<point x="656" y="221"/>
			<point x="656" y="325"/>
			<point x="591" y="325" type="curve"/>
			<point x="656" y="325"/>
			<point x="656" y="477"/>
			<point x="591" y="477" type="curve"/>
			<point x="603.056" y="541.89"/>
			<point x="506.172" y="559.89"/>
			<point x="494.116" y="495" type="curve"/>
			<point x="476.026" y="538.596"/>
			<point x="398.91" y="506.596"/>
			<point x="417" y="463" type="curve"/>
			<point x="419.398" y="518.949"/>
			<point x="358.134" y="521.575"/>
			<point x="355.735" y="465.626" type="curve"/>
			<point x="385.254" y="514.387"/>
			<point x="337.638" y="543.213"/>
			<point x="308.119" y="494.451" type="curve"/>
			<point x="319.817" y="556.356"/>
			<point x="264.989" y="566.717"/>
			<point x="253.291" y="504.812" type="curve"/>
			<point x="246.31" y="568.43"/>
			<point x="173.537" y="560.445"/>
			<point x="180.518" y="496.826" type="curve"/>
			<point x="151.28" y="541.032"/>
			<point x="72.311" y="488.802"/>
			<point x="101.549" y="444.596" type="curve"/>
			<point x="41.398" y="469.231"/>
			<point x="2.244" y="373.628"/>
			<point x="62.395" y="348.993" type="curve"/>
			<point x="-3.354" y="354.746"/>
			<point x="-9.222" y="287.686"/>
			<point x="56.527" y="281.933" type="curve"/>
			<point x="-11.274" y="276.736"/>
			<point x="-1.402" y="147.936"/>
			<point x="66.399" y="153.133" type="curve"/>
			<point x="21.61" y="125.174"/>
			<point x="86.614" y="21.039"/>
			<point x="131.404" y="48.999" type="curve"/>
			<point x="120.255" y="2.311"/>
			<point x="257.317" y="-30.42"/>
			<point x="268.466" y="16.267" type="curve"/>
			<point x="289.026" y="-43.284"/>
			<point x="350.16" y="-22.177"/>
			<point x="329.601" y="37.374" type="curve"/>
			<point x="327.383" y="-13.578"/>
			<point x="399.782" y="-16.73"/>
			<point x="402" y="34.222" type="curve"/>
			<point x="347" y="34.222"/>
			<point x="347" y="-60.444"/>
			<point x="402" y="-60.444" type="curve"/>
			<point x="351" y="-60.444"/>
			<point x="351" y="-139.333"/>
			<point x="402" y="-139.333" type="curve"/>
			<point x="388.814" y="-192.935"/>
			<point x="493.155" y="-218.602"/>
			<point x="506.34" y="-165" type="curve"/>
			<point x="506.34" y="-223"/>
			<point x="577.191" y="-223"/>
		</contour>
		<contour>
			<point x="382.806" y="165.129" type="curve"/>
			<point x="352.82" y="183.989"/>
			<point x="286.062" y="227.094"/>
			<point x="260.242" y="187.105" type="curve"/>
			<point x="287.649" y="192.837"/>
			<point x="279.055" y="233.927"/>
			<point x="251.648" y="228.195" type="curve"/>
			<point x="288.562" y="226.358"/>
			<point x="293.137" y="318.246"/>
			<point x="256.223" y="320.084" type="curve"/>
			<point x="278.622" y="298.135"/>
			<point x="332.079" y="352.689"/>
			<point x="309.68" y="374.637" type="curve"/>
			<point x="299.893" y="330.919"/>
			<point x="366.933" y="315.912"/>
			<point x="376.72" y="359.629" type="curve"/>
			<point x="342.094" y="342.479"/>
			<point x="365.41" y="295.407"/>
			<point x="400.035" y="312.557" type="curve"/>
			<point x="363.742" y="309.769"/>
			<point x="366.964" y="267.824"/>
			<point x="403.257" y="270.612" type="curve"/>
			<point x="371.41" y="272.765"/>
			<point x="366.176" y="195.363"/>
			<point x="398.024" y="193.21" type="curve"/>
			<point x="366.021" y="210.553"/>
			<point x="350.803" y="182.473"/>
		</contour>
	</outline>
</glyph>
<glyph name="s" format="2">
	<advance width="590"/>
	<unicode hex="0073"/>
	<outline>
		<contour>
			<point x="189.518" y="26.083" type="curve"/>
			<point x="294.821" y="-41.702"/>
			<point x="414.782" y="-29.386"/>
			<point x="408.96" y="27.316" type="curve"/>
			<point x="438.414" y="-27.242"/>
			<point x="546.479" y="31.099"/>
			<point x="517.026" y="85.656" type="curve"/>
			<point x="569.56" y="80.363"/>
			<point x="582.75" y="211.275"/>
			<point x="530.216" y="216.568" type="curve"/>
			<point x="559.832" y="261.243"/>
			<point x="437.951" y="342.043"/>
			<point x="408.334" y="297.368" type="curve"/>
			<point x="417.921" y="341.949"/>
			<point x="285.551" y="370.415"/>
			<point x="275.964" y="325.835" type="curve"/>
			<point x="321.02" y="346.574"/>
			<point x="289.698" y="414.622"/>
			<point x="244.642" y="393.883" type="curve"/>
			<point x="268.179" y="354.827"/>
			<point x="302.827" y="375.708"/>
			<point x="279.29" y="414.763" type="curve"/>
			<point x="267.714" y="365.711"/>
			<point x="308.622" y="356.057"/>
			<point x="320.198" y="405.109" type="curve"/>
			<point x="306.083" y="358.395"/>
			<point x="372.635" y="338.286"/>
			<point x="386.75" y="385" type="curve"/>
			<point x="386.75" y="344.2"/>
			<point x="434.15" y="344.2"/>
			<point x="434.15" y="385" type="curve"/>
			<point x="434.15" y="333.8"/>
			<point x="477.6" y="333.8"/>
			<point x="477.6" y="385" type="curve"/>
			<point x="499.54" y="342.307"/>
			<point x="539.102" y="362.639"/>
			<point x="517.162" y="405.331" type="curve"/>
			<point x="547.184" y="448.766"/>
			<point x="428.245" y="530.975"/>
			<point x="398.223" y="487.541" type="curve"/>
			<point x="406.91" y="543.875"/>
			<point x="293.687" y="561.334"/>
			<point x="285" y="505" type="curve"/>
			<point x="277.191" y="566.506"/>
			<point x="181.852" y="554.402"/>
			<point x="189.661" y="492.895" type="curve"/>
			<point x="166.914" y="555.916"/>
			<point x="125.405" y="540.933"/>
			<point x="148.153" y="477.913" type="curve"/>
			<point x="112.014" y="527.055"/>
			<point x="47.837" y="479.861"/>
			<point x="83.976" y="430.718" type="curve"/>
			<point x="27.416" y="447.512"/>
			<point x="1.338" y="359.683"/>
			<point x="57.898" y="342.89" type="curve"/>
			<point x="-0.06" y="315.745"/>
			<point x="31.864" y="247.58"/>
			<point x="89.823" y="274.725" type="curve"/>
			<point x="66.675" y="232.675"/>
			<point x="154.085" y="184.558"/>
			<point x="177.232" y="226.608" type="curve"/>
			<point x="167.548" y="184.508"/>
			<point x="209.315" y="174.9"/>
			<point x="219" y="217" type="curve"/>
			<point x="203.362" y="166.569"/>
			<point x="309.765" y="133.574"/>
			<point x="325.403" y="184.005" type="curve"/>
			<point x="286.849" y="173.35"/>
			<point x="301.98" y="118.595"/>
			<point x="340.535" y="129.25" type="curve"/>
			<point x="318.886" y="172.985"/>
			<point x="270.156" y="148.863"/>
			<point x="291.805" y="105.128" type="curve"/>
			<point x="304.445" y="153.918"/>
			<point x="189.14" y="183.789"/>
			<point x="176.5" y="135" type="curve"/>
			<point x="176.5" y="180.6"/>
			<point x="69.727" y="180.6"/>
			<point x="69.727" y="135" type="curve"/>
			<point x="15.847" y="123.002"/>
			<point x="29.413" y="62.081"/>
			<point x="83.293" y="74.079" type="curve"/>
			<point x="59.823" y="22.136"/>
			<point x="166.048" y="-25.861"/>
		</contour>
	</outline>
</glyph>
<glyph name="t" format="2">
	<advance width="532"/>
	<unicode hex="0074"/>
	<outline>
		<contour>
			<point x="452.724" y="25" type="curve"/>
			<point x="495" y="0"/>
			<point x="497" y="18"/>
			<point x="482" y="42.879" type="curve"/>
			<point x="546.26" y="52.659"/>
			<point x="528.434" y="169.78"/>
			<point x="464.174" y="160" type="curve"/>
			<point x="464.174" y="226"/>
			<point x="392.957" y="226"/>
			<point x="392.957" y="160" type="curve"/>
			<point x="403.556" y="209.886"/>
			<point x="364.448" y="218.196"/>
			<point x="353.848" y="168.309" type="curve"/>
			<point x="420.625" y="185.684"/>
			<point x="387.777" y="311.933"/>
			<point x="321" y="294.559" type="curve"/>
			<point x="374.313" y="269.286"/>
			<point x="410.076" y="344.727"/>
			<point x="356.763" y="370" type="curve"/>
			<point x="356.763" y="317"/>
			<point x="408.421" y="317"/>
			<point x="408.421" y="370" type="curve"/>
			<point x="402.743" y="305.248"/>
			<point x="470.593" y="299.299"/>
			<point x="476.271" y="364.051" type="curve"/>
			<point x="534.241" y="365.92"/>
			<point x="531.97" y="436.322"/>
			<point x="474" y="434.452" type="curve"/>
			<point x="507.056" y="474.593"/>
			<point x="433.53" y="535.141"/>
			<point x="400.474" y="495" type="curve"/>
			<point x="406.683" y="556.688"/>
			<point x="327.21" y="564.688"/>
			<point x="321" y="503" type="curve"/>
			<point x="389" y="503"/>
			<point x="389" y="547"/>
			<point x="321" y="547" type="curve"/>
			<point x="380" y="547"/>
			<point x="380" y="659"/>
			<point x="321" y="659" type="curve"/>
			<point x="331.545" y="703.364"/>
			<point x="222.159" y="729.364"/>
			<point x="211.614" y="685" type="curve"/>
			<point x="182.684" y="722.295"/>
			<point x="113.07" y="668.295"/>
			<point x="142" y="631" type="curve"/>
			<point x="89.091" y="634.112"/>
			<point x="81.091" y="498.112"/>
			<point x="134" y="495" type="curve"/>
			<point x="130.573" y="551.897"/>
			<point x="32.573" y="545.994"/>
			<point x="36" y="489.097" type="curve"/>
			<point x="-23.79" y="484.077"/>
			<point x="-13.79" y="364.98"/>
			<point x="46" y="370" type="curve"/>
			<point x="26.492" y="322.879"/>
			<point x="122.492" y="283.135"/>
			<point x="142" y="330.256" type="curve"/>
			<point x="82" y="330.256"/>
			<point x="82" y="266.667"/>
			<point x="142" y="266.667" type="curve"/>
			<point x="78.587" y="258.021"/>
			<point x="99.553" y="104.238"/>
			<point x="162.966" y="112.883" type="curve"/>
			<point x="120.308" y="69.28"/>
			<point x="182.899" y="8.045"/>
			<point x="225.557" y="51.649" type="curve"/>
			<point x="205.229" y="-2.672"/>
			<point x="246.85" y="-18.248"/>
			<point x="267.178" y="36.073" type="curve"/>
			<point x="258.908" y="-23.354"/>
			<point x="334.935" y="-33.934"/>
			<point x="343.205" y="25.493" type="curve"/>
			<point x="342.948" y="-31.506"/>
			<point x="452.467" y="-32"/>
		</contour>
	</outline>
</glyph>
<glyph name="bar" format="2">
	<advance width="292"/>
	<unicode hex="007C"/>
	<outline>
		<contour>
			<point x="161.765" y="-178" type="curve"/>
			<point x="275.981" y="-176.435"/>
			<point x="272.981" y="-55.671"/>
			<point x="210" y="-57.236" type="curve"/>
			<point x="277" y="-57.236"/>
			<point x="277" y="26.605"/>
			<point x="210" y="26.605" type="curve"/>
			<point x="287" y="26.605"/>
			<point x="287" y="158.354"/>
			<point x="210" y="158.354" type="curve"/>
			<point x="277" y="158.354"/>
			<point x="277" y="270.141"/>
			<point x="210" y="270.141" type="curve"/>
			<point x="283" y="270.141"/>
			<point x="283" y="393.905"/>
			<point x="210" y="393.905" type="curve"/>
			<point x="284" y="393.905"/>
			<point x="284" y="517.669"/>
			<point x="210" y="517.669" type="curve"/>
			<point x="286" y="517.669"/>
			<point x="286" y="597.517"/>
			<point x="210" y="597.517" type="curve"/>
			<point x="270" y="597.517"/>
			<point x="270" y="685.35"/>
			<point x="210" y="685.35" type="curve"/>
			<point x="277" y="685.35"/>
			<point x="277" y="733.259"/>
			<point x="210" y="733.259" type="curve"/>
			<point x="270" y="733.259"/>
			<point x="270" y="853.03"/>
			<point x="210" y="853.03" type="curve"/>
			<point x="225.831" y="926.341"/>
			<point x="165.772" y="939.31"/>
			<point x="149.941" y="866" type="curve"/>
			<point x="108.369" y="907.016"/>
			<point x="40.428" y="838.153"/>
			<point x="82" y="797.137" type="curve"/>
			<point x="13" y="797.137"/>
			<point x="13" y="685.35"/>
			<point x="82" y="685.35" type="curve"/>
			<point x="16" y="685.35"/>
			<point x="16" y="613.487"/>
			<point x="82" y="613.487" type="curve"/>
			<point x="10" y="613.487"/>
			<point x="10" y="529.646"/>
			<point x="82" y="529.646" type="curve"/>
			<point x="4" y="529.646"/>
			<point x="4" y="445.806"/>
			<point x="82" y="445.806" type="curve"/>
			<point x="8" y="445.806"/>
			<point x="8" y="353.981"/>
			<point x="82" y="353.981" type="curve"/>
			<point x="12" y="353.981"/>
			<point x="12" y="238.202"/>
			<point x="82" y="238.202" type="curve"/>
			<point x="10" y="238.202"/>
			<point x="10" y="178.316"/>
			<point x="82" y="178.316" type="curve"/>
			<point x="9" y="178.316"/>
			<point x="9" y="46.567"/>
			<point x="82" y="46.567" type="curve"/>
			<point x="9" y="46.567"/>
			<point x="9" y="-41.266"/>
			<point x="82" y="-41.266" type="curve"/>
			<point x="14" y="-41.266"/>
			<point x="14" y="-161.038"/>
			<point x="82" y="-161.038" type="curve"/>
			<point x="67.856" y="-227.551"/>
			<point x="147.621" y="-244.513"/>
		</contour>
	</outline>
</glyph>
<glyph name="cent" format="2">
	<advance width="628"/>
	<unicode hex="00A2"/>
	<outline>
		<contour>
			<point x="339.868" y="-70" type="curve"/>
			<point x="455.694" y="-63.319"/>
			<point x="452.694" y="-30.679"/>
			<point x="380" y="-37.36" type="curve"/>
			<point x="444.328" y="-59.403"/>
			<point x="467.816" y="9.143"/>
			<point x="403.488" y="31.186" type="curve"/>
			<point x="435.12" y="-41.205"/>
			<point x="519.222" y="-4.456"/>
			<point x="487.59" y="67.935" type="curve"/>
			<point x="543.002" y="11.628"/>
			<point x="602.635" y="70.315"/>
			<point x="547.222" y="126.621" type="curve"/>
			<point x="588.137" y="171.595"/>
			<point x="528.364" y="225.974"/>
			<point x="487.449" y="181" type="curve"/>
			<point x="487.449" y="234.6"/>
			<point x="423.776" y="234.6"/>
			<point x="423.776" y="181" type="curve"/>
			<point x="399.155" y="225.892"/>
			<point x="314.463" y="179.444"/>
			<point x="339.083" y="134.552" type="curve"/>
			<point x="342.106" y="200.483"/>
			<point x="285.368" y="203.085"/>
			<point x="282.345" y="137.154" type="curve"/>
			<point x="331.611" y="171.4"/>
			<point x="298.071" y="219.65"/>
			<point x="248.805" y="185.403" type="curve"/>
			<point x="319.762" y="187.874"/>
			<point x="315.482" y="310.756"/>
			<point x="244.525" y="308.285" type="curve"/>
			<point x="304.218" y="288.143"/>
			<point x="324.825" y="349.213"/>
			<point x="265.131" y="369.355" type="curve"/>
			<point x="287.593" y="308.359"/>
			<point x="340.647" y="327.897"/>
			<point x="318.185" y="388.893" type="curve"/>
			<point x="291.248" y="329.737"/>
			<point x="400.819" y="279.844"/>
			<point x="427.755" y="339" type="curve"/>
			<point x="427.755" y="283"/>
			<point x="515.306" y="283"/>
			<point x="515.306" y="339" type="curve"/>
			<point x="510.668" y="286.404"/>
			<point x="567.361" y="281.404"/>
			<point x="572" y="334" type="curve"/>
			<point x="620.584" y="364.942"/>
			<point x="557.128" y="464.579"/>
			<point x="508.544" y="433.637" type="curve"/>
			<point x="547.132" y="494.423"/>
			<point x="485.918" y="533.283"/>
			<point x="447.33" y="472.497" type="curve"/>
			<point x="500.409" y="528.279"/>
			<point x="433.079" y="592.347"/>
			<point x="380" y="536.565" type="curve"/>
			<point x="421.829" y="560.109"/>
			<point x="397.382" y="603.544"/>
			<point x="355.553" y="580" type="curve"/>
			<point x="355.553" y="657"/>
			<point x="300.658" y="657"/>
			<point x="300.658" y="580" type="curve"/>
			<point x="300.658" y="645"/>
			<point x="257.526" y="645"/>
			<point x="257.526" y="580" type="curve"/>
			<point x="206.267" y="592.663"/>
			<point x="185.741" y="509.576"/>
			<point x="237" y="496.913" type="curve"/>
			<point x="204.927" y="554.596"/>
			<point x="77.761" y="483.889"/>
			<point x="109.834" y="426.206" type="curve"/>
			<point x="48.641" y="466.012"/>
			<point x="13.484" y="411.966"/>
			<point x="74.677" y="372.16" type="curve"/>
			<point x="-1.977" y="379.45"/>
			<point x="-17.122" y="220.193"/>
			<point x="59.532" y="212.903" type="curve"/>
			<point x="-3.949" y="194.844"/>
			<point x="19.197" y="113.48"/>
			<point x="82.679" y="131.539" type="curve"/>
			<point x="34.174" y="82.465"/>
			<point x="113.808" y="3.756"/>
			<point x="162.313" y="52.831" type="curve"/>
			<point x="116.959" y="13.549"/>
			<point x="191.647" y="-72.682"/>
			<point x="237" y="-33.4" type="curve"/>
			<point x="218.228" y="-86.16"/>
			<point x="321.097" y="-122.76"/>
		</contour>
	</outline>
</glyph>
<glyph name="currency" format="2">
	<advance width="634"/>
	<unicode hex="00A4"/>
	<outline>
		<contour>
			<point x="118.538" y="73.462" type="curve"/>
			<point x="195.443" y="-0.584"/>
			<point x="247.226" y="54.068"/>
			<point x="192.783" y="105.652" type="curve"/>
			<point x="176.934" y="42.614"/>
			<point x="271.827" y="18.757"/>
			<point x="287.675" y="81.796" type="curve"/>
			<point x="287.067" y="19.799"/>
			<point x="340.579" y="19.274"/>
			<point x="341.187" y="81.271" type="curve"/>
			<point x="359.422" y="13.688"/>
			<point x="456.713" y="39.939"/>
			<point x="438.478" y="107.522" type="curve"/>
			<point x="395.295" y="65.866"/>
			<point x="449.816" y="9.344"/>
			<point x="493" y="51" type="curve"/>
			<point x="541.083" y="2.917"/>
			<point x="591.622" y="53.455"/>
			<point x="543.538" y="101.538" type="curve"/>
			<point x="593.399" y="123.293"/>
			<point x="555.898" y="209.242"/>
			<point x="506.038" y="187.487" type="curve"/>
			<point x="565.997" y="173.365"/>
			<point x="596.32" y="302.107"/>
			<point x="536.361" y="316.23" type="curve"/>
			<point x="600.197" y="328.478"/>
			<point x="578.792" y="440.031"/>
			<point x="514.957" y="427.783" type="curve"/>
			<point x="562.918" y="382.443"/>
			<point x="611.154" y="433.468"/>
			<point x="563.192" y="478.808" type="curve"/>
			<point x="619.054" y="534.669"/>
			<point x="588.169" y="565.554"/>
			<point x="532.308" y="509.692" type="curve"/>
			<point x="533.684" y="561.674"/>
			<point x="459.637" y="563.634"/>
			<point x="458.261" y="511.652" type="curve"/>
			<point x="432.65" y="582.144"/>
			<point x="390.292" y="566.755"/>
			<point x="415.902" y="496.263" type="curve"/>
			<point x="428.719" y="559.987"/>
			<point x="313.685" y="583.123"/>
			<point x="300.868" y="519.399" type="curve"/>
			<point x="301.102" y="585.399"/>
			<point x="168.364" y="585.869"/>
			<point x="168.13" y="519.87" type="curve"/>
			<point x="207.387" y="587.271"/>
			<point x="171.833" y="607.978"/>
			<point x="132.577" y="540.577" type="curve"/>
			<point x="76.715" y="596.438"/>
			<point x="48.639" y="568.361"/>
			<point x="104.5" y="512.5" type="curve"/>
			<point x="51.635" y="499.667"/>
			<point x="74.396" y="405.906"/>
			<point x="127.261" y="418.739" type="curve"/>
			<point x="53.861" y="442.008"/>
			<point x="25.464" y="352.434"/>
			<point x="98.864" y="329.164" type="curve"/>
			<point x="35.229" y="322.341"/>
			<point x="46.461" y="217.587"/>
			<point x="110.096" y="224.41" type="curve"/>
			<point x="45.257" y="190.869"/>
			<point x="66.162" y="150.459"/>
			<point x="131" y="184" type="curve"/>
			<point x="78.878" y="215.304"/>
			<point x="32.724" y="138.458"/>
			<point x="84.846" y="107.154" type="curve"/>
			<point x="42.42" y="64.727"/>
			<point x="76.112" y="31.035"/>
		</contour>
		<contour>
			<point x="342.785" y="182.697" type="curve"/>
			<point x="332.886" y="221.139"/>
			<point x="251.255" y="252.661"/>
			<point x="235.369" y="211.521" type="curve"/>
			<point x="286.161" y="231.554"/>
			<point x="248.055" y="328.171"/>
			<point x="197.263" y="308.138" type="curve"/>
			<point x="237.79" y="297.114"/>
			<point x="250.527" y="343.938"/>
			<point x="210" y="354.962" type="curve"/>
			<point x="247.37" y="329.007"/>
			<point x="265.892" y="355.677"/>
			<point x="228.521" y="381.631" type="curve"/>
			<point x="252.695" y="337.407"/>
			<point x="319.384" y="373.861"/>
			<point x="295.21" y="418.085" type="curve"/>
			<point x="286.944" y="366.949"/>
			<point x="367.294" y="353.96"/>
			<point x="375.56" y="405.096" type="curve"/>
			<point x="341.47" y="376.029"/>
			<point x="395.751" y="312.368"/>
			<point x="429.841" y="341.436" type="curve"/>
			<point x="385.758" y="342.628"/>
			<point x="383.351" y="253.613"/>
			<point x="427.434" y="252.421" type="curve"/>
			<point x="393.355" y="276.969"/>
			<point x="362.675" y="234.376"/>
			<point x="396.754" y="209.828" type="curve"/>
			<point x="375.374" y="252.356"/>
			<point x="321.405" y="225.225"/>
		</contour>
	</outline>
</glyph>
<glyph name="brokenbar" format="2">
	<advance width="296"/>
	<unicode hex="00A6"/>
	<outline>
		<contour>
			<point x="167.706" y="505" type="curve"/>
			<point x="283.935" y="507.997"/>
			<point x="280.935" y="576.997"/>
			<point x="212" y="574" type="curve"/>
			<point x="286" y="574"/>
			<point x="286" y="686"/>
			<point x="212" y="686" type="curve"/>
			<point x="274" y="686"/>
			<point x="274" y="742"/>
			<point x="212" y="742" type="curve"/>
			<point x="251.905" y="786.806"/>
			<point x="187.905" y="843.806"/>
			<point x="148" y="799" type="curve"/>
			<point x="148" y="873"/>
			<point x="81" y="873"/>
			<point x="81" y="799" type="curve"/>
			<point x="9.015" y="797.551"/>
			<point x="12.015" y="648.551"/>
			<point x="84" y="650" type="curve"/>
			<point x="14" y="650"/>
			<point x="14" y="554"/>
			<point x="84" y="554" type="curve"/>
			<point x="56.113" y="506.362"/>
			<point x="139.819" y="457.362"/>
		</contour>
		<contour>
			<point x="96.765" y="30" type="curve"/>
			<point x="284.978" y="31.735"/>
			<point x="281.978" y="152.735"/>
			<point x="212" y="151" type="curve"/>
			<point x="272" y="151"/>
			<point x="272" y="231"/>
			<point x="212" y="231" type="curve"/>
			<point x="289" y="231"/>
			<point x="289" y="327"/>
			<point x="212" y="327" type="curve"/>
			<point x="209.006" y="374.907"/>
			<point x="81.006" y="366.907"/>
			<point x="84" y="319" type="curve"/>
			<point x="23" y="319"/>
			<point x="23" y="211"/>
			<point x="84" y="211" type="curve"/>
			<point x="14" y="211"/>
			<point x="14" y="59"/>
			<point x="84" y="59" type="curve"/>
			<point x="15.355" y="28.785"/>
			<point x="28.12" y="-0.215"/>
		</contour>
	</outline>
</glyph>
<glyph name="ordfeminine" format="2">
	<advance width="351"/>
	<unicode hex="00AA"/>
	<outline>
		<contour>
			<point x="47" y="510" type="curve"/>
			<point x="137.461" y="397.062"/>
			<point x="202.615" y="414.754"/>
			<point x="187.154" y="471.692" type="curve"/>
			<point x="178.314" y="413.358"/>
			<point x="262.073" y="400.666"/>
			<point x="270.913" y="459" type="curve"/>
			<point x="301.438" y="402.749"/>
			<point x="317.525" y="411.478"/>
			<point x="287" y="467.73" type="curve"/>
			<point x="343" y="467.75"/>
			<point x="342.952" y="598.059"/>
			<point x="286.952" y="598.038" type="curve"/>
			<point x="318.767" y="631.814"/>
			<point x="232.855" y="712.739"/>
			<point x="201.04" y="678.964" type="curve"/>
			<point x="189.905" y="727.298"/>
			<point x="69.25" y="699.504"/>
			<point x="80.384" y="651.17" type="curve"/>
			<point x="71.895" y="608.812"/>
			<point x="117.647" y="599.642"/>
			<point x="126.136" y="642" type="curve"/>
			<point x="111.113" y="591.383"/>
			<point x="198.633" y="565.406"/>
			<point x="213.656" y="616.023" type="curve"/>
			<point x="188.092" y="660.384"/>
			<point x="113.436" y="617.361"/>
			<point x="139" y="573" type="curve"/>
			<point x="108.716" y="617.225"/>
			<point x="16.716" y="554.225"/>
		</contour>
		<contour>
			<point x="211.297" y="522.196" type="curve"/>
			<point x="189.371" y="495.382"/>
			<point x="157.732" y="561.966"/>
			<point x="125.36" y="546.583" type="curve"/>
			<point x="137.036" y="518.082"/>
			<point x="181.342" y="536.232"/>
			<point x="169.667" y="564.733" type="curve"/>
			<point x="145.653" y="541.232"/>
			<point x="187.284" y="498.694"/>
		</contour>
	</outline>
</glyph>
<glyph name="guillemetleft" format="2">
	<advance width="632"/>
	<unicode hex="00AB"/>
	<outline>
		<contour>
			<point x="223.316" y="119.421" type="curve"/>
			<point x="318.958" y="79.109"/>
			<point x="315.958" y="154.442"/>
			<point x="263" y="152.333" type="curve"/>
			<point x="303.453" y="162.035"/>
			<point x="278.582" y="265.734"/>
			<point x="238.129" y="256.032" type="curve"/>
			<point x="276.405" y="276.063"/>
			<point x="226.469" y="371.482"/>
			<point x="188.194" y="351.452" type="curve"/>
			<point x="234.42" y="305.756"/>
			<point x="264.937" y="336.627"/>
			<point x="218.71" y="382.323" type="curve"/>
			<point x="256.549" y="347.832"/>
			<point x="299.821" y="395.306"/>
			<point x="261.982" y="429.797" type="curve"/>
			<point x="313.978" y="429.164"/>
			<point x="314.996" y="512.867"/>
			<point x="263" y="513.5" type="curve"/>
			<point x="323" y="513.5"/>
			<point x="323" y="584"/>
			<point x="263" y="584" type="curve"/>
			<point x="222.615" y="621.337"/>
			<point x="160.088" y="553.705"/>
			<point x="200.474" y="516.368" type="curve"/>
			<point x="156.555" y="561.536"/>
			<point x="128.002" y="533.773"/>
			<point x="171.921" y="488.605" type="curve"/>
			<point x="127.305" y="534.49"/>
			<point x="81.621" y="490.069"/>
			<point x="126.237" y="444.184" type="curve"/>
			<point x="86.686" y="479.465"/>
			<point x="6.449" y="389.516"/>
			<point x="46" y="354.235" type="curve"/>
			<point x="-9" y="354.235"/>
			<point x="-9" y="311.529"/>
			<point x="46" y="311.529" type="curve"/>
			<point x="1.106" y="283.36"/>
			<point x="32.803" y="232.844"/>
			<point x="77.697" y="261.013" type="curve"/>
			<point x="32.384" y="214.411"/>
			<point x="126.608" y="122.793"/>
			<point x="171.921" y="169.395" type="curve"/>
			<point x="128.699" y="124.944"/>
			<point x="180.094" y="74.97"/>
		</contour>
		<contour>
			<point x="533.303" y="99.987" type="curve"/>
			<point x="614.863" y="81.013"/>
			<point x="611.863" y="125.013"/>
			<point x="553" y="121" type="curve"/>
			<point x="596.141" y="129.652"/>
			<point x="568.496" y="267.491"/>
			<point x="525.355" y="258.839" type="curve"/>
			<point x="586.447" y="277.909"/>
			<point x="553.157" y="384.555"/>
			<point x="492.065" y="365.484" type="curve"/>
			<point x="535.447" y="322.6"/>
			<point x="582.608" y="370.31"/>
			<point x="539.226" y="413.194" type="curve"/>
			<point x="601.408" y="403.074"/>
			<point x="615.182" y="487.714"/>
			<point x="553" y="497.833" type="curve"/>
			<point x="614" y="497.833"/>
			<point x="614" y="537"/>
			<point x="553" y="537" type="curve"/>
			<point x="576.704" y="575.955"/>
			<point x="551.296" y="591.415"/>
			<point x="527.592" y="552.461" type="curve"/>
			<point x="487.159" y="594.044"/>
			<point x="375.804" y="485.767"/>
			<point x="416.237" y="444.184" type="curve"/>
			<point x="378.313" y="483.186"/>
			<point x="329.774" y="435.989"/>
			<point x="367.697" y="396.987" type="curve"/>
			<point x="327.716" y="422.074"/>
			<point x="296.019" y="371.557"/>
			<point x="336" y="346.471" type="curve"/>
			<point x="290.996" y="329.778"/>
			<point x="322.693" y="244.321"/>
			<point x="367.697" y="261.013" type="curve"/>
			<point x="327.264" y="219.43"/>
			<point x="392.935" y="155.575"/>
			<point x="433.368" y="197.158" type="curve"/>
			<point x="388.055" y="150.556"/>
			<point x="487.989" y="53.385"/>
		</contour>
	</outline>
</glyph>
<glyph name="logicalnot" format="2">
	<advance width="564"/>
	<unicode hex="00AC"/>
	<outline>
		<contour>
			<point x="464" y="78" type="curve"/>
			<point x="540.989" y="76.878"/>
			<point x="542.989" y="178.468"/>
			<point x="486" y="179.59" type="curve"/>
			<point x="536" y="179.59"/>
			<point x="536" y="303.082"/>
			<point x="486" y="303.082" type="curve"/>
			<point x="511.225" y="346.715"/>
			<point x="473.311" y="368.633"/>
			<point x="448.087" y="325" type="curve"/>
			<point x="448.087" y="385"/>
			<point x="296.452" y="385"/>
			<point x="296.452" y="325" type="curve"/>
			<point x="296.452" y="380"/>
			<point x="240.587" y="380"/>
			<point x="240.587" y="325" type="curve"/>
			<point x="240.587" y="384"/>
			<point x="124.865" y="384"/>
			<point x="124.865" y="325" type="curve"/>
			<point x="110.014" y="372.743"/>
			<point x="52.149" y="354.743"/>
			<point x="67" y="307" type="curve"/>
			<point x="1.987" y="295.629"/>
			<point x="19.827" y="193.629"/>
			<point x="84.84" y="205" type="curve"/>
			<point x="84.84" y="146"/>
			<point x="171.96" y="146"/>
			<point x="171.96" y="205" type="curve"/>
			<point x="171.96" y="140"/>
			<point x="267" y="140"/>
			<point x="267" y="205" type="curve"/>
			<point x="267" y="145"/>
			<point x="334.32" y="145"/>
			<point x="334.32" y="205" type="curve"/>
			<point x="271.722" y="187.494"/>
			<point x="303.402" y="74.213"/>
			<point x="366" y="91.719" type="curve"/>
			<point x="356.434" y="23.385"/>
			<point x="454.434" y="9.666"/>
		</contour>
	</outline>
</glyph>
<glyph name="registered" format="2">
	<advance width="792"/>
	<unicode hex="00AE"/>
	<outline>
		<contour>
			<point x="324.099" y="27.885" type="curve"/>
			<point x="402.674" y="-44.656"/>
			<point x="470.476" y="-37.658"/>
			<point x="463.802" y="26.999" type="curve"/>
			<point x="487.423" y="-31.406"/>
			<point x="594.842" y="12.038"/>
			<point x="571.221" y="70.442" type="curve"/>
			<point x="608.781" y="23.653"/>
			<point x="668.163" y="71.322"/>
			<point x="630.603" y="118.111" type="curve"/>
			<point x="687.625" y="79.259"/>
			<point x="755.102" y="178.292"/>
			<point x="698.08" y="217.144" type="curve"/>
			<point x="762.139" y="194.331"/>
			<point x="778.294" y="239.697"/>
			<point x="714.235" y="262.509" type="curve"/>
			<point x="777.098" y="250.5"/>
			<point x="786.886" y="301.735"/>
			<point x="724.023" y="313.744" type="curve"/>
			<point x="790.847" y="318.602"/>
			<point x="782.145" y="438.298"/>
			<point x="715.322" y="433.44" type="curve"/>
			<point x="772.797" y="456.691"/>
			<point x="741.252" y="534.669"/>
			<point x="683.777" y="511.418" type="curve"/>
			<point x="738.541" y="558.161"/>
			<point x="655.615" y="655.316"/>
			<point x="600.852" y="608.572" type="curve"/>
			<point x="637.047" y="677.666"/>
			<point x="527.405" y="735.103"/>
			<point x="491.209" y="666.009" type="curve"/>
			<point x="502.453" y="729.014"/>
			<point x="427.492" y="742.391"/>
			<point x="416.249" y="679.386" type="curve"/>
			<point x="406.12" y="745.616"/>
			<point x="268.032" y="724.499"/>
			<point x="278.161" y="658.269" type="curve"/>
			<point x="235.462" y="723.543"/>
			<point x="118.698" y="647.164"/>
			<point x="161.397" y="581.889" type="curve"/>
			<point x="114.509" y="622.454"/>
			<point x="85.622" y="589.066"/>
			<point x="132.51" y="548.5" type="curve"/>
			<point x="67.599" y="589.919"/>
			<point x="39.54" y="545.947"/>
			<point x="104.451" y="504.527" type="curve"/>
			<point x="47.927" y="524.652"/>
			<point x="15.709" y="434.165"/>
			<point x="72.233" y="414.04" type="curve"/>
			<point x="0.233" y="414.059"/>
			<point x="0.199" y="286.153"/>
			<point x="72.199" y="286.134" type="curve"/>
			<point x="3.007" y="266.222"/>
			<point x="18.54" y="212.249"/>
			<point x="87.731" y="232.161" type="curve"/>
			<point x="33.791" y="199.612"/>
			<point x="93.66" y="100.396"/>
			<point x="147.6" y="132.945" type="curve"/>
			<point x="106.315" y="88.038"/>
			<point x="159.435" y="39.202"/>
			<point x="200.72" y="84.108" type="curve"/>
			<point x="168.79" y="14.041"/>
			<point x="292.169" y="-42.183"/>
		</contour>
		<contour>
			<point x="407.712" y="55.232" type="curve"/>
			<point x="402.908" y="96.428"/>
			<point x="308.617" y="112.15"/>
			<point x="301.709" y="70.722" type="curve"/>
			<point x="326.198" y="120.304"/>
			<point x="261.789" y="152.115"/>
			<point x="237.301" y="102.533" type="curve"/>
			<point x="266.289" y="142.039"/>
			<point x="243.714" y="158.603"/>
			<point x="214.727" y="119.097" type="curve"/>
			<point x="251.331" y="155.748"/>
			<point x="208.937" y="198.088"/>
			<point x="172.333" y="161.436" type="curve"/>
			<point x="215.352" y="184.896"/>
			<point x="163.914" y="279.217"/>
			<point x="120.896" y="255.756" type="curve"/>
			<point x="174.151" y="267.8"/>
			<point x="161.811" y="322.361"/>
			<point x="108.556" y="310.317" type="curve"/>
			<point x="161.055" y="310.639"/>
			<point x="160.592" y="386.26"/>
			<point x="108.093" y="385.938" type="curve"/>
			<point x="156.753" y="372.808"/>
			<point x="179.607" y="457.505"/>
			<point x="130.947" y="470.635" type="curve"/>
			<point x="173.022" y="444.182"/>
			<point x="219.71" y="518.441"/>
			<point x="177.635" y="544.894" type="curve"/>
			<point x="215.919" y="505.964"/>
			<point x="250.121" y="539.599"/>
			<point x="211.838" y="578.529" type="curve"/>
			<point x="238.385" y="543.314"/>
			<point x="260.746" y="560.172"/>
			<point x="234.199" y="595.386" type="curve"/>
			<point x="254.588" y="550.061"/>
			<point x="345.367" y="590.898"/>
			<point x="324.978" y="636.223" type="curve"/>
			<point x="332.297" y="582.822"/>
			<point x="395.607" y="591.499"/>
			<point x="388.289" y="644.9" type="curve"/>
			<point x="380.755" y="597.9"/>
			<point x="486.53" y="580.945"/>
			<point x="494.063" y="627.945" type="curve"/>
			<point x="473.049" y="590.774"/>
			<point x="556.259" y="543.732"/>
			<point x="577.273" y="580.903" type="curve"/>
			<point x="536.718" y="546.472"/>
			<point x="606.243" y="464.58"/>
			<point x="646.799" y="499.011" type="curve"/>
			<point x="606.033" y="484.119"/>
			<point x="640.196" y="390.601"/>
			<point x="680.961" y="405.493" type="curve"/>
			<point x="625.718" y="402.994"/>
			<point x="629.492" y="319.524"/>
			<point x="684.736" y="322.022" type="curve"/>
			<point x="633.871" y="335.023"/>
			<point x="610.188" y="242.366"/>
			<point x="661.053" y="229.365" type="curve"/>
			<point x="619.778" y="250.121"/>
			<point x="605.401" y="221.532"/>
			<point x="646.676" y="200.775" type="curve"/>
			<point x="611.075" y="230.221"/>
			<point x="547.619" y="153.498"/>
			<point x="583.22" y="124.053" type="curve"/>
			<point x="550.181" y="166.64"/>
			<point x="528.055" y="149.475"/>
			<point x="561.094" y="106.888" type="curve"/>
			<point x="538.592" y="155.095"/>
			<point x="448.393" y="112.991"/>
			<point x="470.895" y="64.785" type="curve"/>
			<point x="463.674" y="112.542"/>
			<point x="400.491" y="102.989"/>
		</contour>
		<contour>
			<point x="292.682" y="198" type="curve"/>
			<point x="411.658" y="204.394"/>
			<point x="403.658" y="279.039"/>
			<point x="344" y="272.645" type="curve"/>
			<point x="366.664" y="211.724"/>
			<point x="442.535" y="239.95"/>
			<point x="419.871" y="300.871" type="curve"/>
			<point x="368.158" y="266.669"/>
			<point x="436.196" y="163.798"/>
			<point x="487.909" y="198" type="curve"/>
			<point x="478.16" y="142.855"/>
			<point x="524.261" y="134.705"/>
			<point x="534.01" y="189.85" type="curve"/>
			<point x="584.41" y="212.364"/>
			<point x="563.022" y="260.244"/>
			<point x="512.622" y="237.73" type="curve"/>
			<point x="561.258" y="247.458"/>
			<point x="542.786" y="339.813"/>
			<point x="494.149" y="330.085" type="curve"/>
			<point x="541.686" y="315.93"/>
			<point x="578.034" y="438"/>
			<point x="530.497" y="452.156" type="curve"/>
			<point x="570.024" y="489.532"/>
			<point x="542.253" y="518.901"/>
			<point x="502.726" y="481.525" type="curve"/>
			<point x="524.871" y="537.288"/>
			<point x="479.609" y="555.263"/>
			<point x="457.464" y="499.499" type="curve"/>
			<point x="460.545" y="561.022"/>
			<point x="370.676" y="565.523"/>
			<point x="367.595" y="504" type="curve"/>
			<point x="367.595" y="560"/>
			<point x="296.568" y="560"/>
			<point x="296.568" y="504" type="curve"/>
			<point x="242.355" y="533.251"/>
			<point x="218.788" y="489.572"/>
			<point x="273" y="460.321" type="curve"/>
			<point x="225" y="460.321"/>
			<point x="225" y="380.815"/>
			<point x="273" y="380.815" type="curve"/>
			<point x="217.8" y="380.815"/>
			<point x="217.8" y="317.21"/>
			<point x="273" y="317.21" type="curve"/>
			<point x="221" y="317.21"/>
			<point x="221" y="261.556"/>
			<point x="273" y="261.556" type="curve"/>
			<point x="224.856" y="246.646"/>
			<point x="244.538" y="183.091"/>
		</contour>
		<contour>
			<point x="344" y="403" type="curve"/>
			<point x="344" y="420.1"/>
			<point x="387.353" y="420.1"/>
			<point x="387.353" y="467" type="curve"/>
			<point x="376.186" y="418.571"/>
			<point x="436.613" y="404.638"/>
			<point x="447.78" y="453.067" type="curve"/>
			<point x="395.3" y="454.51"/>
			<point x="392.817" y="364.232"/>
			<point x="445.297" y="362.789" type="curve"/>
			<point x="439.239" y="412.824"/>
			<point x="341.882" y="401.034"/>
			<point x="347.941" y="351" type="curve"/>
			<point x="394.707" y="354.544"/>
			<point x="390.766" y="406.544"/>
		</contour>
	</outline>
</glyph>
<glyph name="macron" format="2">
	<advance width="473"/>
	<unicode hex="00AF"/>
	<outline>
		<contour>
			<point x="340.183" y="600" type="curve"/>
			<point x="431.662" y="587.61"/>
			<point x="449.662" y="633.61"/>
			<point x="418" y="646" type="curve"/>
			<point x="447.994" y="646.621"/>
			<point x="446.26" y="730.385"/>
			<point x="416.266" y="729.764" type="curve"/>
			<point x="421.467" y="766.397"/>
			<point x="349.372" y="776.633"/>
			<point x="344.171" y="740" type="curve"/>
			<point x="344.171" y="775"/>
			<point x="240.488" y="775"/>
			<point x="240.488" y="740" type="curve"/>
			<point x="240.488" y="778"/>
			<point x="152.756" y="778"/>
			<point x="152.756" y="740" type="curve"/>
			<point x="152.756" y="778"/>
			<point x="100.915" y="778"/>
			<point x="100.915" y="740" type="curve"/>
			<point x="97.392" y="775.827"/>
			<point x="58.312" y="771.985"/>
			<point x="61.834" y="736.157" type="curve"/>
			<point x="28.96" y="739.032"/>
			<point x="22.125" y="660.875"/>
			<point x="55" y="658" type="curve"/>
			<point x="29.715" y="639.722"/>
			<point x="71.641" y="581.722"/>
			<point x="96.927" y="600" type="curve"/>
			<point x="96.927" y="569"/>
			<point x="188.646" y="569"/>
			<point x="188.646" y="600" type="curve"/>
			<point x="188.646" y="568"/>
			<point x="268.402" y="568"/>
			<point x="268.402" y="600" type="curve"/>
			<point x="268.402" y="562"/>
			<point x="340.183" y="562"/>
		</contour>
	</outline>
</glyph>
<glyph name="acute" format="2">
	<advance width="450"/>
	<unicode hex="00B4"/>
	<outline>
		<contour>
			<point x="159.943" y="600" type="curve"/>
			<point x="217.061" y="572.372"/>
			<point x="268.311" y="598.456"/>
			<point x="254.25" y="626.083" type="curve"/>
			<point x="276.493" y="599.06"/>
			<point x="337.743" y="649.477"/>
			<point x="315.5" y="676.5" type="curve"/>
			<point x="339.014" y="647.933"/>
			<point x="369.639" y="673.141"/>
			<point x="346.125" y="701.708" type="curve"/>
			<point x="372.758" y="696.185"/>
			<point x="384.846" y="754.477"/>
			<point x="358.213" y="760" type="curve"/>
			<point x="358.213" y="799"/>
			<point x="255.319" y="799"/>
			<point x="255.319" y="760" type="curve"/>
			<point x="255.319" y="790"/>
			<point x="211.787" y="790"/>
			<point x="211.787" y="760" type="curve"/>
			<point x="197.377" y="787.673"/>
			<point x="129.59" y="752.373"/>
			<point x="144" y="724.7" type="curve"/>
			<point x="120.798" y="743.718"/>
			<point x="58.298" y="667.468"/>
			<point x="81.5" y="648.45" type="curve"/>
			<point x="53.285" y="670.809"/>
			<point x="27.893" y="638.767"/>
			<point x="56.108" y="616.408" type="curve"/>
			<point x="46.682" y="583.741"/>
			<point x="103.545" y="567.333"/>
			<point x="112.971" y="600" type="curve"/>
			<point x="112.971" y="568"/>
			<point x="159.943" y="568"/>
		</contour>
	</outline>
</glyph>
<glyph name="cedilla" format="2">
	<advance width="282"/>
	<unicode hex="00B8"/>
	<outline>
		<contour>
			<point x="103.563" y="-211.642" type="curve"/>
			<point x="146.428" y="-247.322"/>
			<point x="222.205" y="-215.841"/>
			<point x="208.777" y="-183.519" type="curve"/>
			<point x="239.176" y="-183.787"/>
			<point x="240.158" y="-72.058"/>
			<point x="209.759" y="-71.791" type="curve"/>
			<point x="216.386" y="-46.236"/>
			<point x="129.009" y="-23.579"/>
			<point x="122.382" y="-49.133" type="curve"/>
			<point x="152.301" y="-57.252"/>
			<point x="162.299" y="-20.404"/>
			<point x="132.381" y="-12.286" type="curve"/>
			<point x="159.908" y="-7.163"/>
			<point x="153.527" y="27.123"/>
			<point x="126" y="22" type="curve"/>
			<point x="116.925" y="52.686"/>
			<point x="80.211" y="41.829"/>
			<point x="89.286" y="11.143" type="curve"/>
			<point x="54.791" y="24.526"/>
			<point x="21.629" y="-60.946"/>
			<point x="56.124" y="-74.329" type="curve"/>
			<point x="37.874" y="-105.36"/>
			<point x="90.089" y="-136.069"/>
			<point x="108.339" y="-105.038" type="curve"/>
			<point x="100.256" y="-132.681"/>
			<point x="156.751" y="-149.2"/>
			<point x="164.834" y="-121.557" type="curve"/>
			<point x="152.781" y="-93.649"/>
			<point x="83.937" y="-123.38"/>
			<point x="95.99" y="-151.289" type="curve"/>
			<point x="72.176" y="-154.277"/>
			<point x="79.75" y="-214.63"/>
		</contour>
	</outline>
</glyph>
<glyph name="Ccedilla" format="2">
	<advance width="733"/>
	<unicode hex="00C7"/>
	<outline>
		<contour>
			<point x="309" y="-192" type="curve"/>
			<point x="400.399" y="-236.2"/>
			<point x="468.852" y="-185.233"/>
			<point x="434.454" y="-139.032" type="curve"/>
			<point x="468.272" y="-103.851"/>
			<point x="393.752" y="-32.218"/>
			<point x="359.933" y="-67.4" type="curve"/>
			<point x="424.483" y="-59.765"/>
			<point x="414.95" y="20.835"/>
			<point x="350.4" y="13.2" type="curve"/>
			<point x="356.939" y="-37.581"/>
			<point x="420.839" y="-29.352"/>
			<point x="414.3" y="21.428" type="curve"/>
			<point x="426.954" y="-41.308"/>
			<point x="537.038" y="-19.103"/>
			<point x="524.384" y="43.633" type="curve"/>
			<point x="557.444" y="-24.799"/>
			<point x="615.276" y="3.14"/>
			<point x="582.215" y="71.572" type="curve"/>
			<point x="621.678" y="23.752"/>
			<point x="665" y="59.502"/>
			<point x="625.537" y="107.322" type="curve"/>
			<point x="673.945" y="86.239"/>
			<point x="731.333" y="218.002"/>
			<point x="682.925" y="239.086" type="curve"/>
			<point x="681.933" y="312.079"/>
			<point x="602.008" y="310.993"/>
			<point x="603" y="238" type="curve"/>
			<point x="603" y="303"/>
			<point x="535" y="303"/>
			<point x="535" y="238" type="curve"/>
			<point x="511.586" y="279.902"/>
			<point x="433.324" y="236.17"/>
			<point x="456.738" y="194.268" type="curve"/>
			<point x="430.921" y="250.637"/>
			<point x="345.183" y="211.369"/>
			<point x="371" y="155" type="curve"/>
			<point x="411.441" y="215.775"/>
			<point x="314.584" y="280.225"/>
			<point x="274.143" y="219.45" type="curve"/>
			<point x="335.044" y="222.931"/>
			<point x="326.471" y="372.937"/>
			<point x="265.57" y="369.456" type="curve"/>
			<point x="338.266" y="362.797"/>
			<point x="349.004" y="480.015"/>
			<point x="276.308" y="486.674" type="curve"/>
			<point x="300.84" y="426.481"/>
			<point x="432.148" y="479.996"/>
			<point x="407.616" y="540.189" type="curve"/>
			<point x="363.606" y="491.004"/>
			<point x="450.991" y="412.815"/>
			<point x="495" y="462" type="curve"/>
			<point x="495" y="383"/>
			<point x="543" y="383"/>
			<point x="543" y="462" type="curve"/>
			<point x="543" y="398"/>
			<point x="611" y="398"/>
			<point x="611" y="462" type="curve"/>
			<point x="611" y="399"/>
			<point x="671" y="399"/>
			<point x="671" y="462" type="curve"/>
			<point x="732.272" y="437.469"/>
			<point x="738.734" y="453.61"/>
			<point x="677.462" y="478.141" type="curve"/>
			<point x="739.832" y="492.494"/>
			<point x="729.001" y="539.553"/>
			<point x="666.632" y="525.2" type="curve"/>
			<point x="723.974" y="567.067"/>
			<point x="658.279" y="657.045"/>
			<point x="600.937" y="615.178" type="curve"/>
			<point x="637.895" y="673.445"/>
			<point x="597.091" y="699.327"/>
			<point x="560.133" y="641.06" type="curve"/>
			<point x="577.674" y="703.649"/>
			<point x="450.216" y="739.371"/>
			<point x="432.674" y="676.782" type="curve"/>
			<point x="437.084" y="745.641"/>
			<point x="388.801" y="748.733"/>
			<point x="384.392" y="679.874" type="curve"/>
			<point x="376.677" y="741.392"/>
			<point x="229.235" y="722.9"/>
			<point x="236.95" y="661.382" type="curve"/>
			<point x="203.362" y="722.798"/>
			<point x="108.711" y="671.033"/>
			<point x="142.299" y="609.618" type="curve"/>
			<point x="77.938" y="655.429"/>
			<point x="22.401" y="577.405"/>
			<point x="86.762" y="531.594" type="curve"/>
			<point x="24.64" y="542.074"/>
			<point x="4.051" y="420.04"/>
			<point x="66.173" y="409.559" type="curve"/>
			<point x="2.179" y="410.411"/>
			<point x="1.53" y="361.638"/>
			<point x="65.524" y="360.786" type="curve"/>
			<point x="-8.475" y="360.433"/>
			<point x="-8.242" y="311.657"/>
			<point x="65.757" y="312.01" type="curve"/>
			<point x="5.785" y="310.168"/>
			<point x="7.692" y="248.114"/>
			<point x="67.663" y="249.956" type="curve"/>
			<point x="8.155" y="232.556"/>
			<point x="41.685" y="117.884"/>
			<point x="101.193" y="135.284" type="curve"/>
			<point x="66.904" y="91.01"/>
			<point x="185.22" y="-0.623"/>
			<point x="219.509" y="43.652" type="curve"/>
			<point x="202.544" y="-29.404"/>
			<point x="280.72" y="-47.558"/>
			<point x="297.685" y="25.498" type="curve"/>
			<point x="240.328" y="-0.561"/>
			<point x="269.726" y="-65.268"/>
			<point x="327.083" y="-39.208" type="curve"/>
			<point x="295.757" y="-86.588"/>
			<point x="379.72" y="-142.103"/>
			<point x="411.047" y="-94.723" type="curve"/>
			<point x="347.659" y="-62.739"/>
			<point x="302.612" y="-152.016"/>
			<point x="366" y="-184" type="curve"/>
			<point x="357.216" y="-121.413"/>
			<point x="300.216" y="-129.413"/>
		</contour>
	</outline>
</glyph>
<glyph name="Eth" format="2">
	<advance width="766"/>
	<unicode hex="00D0"/>
	<outline>
		<contour>
			<point x="379.164" y="30" type="curve"/>
			<point x="403.559" y="-39.475"/>
			<point x="530.243" y="-23.868"/>
			<point x="521.684" y="45.607" type="curve"/>
			<point x="550.401" y="-19.327"/>
			<point x="630.577" y="16.13"/>
			<point x="601.86" y="81.064" type="curve"/>
			<point x="661.684" y="31.013"/>
			<point x="740.077" y="124.713"/>
			<point x="680.253" y="174.764" type="curve"/>
			<point x="756.484" y="154.035"/>
			<point x="772.19" y="211.792"/>
			<point x="695.958" y="232.522" type="curve"/>
			<point x="773.939" y="230.797"/>
			<point x="776.981" y="368.381"/>
			<point x="699" y="370.105" type="curve"/>
			<point x="777.756" y="376.311"/>
			<point x="767.83" y="502.284"/>
			<point x="689.074" y="496.079" type="curve"/>
			<point x="747.946" y="532.067"/>
			<point x="690.182" y="626.56"/>
			<point x="631.31" y="590.572" type="curve"/>
			<point x="667.146" y="642.387"/>
			<point x="604.863" y="685.463"/>
			<point x="569.027" y="633.648" type="curve"/>
			<point x="589.071" y="703.843"/>
			<point x="474.2" y="736.644"/>
			<point x="454.155" y="666.45" type="curve"/>
			<point x="458.514" y="731.304"/>
			<point x="406.641" y="734.79"/>
			<point x="402.282" y="669.937" type="curve"/>
			<point x="402.357" y="731.937"/>
			<point x="350.075" y="732"/>
			<point x="350" y="670" type="curve"/>
			<point x="350" y="738"/>
			<point x="266" y="738"/>
			<point x="266" y="670" type="curve"/>
			<point x="266" y="748"/>
			<point x="150" y="748"/>
			<point x="150" y="670" type="curve"/>
			<point x="92.676" y="692.552"/>
			<point x="51.676" y="588.334"/>
			<point x="109" y="565.783" type="curve"/>
			<point x="45" y="565.783"/>
			<point x="45" y="450.623"/>
			<point x="109" y="450.623" type="curve"/>
			<point x="68.191" y="501.216"/>
			<point x="4.191" y="449.593"/>
			<point x="45" y="399" type="curve"/>
			<point x="-21.982" y="400.536"/>
			<point x="-22.982" y="356.92"/>
			<point x="44" y="355.385" type="curve"/>
			<point x="-27.204" y="331.827"/>
			<point x="-10.204" y="280.443"/>
			<point x="61" y="304" type="curve"/>
			<point x="6.46" y="265.084"/>
			<point x="54.46" y="197.813"/>
			<point x="109" y="236.729" type="curve"/>
			<point x="32" y="236.729"/>
			<point x="32" y="114.057"/>
			<point x="109" y="114.057" type="curve"/>
			<point x="49.941" y="93.913"/>
			<point x="78.612" y="9.855"/>
			<point x="137.671" y="30" type="curve"/>
			<point x="137.671" y="-33"/>
			<point x="201.014" y="-33"/>
			<point x="201.014" y="30" type="curve"/>
			<point x="201.014" y="-31"/>
			<point x="323.74" y="-31"/>
			<point x="323.74" y="30" type="curve"/>
			<point x="323.74" y="-45"/>
			<point x="379.164" y="-45"/>
		</contour>
		<contour>
			<point x="299" y="276.2" type="curve"/>
			<point x="299" y="261.44"/>
			<point x="361.545" y="261.44"/>
			<point x="361.545" y="304" type="curve"/>
			<point x="397.783" y="290.589"/>
			<point x="418.238" y="345.858"/>
			<point x="382" y="359.269" type="curve"/>
			<point x="408.266" y="393.466"/>
			<point x="356.539" y="433.197"/>
			<point x="330.273" y="399" type="curve"/>
			<point x="369.007" y="419.189"/>
			<point x="337.734" y="479.189"/>
			<point x="299" y="459" type="curve"/>
			<point x="342.31" y="449.977"/>
			<point x="358.143" y="525.977"/>
			<point x="314.833" y="535" type="curve"/>
			<point x="314.833" y="495.24"/>
			<point x="346.5" y="495.24"/>
			<point x="346.5" y="535" type="curve"/>
			<point x="345.079" y="497.507"/>
			<point x="420.841" y="494.635"/>
			<point x="422.262" y="532.128" type="curve"/>
			<point x="398.002" y="499.225"/>
			<point x="461.295" y="452.558"/>
			<point x="485.555" y="485.461" type="curve"/>
			<point x="437.677" y="469.718"/>
			<point x="449.058" y="435.106"/>
			<point x="496.936" y="450.848" type="curve"/>
			<point x="444.562" y="447.217"/>
			<point x="446.626" y="417.448"/>
			<point x="499" y="421.079" type="curve"/>
			<point x="460.92" y="421.079"/>
			<point x="460.92" y="342.658"/>
			<point x="499" y="342.658" type="curve"/>
			<point x="463.72" y="342.658"/>
			<point x="463.72" y="276"/>
			<point x="499" y="276" type="curve"/>
			<point x="453.238" y="293.518"/>
			<point x="420.7" y="208.518"/>
			<point x="466.461" y="191" type="curve"/>
			<point x="449.811" y="225.868"/>
			<point x="399.089" y="201.648"/>
			<point x="415.739" y="166.779" type="curve"/>
			<point x="413.612" y="216.434"/>
			<point x="372.081" y="214.654"/>
			<point x="374.208" y="165" type="curve"/>
			<point x="374.208" y="198.6"/>
			<point x="322.75" y="198.6"/>
			<point x="322.75" y="165" type="curve"/>
			<point x="357.511" y="190.985"/>
			<point x="333.761" y="222.756"/>
			<point x="299" y="196.771" type="curve"/>
			<point x="344.5" y="196.771"/>
			<point x="344.5" y="276.2"/>
		</contour>
	</outline>
</glyph>
<glyph name="Oslash" format="2">
	<advance width="780"/>
	<unicode hex="00D8"/>
	<anchor x="390" y="700" name="top"/>
	<anchor x="390" y="0" name="bottom"/>
	<outline>
		<contour>
			<point x="313.17" y="25.731" type="curve"/>
			<point x="397.36" y="-56.876"/>
			<point x="461.43" y="-53.243"/>
			<point x="457.07" y="23.633" type="curve"/>
			<point x="477.252" y="-33.931"/>
			<point x="623.433" y="17.32"/>
			<point x="603.251" y="74.884" type="curve"/>
			<point x="647.061" y="32.438"/>
			<point x="702.574" y="89.733"/>
			<point x="658.764" y="132.18" type="curve"/>
			<point x="721.463" y="103.374"/>
			<point x="748.176" y="161.518"/>
			<point x="685.477" y="190.324" type="curve"/>
			<point x="760.724" y="179.649"/>
			<point x="772.481" y="262.524"/>
			<point x="697.234" y="273.199" type="curve"/>
			<point x="769.234" y="273.223"/>
			<point x="769.184" y="423.689"/>
			<point x="697.184" y="423.665" type="curve"/>
			<point x="746.199" y="387.69"/>
			<point x="789.015" y="446.025"/>
			<point x="740" y="482" type="curve"/>
			<point x="804.482" y="496.072"/>
			<point x="792.009" y="553.23"/>
			<point x="727.526" y="539.158" type="curve"/>
			<point x="764.656" y="599.676"/>
			<point x="665.948" y="660.236"/>
			<point x="628.818" y="599.718" type="curve"/>
			<point x="658.115" y="654.36"/>
			<point x="532.615" y="721.647"/>
			<point x="503.318" y="667.006" type="curve"/>
			<point x="510.145" y="740.69"/>
			<point x="375.662" y="753.151"/>
			<point x="368.835" y="679.466" type="curve"/>
			<point x="362.397" y="747.161"/>
			<point x="314.296" y="742.587"/>
			<point x="320.733" y="674.892" type="curve"/>
			<point x="303.242" y="737.495"/>
			<point x="214.267" y="712.636"/>
			<point x="231.758" y="650.033" type="curve"/>
			<point x="185.952" y="714.398"/>
			<point x="101.278" y="654.14"/>
			<point x="147.083" y="589.775" type="curve"/>
			<point x="82.067" y="625.115"/>
			<point x="34.377" y="537.378"/>
			<point x="99.393" y="502.038" type="curve"/>
			<point x="32.704" y="508.491"/>
			<point x="20.766" y="385.119"/>
			<point x="87.455" y="378.666" type="curve"/>
			<point x="23.458" y="379.237"/>
			<point x="23.062" y="334.959"/>
			<point x="87.06" y="334.388" type="curve"/>
			<point x="25.312" y="357.694"/>
			<point x="-19.748" y="238.305"/>
			<point x="42" y="215" type="curve"/>
			<point x="18.386" y="159.842"/>
			<point x="76.483" y="134.97"/>
			<point x="100.096" y="190.128" type="curve"/>
			<point x="28.17" y="157.455"/>
			<point x="54.693" y="99.067"/>
			<point x="126.62" y="131.741" type="curve"/>
			<point x="69.327" y="84.905"/>
			<point x="97.278" y="50.714"/>
			<point x="154.57" y="97.549" type="curve"/>
			<point x="119.202" y="32.549"/>
			<point x="234.518" y="-30.196"/>
			<point x="269.886" y="34.805" type="curve"/>
			<point x="255.523" y="-33.706"/>
			<point x="298.808" y="-42.78"/>
		</contour>
		<contour>
			<point x="358.511" y="394.556" type="curve"/>
			<point x="369.393" y="401.043"/>
			<point x="333.047" y="482.41"/>
			<point x="292.654" y="464.366" type="curve"/>
			<point x="323.664" y="446.398"/>
			<point x="357.883" y="505.452"/>
			<point x="326.873" y="523.42" type="curve"/>
			<point x="344.863" y="492.423"/>
			<point x="369.528" y="506.738"/>
			<point x="351.537" y="537.735" type="curve"/>
			<point x="350.973" y="494.619"/>
			<point x="436.292" y="493.502"/>
			<point x="436.856" y="536.619" type="curve"/>
			<point x="414.494" y="502.397"/>
			<point x="441.711" y="484.612"/>
			<point x="464.073" y="518.833" type="curve"/>
			<point x="427.33" y="493.201"/>
			<point x="448.239" y="463.23"/>
			<point x="484.982" y="488.862" type="curve"/>
			<point x="438.794" y="489.933"/>
			<point x="437.746" y="444.738"/>
			<point x="483.933" y="443.667" type="curve"/>
			<point x="470.866" y="477.039"/>
			<point x="419.221" y="456.817"/>
			<point x="432.289" y="423.444" type="curve"/>
			<point x="418.2" y="459.424"/>
			<point x="344.423" y="430.536"/>
		</contour>
		<contour>
			<point x="434.344" y="162.024" type="curve"/>
			<point x="409.925" y="185.315"/>
			<point x="319.953" y="235.548"/>
			<point x="303.027" y="205.232" type="curve"/>
			<point x="355.354" y="220.822"/>
			<point x="341.633" y="266.879"/>
			<point x="289.306" y="251.289" type="curve"/>
			<point x="314.571" y="225.086"/>
			<point x="346.331" y="255.71"/>
			<point x="321.065" y="281.913" type="curve"/>
			<point x="336.344" y="242.791"/>
			<point x="395.126" y="265.747"/>
			<point x="379.848" y="304.87" type="curve"/>
			<point x="388.593" y="268.383"/>
			<point x="478.36" y="289.898"/>
			<point x="469.615" y="326.385" type="curve"/>
			<point x="426.577" y="302.961"/>
			<point x="453.962" y="252.645"/>
			<point x="497" y="276.069" type="curve"/>
			<point x="460.162" y="279.068"/>
			<point x="457.121" y="241.707"/>
			<point x="493.959" y="238.709" type="curve"/>
			<point x="466.548" y="260.018"/>
			<point x="406.932" y="183.334"/>
		</contour>
	</outline>
</glyph>
<glyph name="Thorn" format="2">
	<advance width="705"/>
	<unicode hex="00DE"/>
	<outline>
		<contour>
			<point x="228.577" y="30" type="curve"/>
			<point x="366.545" y="21.53"/>
			<point x="379.378" y="140.53"/>
			<point x="300.833" y="149" type="curve"/>
			<point x="300.833" y="89"/>
			<point x="348.333" y="89"/>
			<point x="348.333" y="149" type="curve"/>
			<point x="348.6" y="79"/>
			<point x="396.365" y="79.183"/>
			<point x="396.098" y="149.182" type="curve"/>
			<point x="405.65" y="78.827"/>
			<point x="520.984" y="94.485"/>
			<point x="511.433" y="164.839" type="curve"/>
			<point x="541.161" y="102.572"/>
			<point x="617" y="138.779"/>
			<point x="587.271" y="201.047" type="curve"/>
			<point x="649.319" y="155.45"/>
			<point x="705.684" y="232.151"/>
			<point x="643.637" y="277.748" type="curve"/>
			<point x="711.311" y="264.29"/>
			<point x="723.047" y="323.307"/>
			<point x="655.373" y="336.765" type="curve"/>
			<point x="723.355" y="338.305"/>
			<point x="722.192" y="389.642"/>
			<point x="654.209" y="388.101" type="curve"/>
			<point x="710.398" y="411.847"/>
			<point x="665.727" y="517.551"/>
			<point x="609.538" y="493.805" type="curve"/>
			<point x="634.082" y="542.354"/>
			<point x="496.711" y="611.8"/>
			<point x="472.168" y="563.252" type="curve"/>
			<point x="476.799" y="623.073"/>
			<point x="376.714" y="630.821"/>
			<point x="372.083" y="571" type="curve"/>
			<point x="372.083" y="643"/>
			<point x="300.833" y="643"/>
			<point x="300.833" y="571" type="curve"/>
			<point x="363.859" y="586.898"/>
			<point x="348.026" y="649.667"/>
			<point x="285" y="633.769" type="curve"/>
			<point x="315.29" y="671.005"/>
			<point x="270.752" y="707.236"/>
			<point x="240.462" y="670" type="curve"/>
			<point x="240.462" y="748"/>
			<point x="181.038" y="748"/>
			<point x="181.038" y="670" type="curve"/>
			<point x="162.245" y="714.168"/>
			<point x="66.207" y="673.304"/>
			<point x="85" y="629.136" type="curve"/>
			<point x="13" y="629.136"/>
			<point x="13" y="509.506"/>
			<point x="85" y="509.506" type="curve"/>
			<point x="18" y="509.506"/>
			<point x="18" y="361.963"/>
			<point x="85" y="361.963" type="curve"/>
			<point x="8" y="361.963"/>
			<point x="8" y="290.185"/>
			<point x="85" y="290.185" type="curve"/>
			<point x="13" y="290.185"/>
			<point x="13" y="218.407"/>
			<point x="85" y="218.407" type="curve"/>
			<point x="11" y="218.407"/>
			<point x="11" y="66.877"/>
			<point x="85" y="66.877" type="curve"/>
			<point x="23.753" y="52.12"/>
			<point x="32.637" y="15.244"/>
			<point x="93.885" y="30" type="curve"/>
			<point x="93.885" y="-30"/>
			<point x="185" y="-30"/>
			<point x="185" y="30" type="curve"/>
			<point x="185" y="-38"/>
			<point x="228.577" y="-38"/>
		</contour>
		<contour>
			<point x="280" y="373.419" type="curve"/>
			<point x="280" y="406.36"/>
			<point x="316" y="406.36"/>
			<point x="316" y="445" type="curve"/>
			<point x="316" y="405.8"/>
			<point x="364" y="405.8"/>
			<point x="364" y="445" type="curve"/>
			<point x="360.516" y="404.831"/>
			<point x="400.33" y="401.378"/>
			<point x="403.813" y="441.547" type="curve"/>
			<point x="373.034" y="421.086"/>
			<point x="425.119" y="342.737"/>
			<point x="455.898" y="363.199" type="curve"/>
			<point x="420.901" y="379.577"/>
			<point x="384.397" y="301.575"/>
			<point x="419.395" y="285.197" type="curve"/>
			<point x="407.117" y="320.058"/>
			<point x="376.816" y="309.386"/>
			<point x="389.093" y="274.525" type="curve"/>
			<point x="388.705" y="313.723"/>
			<point x="335.612" y="313.198"/>
			<point x="336" y="274" type="curve"/>
			<point x="336" y="316.56"/>
			<point x="304" y="316.56"/>
			<point x="304" y="274" type="curve"/>
			<point x="331.688" y="307.42"/>
			<point x="307.688" y="327.304"/>
			<point x="280" y="293.884" type="curve"/>
			<point x="315.84" y="293.884"/>
			<point x="315.84" y="373.419"/>
		</contour>
	</outline>
</glyph>
<glyph name="divide" format="2">
	<advance width="517"/>
	<unicode hex="00F7"/>
	<outline>
		<contour>
			<point x="288" y="433" type="curve"/>
			<point x="382.856" y="428.741"/>
			<point x="384.856" y="458.258"/>
			<point x="322" y="462.517" type="curve"/>
			<point x="389.57" y="470.154"/>
			<point x="379.57" y="558.636"/>
			<point x="312" y="551" type="curve"/>
			<point x="312" y="618"/>
			<point x="272" y="618"/>
			<point x="272" y="551" type="curve"/>
			<point x="273.412" y="610.983"/>
			<point x="189.739" y="612.953"/>
			<point x="188.327" y="552.97" type="curve"/>
			<point x="128.412" y="549.768"/>
			<point x="134.085" y="443.592"/>
			<point x="194" y="446.793" type="curve"/>
			<point x="174.13" y="409.337"/>
			<point x="200.13" y="395.544"/>
			<point x="220" y="433" type="curve"/>
			<point x="220" y="388.2"/>
			<point x="288" y="388.2"/>
		</contour>
		<contour>
			<point x="389.529" y="240" type="curve"/>
			<point x="521.991" y="238.966"/>
			<point x="523.991" y="356.966"/>
			<point x="463" y="358" type="curve"/>
			<point x="465.576" y="421.948"/>
			<point x="415.929" y="423.948"/>
			<point x="413.353" y="360" type="curve"/>
			<point x="413.353" y="422"/>
			<point x="326" y="422"/>
			<point x="326" y="360" type="curve"/>
			<point x="326" y="415.2"/>
			<point x="286.294" y="415.2"/>
			<point x="286.294" y="360" type="curve"/>
			<point x="286.294" y="406.4"/>
			<point x="163.206" y="406.4"/>
			<point x="163.206" y="360" type="curve"/>
			<point x="159.475" y="427.898"/>
			<point x="50.27" y="421.898"/>
			<point x="54" y="354" type="curve"/>
			<point x="-9" y="354"/>
			<point x="-9" y="278"/>
			<point x="54" y="278" type="curve"/>
			<point x="-0.924" y="275.109"/>
			<point x="1.076" y="237.109"/>
			<point x="56" y="240" type="curve"/>
			<point x="56" y="176"/>
			<point x="191" y="176"/>
			<point x="191" y="240" type="curve"/>
			<point x="191" y="200"/>
			<point x="318.059" y="200"/>
			<point x="318.059" y="240" type="curve"/>
			<point x="318.059" y="183"/>
			<point x="389.529" y="183"/>
		</contour>
		<contour>
			<point x="280" y="49" type="curve"/>
			<point x="372.938" y="46.437"/>
			<point x="374.938" y="87.747"/>
			<point x="322" y="90.31" type="curve"/>
			<point x="391" y="90.31"/>
			<point x="391" y="137.483"/>
			<point x="322" y="137.483" type="curve"/>
			<point x="356.09" y="176.75"/>
			<point x="322.09" y="206.267"/>
			<point x="288" y="167" type="curve"/>
			<point x="288" y="208.6"/>
			<point x="232" y="208.6"/>
			<point x="232" y="167" type="curve"/>
			<point x="185.406" y="190.087"/>
			<point x="147.406" y="113.398"/>
			<point x="194" y="90.31" type="curve"/>
			<point x="171.138" y="42.716"/>
			<point x="257.138" y="1.406"/>
		</contour>
	</outline>
</glyph>
<glyph name="aogonek" format="2">
	<advance width="622"/>
	<unicode hex="0105"/>
	<outline>
		<contour>
			<point x="534.779" y="-194.924" type="curve"/>
			<point x="592.077" y="-179.99"/>
			<point x="562.023" y="-105.751"/>
			<point x="524.946" y="-120.76" type="curve"/>
			<point x="575.49" y="-104.812"/>
			<point x="537.165" y="16.649"/>
			<point x="486.621" y="0.7" type="curve"/>
			<point x="516.471" y="-49.029"/>
			<point x="586.849" y="-6.785"/>
			<point x="557" y="42.944" type="curve"/>
			<point x="617" y="42.944"/>
			<point x="617" y="118.681"/>
			<point x="557" y="118.681" type="curve"/>
			<point x="614" y="118.681"/>
			<point x="614" y="226.306"/>
			<point x="557" y="226.306" type="curve"/>
			<point x="615" y="226.306"/>
			<point x="615" y="286.097"/>
			<point x="557" y="286.097" type="curve"/>
			<point x="618.999" y="286.487"/>
			<point x="618.748" y="326.436"/>
			<point x="556.749" y="326.047" type="curve"/>
			<point x="615.397" y="346.157"/>
			<point x="578.287" y="454.385"/>
			<point x="519.639" y="434.275" type="curve"/>
			<point x="543.629" y="483.099"/>
			<point x="409.756" y="548.879"/>
			<point x="385.766" y="500.055" type="curve"/>
			<point x="387.652" y="554.022"/>
			<point x="283.811" y="557.65"/>
			<point x="281.925" y="503.683" type="curve"/>
			<point x="269.442" y="567.473"/>
			<point x="186.898" y="551.32"/>
			<point x="199.381" y="487.53" type="curve"/>
			<point x="168.789" y="533.477"/>
			<point x="57.336" y="459.269"/>
			<point x="87.928" y="413.322" type="curve"/>
			<point x="66.252" y="364.3"/>
			<point x="134.823" y="333.979"/>
			<point x="156.5" y="383" type="curve"/>
			<point x="166.834" y="335.307"/>
			<point x="309.51" y="366.22"/>
			<point x="299.176" y="413.913" type="curve"/>
			<point x="290.888" y="365.822"/>
			<point x="338.823" y="357.561"/>
			<point x="347.111" y="405.652" type="curve"/>
			<point x="284.833" y="390.904"/>
			<point x="304.722" y="306.918"/>
			<point x="367" y="321.667" type="curve"/>
			<point x="356.715" y="371.823"/>
			<point x="264.352" y="352.884"/>
			<point x="274.636" y="302.727" type="curve"/>
			<point x="261.829" y="353.125"/>
			<point x="119.579" y="316.976"/>
			<point x="132.386" y="266.578" type="curve"/>
			<point x="102.601" y="297.868"/>
			<point x="18.109" y="217.44"/>
			<point x="47.894" y="186.15" type="curve"/>
			<point x="-18.993" y="190.043"/>
			<point x="-22.558" y="128.779"/>
			<point x="44.329" y="124.887" type="curve"/>
			<point x="-17.223" y="93.704"/>
			<point x="11.658" y="36.694"/>
			<point x="73.21" y="67.876" type="curve"/>
			<point x="56.858" y="30.497"/>
			<point x="176.207" y="-21.715"/>
			<point x="192.56" y="15.664" type="curve"/>
			<point x="207.881" y="-37.367"/>
			<point x="331.265" y="-1.721"/>
			<point x="315.944" y="51.311" type="curve"/>
			<point x="322.37" y="-5.326"/>
			<point x="376.926" y="0.863"/>
			<point x="370.5" y="57.5" type="curve"/>
			<point x="303.829" y="44.122"/>
			<point x="327.627" y="-74.484"/>
			<point x="394.298" y="-61.106" type="curve"/>
			<point x="352.62" y="-79.606"/>
			<point x="398.674" y="-183.36"/>
			<point x="440.353" y="-164.859" type="curve"/>
			<point x="422.756" y="-220.126"/>
			<point x="517.182" y="-250.191"/>
		</contour>
		<contour>
			<point x="297.279" y="114.333" type="curve"/>
			<point x="303.143" y="136.58"/>
			<point x="240.71" y="197.856"/>
			<point x="217.567" y="174.275" type="curve"/>
			<point x="241.539" y="148.39"/>
			<point x="296.013" y="198.838"/>
			<point x="272.041" y="224.723" type="curve"/>
			<point x="279.488" y="192.533"/>
			<point x="319.403" y="201.767"/>
			<point x="311.957" y="233.957" type="curve"/>
			<point x="298.426" y="208.805"/>
			<point x="356.038" y="177.813"/>
			<point x="369.568" y="202.965" type="curve"/>
			<point x="339.194" y="215.967"/>
			<point x="309.888" y="147.506"/>
			<point x="340.263" y="134.504" type="curve"/>
			<point x="325.989" y="164.921"/>
			<point x="283.004" y="144.75"/>
		</contour>
	</outline>
</glyph>
<glyph name="Dcroat" format="2">
	<advance width="764"/>
	<unicode hex="0110"/>
	<outline>
		<contour>
			<point x="375.205" y="30" type="curve"/>
			<point x="402.864" y="-31.499"/>
			<point x="529.891" y="-15.257"/>
			<point x="522.027" y="46.243" type="curve"/>
			<point x="552.722" y="-0.596"/>
			<point x="681.371" y="83.713"/>
			<point x="650.676" y="130.551" type="curve"/>
			<point x="713.885" y="105.479"/>
			<point x="757.842" y="216.298"/>
			<point x="694.633" y="241.37" type="curve"/>
			<point x="761.536" y="237.776"/>
			<point x="766.276" y="326.019"/>
			<point x="699.373" y="329.612" type="curve"/>
			<point x="772.365" y="330.674"/>
			<point x="770.992" y="425.062"/>
			<point x="698" y="424" type="curve"/>
			<point x="761.473" y="442.087"/>
			<point x="726.591" y="564.505"/>
			<point x="663.117" y="546.419" type="curve"/>
			<point x="698.546" y="587.7"/>
			<point x="590.389" y="680.525"/>
			<point x="554.96" y="639.244" type="curve"/>
			<point x="571.717" y="704.115"/>
			<point x="463.151" y="732.159"/>
			<point x="446.394" y="667.288" type="curve"/>
			<point x="448.64" y="727.246"/>
			<point x="376.246" y="729.958"/>
			<point x="374" y="670" type="curve"/>
			<point x="374" y="733"/>
			<point x="258" y="733"/>
			<point x="258" y="670" type="curve"/>
			<point x="258" y="735"/>
			<point x="214" y="735"/>
			<point x="214" y="670" type="curve"/>
			<point x="214" y="737"/>
			<point x="154" y="737"/>
			<point x="154" y="670" type="curve"/>
			<point x="110.697" y="713.811"/>
			<point x="65.697" y="669.333"/>
			<point x="109" y="625.522" type="curve"/>
			<point x="45" y="625.522"/>
			<point x="45" y="582"/>
			<point x="109" y="582" type="curve"/>
			<point x="49" y="582"/>
			<point x="49" y="518.696"/>
			<point x="109" y="518.696" type="curve"/>
			<point x="38.923" y="535.227"/>
			<point x="10.923" y="416.531"/>
			<point x="81" y="400" type="curve"/>
			<point x="58.534" y="466.297"/>
			<point x="21.534" y="453.758"/>
			<point x="44" y="387.462" type="curve"/>
			<point x="-8.074" y="369.148"/>
			<point x="20.926" y="286.687"/>
			<point x="73" y="305" type="curve"/>
			<point x="22.143" y="269.538"/>
			<point x="58.143" y="217.909"/>
			<point x="109" y="253.371" type="curve"/>
			<point x="48" y="253.371"/>
			<point x="48" y="122.314"/>
			<point x="109" y="122.314" type="curve"/>
			<point x="39" y="122.314"/>
			<point x="39" y="66.714"/>
			<point x="109" y="66.714" type="curve"/>
			<point x="47.764" y="51.909"/>
			<point x="56.641" y="15.195"/>
			<point x="117.877" y="30" type="curve"/>
			<point x="117.877" y="-41"/>
			<point x="228.726" y="-41"/>
			<point x="228.726" y="30" type="curve"/>
			<point x="228.726" y="-49"/>
			<point x="375.205" y="-49"/>
		</contour>
		<contour>
			<point x="299" y="201" type="curve"/>
			<point x="299.442" y="263.562"/>
			<point x="382.442" y="264.447"/>
			<point x="382" y="305.885" type="curve"/>
			<point x="424" y="305.885"/>
			<point x="424" y="375.808"/>
			<point x="382" y="375.808" type="curve"/>
			<point x="423.97" y="377.385"/>
			<point x="423.061" y="401.577"/>
			<point x="381.091" y="400" type="curve"/>
			<point x="381.091" y="436.4"/>
			<point x="353.727" y="436.4"/>
			<point x="353.727" y="400" type="curve"/>
			<point x="379.467" y="429.565"/>
			<point x="324.74" y="477.212"/>
			<point x="299" y="447.647" type="curve"/>
			<point x="345.9" y="447.647"/>
			<point x="345.9" y="511.176"/>
			<point x="299" y="511.176" type="curve"/>
			<point x="321.057" y="463.535"/>
			<point x="372.515" y="487.358"/>
			<point x="350.458" y="535" type="curve"/>
			<point x="349.135" y="491.9"/>
			<point x="416.994" y="489.816"/>
			<point x="418.318" y="532.916" type="curve"/>
			<point x="407.126" y="497.104"/>
			<point x="434.264" y="488.623"/>
			<point x="445.455" y="524.435" type="curve"/>
			<point x="418.841" y="499.603"/>
			<point x="467.665" y="447.275"/>
			<point x="494.279" y="472.107" type="curve"/>
			<point x="442.177" y="465.657"/>
			<point x="453.849" y="371.382"/>
			<point x="505.951" y="377.832" type="curve"/>
			<point x="462.272" y="377.459"/>
			<point x="462.553" y="344.657"/>
			<point x="506.231" y="345.03" type="curve"/>
			<point x="467.599" y="345.824"/>
			<point x="466.84" y="308.928"/>
			<point x="505.472" y="308.133" type="curve"/>
			<point x="457.353" y="317.384"/>
			<point x="439.545" y="224.756"/>
			<point x="487.664" y="215.504" type="curve"/>
			<point x="466.819" y="242.567"/>
			<point x="406.925" y="196.434"/>
			<point x="427.77" y="169.372" type="curve"/>
			<point x="425.796" y="209.643"/>
			<point x="336.609" y="205.272"/>
			<point x="338.583" y="165" type="curve"/>
			<point x="375.791" y="205.911"/>
			<point x="336.207" y="241.911"/>
		</contour>
	</outline>
</glyph>
<glyph name="dcroat" format="2">
	<advance width="662"/>
	<unicode hex="0111"/>
	<outline>
		<contour>
			<point x="197.334" y="19.174" type="curve"/>
			<point x="261.563" y="-45.502"/>
			<point x="359.993" y="-16.929"/>
			<point x="342.43" y="43.573" type="curve"/>
			<point x="380.831" y="-11.331"/>
			<point x="417.9" y="14.596"/>
			<point x="379.5" y="69.5" type="curve"/>
			<point x="354.007" y="26.487"/>
			<point x="429.088" y="-18.013"/>
			<point x="454.581" y="25" type="curve"/>
			<point x="454.581" y="-29"/>
			<point x="525.744" y="-29"/>
			<point x="525.744" y="25" type="curve"/>
			<point x="520.303" y="-36.761"/>
			<point x="587.829" y="-42.71"/>
			<point x="593.271" y="19.051" type="curve"/>
			<point x="649.243" y="20.823"/>
			<point x="646.972" y="92.539"/>
			<point x="591" y="90.766" type="curve"/>
			<point x="647" y="90.766"/>
			<point x="647" y="226.27"/>
			<point x="591" y="226.27" type="curve"/>
			<point x="647" y="226.27"/>
			<point x="647" y="365.759"/>
			<point x="591" y="365.759" type="curve"/>
			<point x="643" y="365.759"/>
			<point x="643" y="497.277"/>
			<point x="591" y="497.277" type="curve"/>
			<point x="651.707" y="484.679"/>
			<point x="667.421" y="560.402"/>
			<point x="606.714" y="573" type="curve"/>
			<point x="644.979" y="541.441"/>
			<point x="692.214" y="598.712"/>
			<point x="653.949" y="630.271" type="curve"/>
			<point x="684.713" y="673.429"/>
			<point x="621.764" y="718.301"/>
			<point x="591" y="675.143" type="curve"/>
			<point x="618.679" y="724.971"/>
			<point x="600.935" y="734.828"/>
			<point x="573.255" y="685" type="curve"/>
			<point x="573.255" y="735"/>
			<point x="486.66" y="735"/>
			<point x="486.66" y="685" type="curve"/>
			<point x="479.952" y="742.611"/>
			<point x="395.292" y="732.754"/>
			<point x="402" y="675.143" type="curve"/>
			<point x="348" y="675.143"/>
			<point x="348" y="628"/>
			<point x="402" y="628" type="curve"/>
			<point x="402" y="696"/>
			<point x="358.786" y="696"/>
			<point x="358.786" y="628" type="curve"/>
			<point x="313.637" y="602.201"/>
			<point x="345.066" y="547.201"/>
			<point x="390.214" y="573" type="curve"/>
			<point x="328.296" y="569.819"/>
			<point x="333.082" y="476.653"/>
			<point x="395" y="479.833" type="curve"/>
			<point x="404.843" y="531.708"/>
			<point x="279.109" y="555.566"/>
			<point x="269.265" y="503.692" type="curve"/>
			<point x="260.434" y="549.244"/>
			<point x="134.87" y="524.9"/>
			<point x="143.702" y="479.348" type="curve"/>
			<point x="100.724" y="510.019"/>
			<point x="25.246" y="404.255"/>
			<point x="68.224" y="373.584" type="curve"/>
			<point x="11.728" y="381.146"/>
			<point x="0.132" y="294.512"/>
			<point x="56.628" y="286.95" type="curve"/>
			<point x="-12.372" y="286.974"/>
			<point x="-12.39" y="234.741"/>
			<point x="56.61" y="234.717" type="curve"/>
			<point x="-2.851" y="221.103"/>
			<point x="29.251" y="80.891"/>
			<point x="88.713" y="94.505" type="curve"/>
			<point x="65.006" y="60.321"/>
			<point x="173.627" y="-15.01"/>
		</contour>
		<contour>
			<point x="399.502" y="204.555" type="curve"/>
			<point x="340.531" y="177.792"/>
			<point x="285.755" y="199.725"/>
			<point x="272.224" y="165.933" type="curve"/>
			<point x="308.714" y="178.642"/>
			<point x="288.49" y="236.709"/>
			<point x="252" y="224" type="curve"/>
			<point x="279.987" y="224.839"/>
			<point x="278.601" y="271.108"/>
			<point x="250.613" y="270.27" type="curve"/>
			<point x="280.728" y="267.518"/>
			<point x="284.552" y="309.375"/>
			<point x="254.438" y="312.127" type="curve"/>
			<point x="280.874" y="288.764"/>
			<point x="336.116" y="351.275"/>
			<point x="309.68" y="374.637" type="curve"/>
			<point x="309.891" y="338.238"/>
			<point x="343.262" y="338.431"/>
			<point x="343.051" y="374.831" type="curve"/>
			<point x="322.665" y="352.495"/>
			<point x="378.415" y="301.611"/>
			<point x="398.801" y="323.946" type="curve"/>
			<point x="363.766" y="319.799"/>
			<point x="367.688" y="286.663"/>
			<point x="402.723" y="290.81" type="curve"/>
			<point x="373.604" y="290.681"/>
			<point x="373.821" y="241.863"/>
			<point x="402.94" y="241.992" type="curve"/>
			<point x="364.462" y="245.526"/>
			<point x="361.024" y="208.089"/>
		</contour>
	</outline>
</glyph>
<glyph name="Hbar" format="2">
	<advance width="772"/>
	<unicode hex="0126"/>
	<outline>
		<contour>
			<point x="562" y="670" type="curve"/>
			<point x="447.911" y="731.683"/>
			<point x="371.625" y="674.683"/>
			<point x="417.714" y="613" type="curve"/>
			<point x="417.714" y="676"/>
			<point x="342.393" y="676"/>
			<point x="342.393" y="613" type="curve"/>
			<point x="342.393" y="673"/>
			<point x="302.75" y="673"/>
			<point x="302.75" y="613" type="curve"/>
			<point x="348.348" y="651.998"/>
			<point x="299.598" y="708.998"/>
			<point x="254" y="670" type="curve"/>
			<point x="254" y="738"/>
			<point x="150" y="738"/>
			<point x="150" y="670" type="curve"/>
			<point x="125.525" y="713.141"/>
			<point x="60.525" y="676.264"/>
			<point x="85" y="633.123" type="curve"/>
			<point x="19" y="633.123"/>
			<point x="19" y="513.494"/>
			<point x="85" y="513.494" type="curve"/>
			<point x="8" y="513.494"/>
			<point x="8" y="449.691"/>
			<point x="85" y="449.691" type="curve"/>
			<point x="7" y="449.691"/>
			<point x="7" y="318.099"/>
			<point x="85" y="318.099" type="curve"/>
			<point x="17" y="318.099"/>
			<point x="17" y="166.568"/>
			<point x="85" y="166.568" type="curve"/>
			<point x="12" y="166.568"/>
			<point x="12" y="82.827"/>
			<point x="85" y="82.827" type="curve"/>
			<point x="46.149" y="35.024"/>
			<point x="111.149" y="-17.803"/>
			<point x="150" y="30" type="curve"/>
			<point x="150" y="-47"/>
			<point x="242" y="-47"/>
			<point x="242" y="30" type="curve"/>
			<point x="259.973" y="-36.618"/>
			<point x="292.973" y="-27.715"/>
			<point x="275" y="38.903" type="curve"/>
			<point x="346" y="38.903"/>
			<point x="346" y="90.484"/>
			<point x="275" y="90.484" type="curve"/>
			<point x="344" y="90.484"/>
			<point x="344" y="165.871"/>
			<point x="275" y="165.871" type="curve"/>
			<point x="338" y="165.871"/>
			<point x="338" y="261.097"/>
			<point x="275" y="261.097" type="curve"/>
			<point x="282.448" y="201.561"/>
			<point x="377.591" y="213.464"/>
			<point x="370.143" y="273" type="curve"/>
			<point x="370.143" y="195"/>
			<point x="489.071" y="195"/>
			<point x="489.071" y="273" type="curve"/>
			<point x="414.529" y="264.725"/>
			<point x="422.458" y="193.305"/>
			<point x="497" y="201.581" type="curve"/>
			<point x="429" y="201.581"/>
			<point x="429" y="102.387"/>
			<point x="497" y="102.387" type="curve"/>
			<point x="450.507" y="63.208"/>
			<point x="511.507" y="-9.179"/>
			<point x="558" y="30" type="curve"/>
			<point x="558" y="-40"/>
			<point x="674" y="-40"/>
			<point x="674" y="30" type="curve"/>
			<point x="744.003" y="18.143"/>
			<point x="757.003" y="94.896"/>
			<point x="687" y="106.753" type="curve"/>
			<point x="752" y="106.753"/>
			<point x="752" y="214.42"/>
			<point x="687" y="214.42" type="curve"/>
			<point x="766" y="214.42"/>
			<point x="766" y="298.16"/>
			<point x="687" y="298.16" type="curve"/>
			<point x="754" y="298.16"/>
			<point x="754" y="429.753"/>
			<point x="687" y="429.753" type="curve"/>
			<point x="750" y="429.753"/>
			<point x="750" y="581.284"/>
			<point x="687" y="581.284" type="curve"/>
			<point x="734.988" y="599.134"/>
			<point x="701.988" y="687.85"/>
			<point x="654" y="670" type="curve"/>
			<point x="654" y="738"/>
			<point x="606" y="738"/>
			<point x="606" y="670" type="curve"/>
			<point x="606" y="737"/>
			<point x="562" y="737"/>
		</contour>
		<contour>
			<point x="457.357" y="551" type="curve"/>
			<point x="447.3" y="551"/>
			<point x="447.3" y="444.8"/>
			<point x="497" y="444.8" type="curve"/>
			<point x="487.501" y="486.286"/>
			<point x="435.965" y="474.486"/>
			<point x="445.464" y="433" type="curve"/>
			<point x="445.464" y="472.2"/>
			<point x="397.893" y="472.2"/>
			<point x="397.893" y="433" type="curve"/>
			<point x="397.893" y="475"/>
			<point x="298.786" y="475"/>
			<point x="298.786" y="433" type="curve"/>
			<point x="315.958" y="467.615"/>
			<point x="292.172" y="479.415"/>
			<point x="275" y="444.8" type="curve"/>
			<point x="330.3" y="444.8"/>
			<point x="330.3" y="543.133"/>
			<point x="275" y="543.133" type="curve"/>
			<point x="280.238" y="500.897"/>
			<point x="343.667" y="508.764"/>
			<point x="338.429" y="551" type="curve"/>
			<point x="338.429" y="510.68"/>
			<point x="409.786" y="510.68"/>
			<point x="409.786" y="551" type="curve"/>
			<point x="409.786" y="513.48"/>
			<point x="457.357" y="513.48"/>
		</contour>
	</outline>
</glyph>
<glyph name="hbar" format="2">
	<advance width="686"/>
	<unicode hex="0127"/>
	<outline>
		<contour>
			<point x="112.796" y="25" type="curve"/>
			<point x="312.779" y="23.628"/>
			<point x="314.779" y="88.923"/>
			<point x="270" y="90.294" type="curve"/>
			<point x="319.6" y="90.294"/>
			<point x="319.6" y="133.809"/>
			<point x="270" y="133.809" type="curve"/>
			<point x="312.4" y="133.809"/>
			<point x="312.4" y="248.529"/>
			<point x="270" y="248.529" type="curve"/>
			<point x="315.922" y="241.884"/>
			<point x="330.145" y="340.167"/>
			<point x="284.223" y="346.813" type="curve"/>
			<point x="316.159" y="304.515"/>
			<point x="348.523" y="328.95"/>
			<point x="316.587" y="371.248" type="curve"/>
			<point x="319.43" y="315.32"/>
			<point x="369.135" y="317.846"/>
			<point x="366.293" y="373.774" type="curve"/>
			<point x="324.621" y="348.38"/>
			<point x="379.328" y="258.606"/>
			<point x="421" y="284" type="curve"/>
			<point x="380.2" y="284"/>
			<point x="380.2" y="148"/>
			<point x="421" y="148" type="curve"/>
			<point x="369" y="148"/>
			<point x="369" y="100"/>
			<point x="421" y="100" type="curve"/>
			<point x="376.2" y="100.202"/>
			<point x="375.857" y="24.176"/>
			<point x="420.656" y="23.974" type="curve"/>
			<point x="421.652" y="-44.019"/>
			<point x="559.996" y="-41.993"/>
			<point x="559" y="26" type="curve"/>
			<point x="595.127" y="-4.376"/>
			<point x="657.127" y="69.363"/>
			<point x="621" y="99.739" type="curve"/>
			<point x="679" y="99.739"/>
			<point x="679" y="223.29"/>
			<point x="621" y="223.29" type="curve"/>
			<point x="672.995" y="224.031"/>
			<point x="671.4" y="335.955"/>
			<point x="619.405" y="335.214" type="curve"/>
			<point x="667.812" y="347.736"/>
			<point x="648.704" y="421.599"/>
			<point x="600.298" y="409.076" type="curve"/>
			<point x="657.839" y="445.312"/>
			<point x="632.133" y="486.132"/>
			<point x="574.592" y="449.897" type="curve"/>
			<point x="606.552" y="488.349"/>
			<point x="566.431" y="521.696"/>
			<point x="534.471" y="483.244" type="curve"/>
			<point x="552.379" y="544.687"/>
			<point x="479.436" y="565.947"/>
			<point x="461.528" y="504.504" type="curve"/>
			<point x="457.171" y="557.325"/>
			<point x="393.936" y="552.109"/>
			<point x="398.293" y="499.289" type="curve"/>
			<point x="373.942" y="545.234"/>
			<point x="295.201" y="503.502"/>
			<point x="319.552" y="457.556" type="curve"/>
			<point x="327.26" y="496.807"/>
			<point x="281.291" y="505.834"/>
			<point x="273.583" y="466.583" type="curve"/>
			<point x="319.01" y="470.554"/>
			<point x="315.427" y="511.554"/>
			<point x="270" y="507.583" type="curve"/>
			<point x="314.026" y="478.436"/>
			<point x="365.026" y="555.468"/>
			<point x="321" y="584.615" type="curve"/>
			<point x="363.358" y="614.778"/>
			<point x="312.358" y="686.398"/>
			<point x="270" y="656.235" type="curve"/>
			<point x="333.78" y="650.936"/>
			<point x="336.206" y="680.13"/>
			<point x="272.426" y="685.429" type="curve"/>
			<point x="272.036" y="736.428"/>
			<point x="215.876" y="735.999"/>
			<point x="216.265" y="685" type="curve"/>
			<point x="216.265" y="750"/>
			<point x="152.592" y="750"/>
			<point x="152.592" y="685" type="curve"/>
			<point x="130.301" y="730.203"/>
			<point x="48.709" y="689.967"/>
			<point x="71" y="644.765" type="curve"/>
			<point x="31.798" y="691.5"/>
			<point x="-21.202" y="647.043"/>
			<point x="18" y="600.308" type="curve"/>
			<point x="-6.691" y="567.827"/>
			<point x="42.386" y="530.52"/>
			<point x="67.077" y="563" type="curve"/>
			<point x="15.163" y="560.005"/>
			<point x="19.086" y="492.005"/>
			<point x="71" y="495" type="curve"/>
			<point x="16" y="495"/>
			<point x="16" y="439"/>
			<point x="71" y="439" type="curve"/>
			<point x="8" y="439"/>
			<point x="8" y="351"/>
			<point x="71" y="351" type="curve"/>
			<point x="14" y="351"/>
			<point x="14" y="247"/>
			<point x="71" y="247" type="curve"/>
			<point x="14" y="247"/>
			<point x="14" y="187"/>
			<point x="71" y="187" type="curve"/>
			<point x="3" y="187"/>
			<point x="3" y="55"/>
			<point x="71" y="55" type="curve"/>
			<point x="41.145" y="13.406"/>
			<point x="82.941" y="-16.594"/>
		</contour>
	</outline>
</glyph>
<glyph name="lslash" format="2">
	<advance width="400"/>
	<unicode hex="0142"/>
	<outline>
		<contour>
			<point x="170.667" y="25" type="curve"/>
			<point x="351.86" y="20.839"/>
			<point x="353.86" y="50.569"/>
			<point x="292" y="54.731" type="curve"/>
			<point x="352" y="54.731"/>
			<point x="352" y="157.731"/>
			<point x="292" y="157.731" type="curve"/>
			<point x="361" y="157.731"/>
			<point x="361" y="308.269"/>
			<point x="292" y="308.269" type="curve"/>
			<point x="329.544" y="265.381"/>
			<point x="387.415" y="316.04"/>
			<point x="349.871" y="358.929" type="curve"/>
			<point x="405.824" y="356.641"/>
			<point x="407.953" y="408.712"/>
			<point x="352" y="411" type="curve"/>
			<point x="407" y="411"/>
			<point x="407" y="459"/>
			<point x="352" y="459" type="curve"/>
			<point x="358.096" y="521.704"/>
			<point x="298.096" y="527.538"/>
			<point x="292" y="464.833" type="curve"/>
			<point x="356" y="464.833"/>
			<point x="356" y="528.3"/>
			<point x="292" y="528.3" type="curve"/>
			<point x="354" y="528.3"/>
			<point x="354" y="671.1"/>
			<point x="292" y="671.1" type="curve"/>
			<point x="313.743" y="730.229"/>
			<point x="275.943" y="744.129"/>
			<point x="254.2" y="685" type="curve"/>
			<point x="254.2" y="748"/>
			<point x="170.667" y="748"/>
			<point x="170.667" y="685" type="curve"/>
			<point x="141.309" y="714.474"/>
			<point x="79.643" y="653.051"/>
			<point x="109" y="623.577" type="curve"/>
			<point x="49" y="623.577"/>
			<point x="49" y="528.5"/>
			<point x="109" y="528.5" type="curve"/>
			<point x="50" y="528.5"/>
			<point x="50" y="477"/>
			<point x="109" y="477" type="curve"/>
			<point x="53.082" y="495.819"/>
			<point x="13.482" y="378.152"/>
			<point x="69.4" y="359.333" type="curve"/>
			<point x="15.515" y="370.351"/>
			<point x="-8.885" y="251.018"/>
			<point x="45" y="240" type="curve"/>
			<point x="56.933" y="197.649"/>
			<point x="120.933" y="215.682"/>
			<point x="109" y="258.033" type="curve"/>
			<point x="57" y="258.033"/>
			<point x="57" y="158.45"/>
			<point x="109" y="158.45" type="curve"/>
			<point x="52" y="158.45"/>
			<point x="52" y="86.75"/>
			<point x="109" y="86.75" type="curve"/>
			<point x="80.131" y="57.92"/>
			<point x="141.797" y="-3.83"/>
		</contour>
	</outline>
</glyph>
<glyph name="Eng" format="2">
	<advance width="740"/>
	<unicode hex="014A"/>
	<outline>
		<contour>
			<point x="346" y="-103.895" type="curve"/>
			<point x="367.436" y="-271.536"/>
			<point x="482.859" y="-258.814"/>
			<point x="474.422" y="-182.277" type="curve"/>
			<point x="501.428" y="-242.499"/>
			<point x="603.29" y="-196.82"/>
			<point x="576.284" y="-136.598" type="curve"/>
			<point x="635.729" y="-188.63"/>
			<point x="690.797" y="-125.715"/>
			<point x="631.352" y="-73.683" type="curve"/>
			<point x="705.605" y="-94.067"/>
			<point x="728.796" y="-9.592"/>
			<point x="654.543" y="10.792" type="curve"/>
			<point x="719.54" y="10.211"/>
			<point x="719.997" y="61.364"/>
			<point x="655" y="61.944" type="curve"/>
			<point x="733" y="61.944"/>
			<point x="733" y="117.858"/>
			<point x="655" y="117.858" type="curve"/>
			<point x="720" y="117.858"/>
			<point x="720" y="185.753"/>
			<point x="655" y="185.753" type="curve"/>
			<point x="724" y="185.753"/>
			<point x="724" y="241.667"/>
			<point x="655" y="241.667" type="curve"/>
			<point x="717" y="241.667"/>
			<point x="717" y="365.475"/>
			<point x="655" y="365.475" type="curve"/>
			<point x="730" y="365.475"/>
			<point x="730" y="501.265"/>
			<point x="655" y="501.265" type="curve"/>
			<point x="723" y="501.265"/>
			<point x="723" y="649.037"/>
			<point x="655" y="649.037" type="curve"/>
			<point x="674.065" y="699.987"/>
			<point x="618.043" y="720.95"/>
			<point x="598.978" y="670" type="curve"/>
			<point x="598.978" y="739"/>
			<point x="516.348" y="739"/>
			<point x="516.348" y="670" type="curve"/>
			<point x="490.578" y="715.165"/>
			<point x="454.23" y="694.426"/>
			<point x="480" y="649.261" type="curve"/>
			<point x="404" y="649.261"/>
			<point x="404" y="597.826"/>
			<point x="480" y="597.826" type="curve"/>
			<point x="421.6" y="597.826"/>
			<point x="421.6" y="502.87"/>
			<point x="480" y="502.87" type="curve"/>
			<point x="429" y="516.542"/>
			<point x="399.134" y="405.139"/>
			<point x="450.133" y="391.467" type="curve"/>
			<point x="485.898" y="440.635"/>
			<point x="430.911" y="480.632"/>
			<point x="395.146" y="431.463" type="curve"/>
			<point x="438.213" y="457.644"/>
			<point x="411.42" y="501.717"/>
			<point x="368.354" y="475.537" type="curve"/>
			<point x="422.358" y="508.366"/>
			<point x="358.468" y="613.464"/>
			<point x="304.463" y="580.634" type="curve"/>
			<point x="355.733" y="611.802"/>
			<point x="335.123" y="645.704"/>
			<point x="283.854" y="614.537" type="curve"/>
			<point x="347.941" y="653.496"/>
			<point x="321.148" y="697.569"/>
			<point x="257.061" y="658.61" type="curve"/>
			<point x="272.459" y="735.075"/>
			<point x="215.899" y="746.465"/>
			<point x="200.5" y="670" type="curve"/>
			<point x="188.692" y="724.741"/>
			<point x="73.192" y="699.827"/>
			<point x="85" y="645.086" type="curve"/>
			<point x="7" y="645.086"/>
			<point x="7" y="505.519"/>
			<point x="85" y="505.519" type="curve"/>
			<point x="8" y="505.519"/>
			<point x="8" y="365.951"/>
			<point x="85" y="365.951" type="curve"/>
			<point x="20" y="365.951"/>
			<point x="20" y="282.21"/>
			<point x="85" y="282.21" type="curve"/>
			<point x="14" y="282.21"/>
			<point x="14" y="222.395"/>
			<point x="85" y="222.395" type="curve"/>
			<point x="20" y="222.395"/>
			<point x="20" y="122.704"/>
			<point x="85" y="122.704" type="curve"/>
			<point x="42.456" y="98.799"/>
			<point x="94.543" y="6.096"/>
			<point x="137.087" y="30" type="curve"/>
			<point x="137.087" y="-37"/>
			<point x="219.717" y="-37"/>
			<point x="219.717" y="30" type="curve"/>
			<point x="274.96" y="8.72"/>
			<point x="315.243" y="113.291"/>
			<point x="260" y="134.571" type="curve"/>
			<point x="310.4" y="134.571"/>
			<point x="310.4" y="250.111"/>
			<point x="260" y="250.111" type="curve"/>
			<point x="294.666" y="196.313"/>
			<point x="354.066" y="234.588"/>
			<point x="319.4" y="288.387" type="curve"/>
			<point x="267.448" y="253.822"/>
			<point x="291.648" y="217.448"/>
			<point x="343.6" y="252.013" type="curve"/>
			<point x="301.639" y="224.096"/>
			<point x="347.839" y="154.656"/>
			<point x="389.8" y="182.573" type="curve"/>
			<point x="334.851" y="146.014"/>
			<point x="400.851" y="46.814"/>
			<point x="455.8" y="83.373" type="curve"/>
			<point x="402.237" y="85.359"/>
			<point x="398.087" y="-26.602"/>
			<point x="451.65" y="-28.587" type="curve"/>
			<point x="422.12" y="32.666"/>
			<point x="378.874" y="11.818"/>
			<point x="408.404" y="-49.436" type="curve"/>
			<point x="367.375" y="-2.421"/>
			<point x="304.971" y="-56.88"/>
		</contour>
	</outline>
</glyph>
<glyph name="oe" format="2">
	<advance width="963"/>
	<unicode hex="0153"/>
	<outline>
		<contour>
			<point x="248.706" y="19.602" type="curve"/>
			<point x="327.287" y="-46.68"/>
			<point x="432.461" y="-35.96"/>
			<point x="426.174" y="25.721" type="curve"/>
			<point x="425.563" y="-42.277"/>
			<point x="559.389" y="-43.48"/>
			<point x="560" y="24.517" type="curve"/>
			<point x="549.505" y="-42.668"/>
			<point x="597.468" y="-50.16"/>
			<point x="607.963" y="17.025" type="curve"/>
			<point x="612.595" y="-49.815"/>
			<point x="750.255" y="-40.275"/>
			<point x="745.623" y="26.565" type="curve"/>
			<point x="768.007" y="-34.459"/>
			<point x="835.906" y="-9.554"/>
			<point x="813.523" y="51.471" type="curve"/>
			<point x="849.07" y="3.135"/>
			<point x="913.518" y="50.532"/>
			<point x="877.971" y="98.868" type="curve"/>
			<point x="901.931" y="130.898"/>
			<point x="844.273" y="174.03"/>
			<point x="820.312" y="142" type="curve"/>
			<point x="820.054" y="196.399"/>
			<point x="705.018" y="195.852"/>
			<point x="705.276" y="141.453" type="curve"/>
			<point x="685.935" y="182.748"/>
			<point x="620.61" y="152.151"/>
			<point x="639.952" y="110.856" type="curve"/>
			<point x="686.919" y="138.305"/>
			<point x="634.967" y="227.199"/>
			<point x="588" y="199.75" type="curve"/>
			<point x="624.235" y="177.732"/>
			<point x="640.186" y="203.982"/>
			<point x="603.951" y="226" type="curve"/>
			<point x="603.951" y="179.6"/>
			<point x="659.778" y="179.6"/>
			<point x="659.778" y="226" type="curve"/>
			<point x="659.778" y="170.8"/>
			<point x="783.395" y="170.8"/>
			<point x="783.395" y="226" type="curve"/>
			<point x="783.395" y="182"/>
			<point x="847.198" y="182"/>
			<point x="847.198" y="226" type="curve"/>
			<point x="864.457" y="159.193"/>
			<point x="930.259" y="176.193"/>
			<point x="913" y="243" type="curve"/>
			<point x="980.706" y="249.32"/>
			<point x="972.603" y="336.13"/>
			<point x="904.897" y="329.811" type="curve"/>
			<point x="958.492" y="354.481"/>
			<point x="920.059" y="437.973"/>
			<point x="866.464" y="413.303" type="curve"/>
			<point x="903.64" y="460.399"/>
			<point x="819.276" y="526.992"/>
			<point x="782.101" y="479.897" type="curve"/>
			<point x="791.835" y="529.959"/>
			<point x="662.734" y="555.062"/>
			<point x="653" y="505" type="curve"/>
			<point x="642.149" y="554.832"/>
			<point x="498.102" y="523.465"/>
			<point x="508.953" y="473.633" type="curve"/>
			<point x="522.986" y="532.997"/>
			<point x="433.139" y="554.234"/>
			<point x="419.106" y="494.87" type="curve"/>
			<point x="428.851" y="557.112"/>
			<point x="376.874" y="565.249"/>
			<point x="367.13" y="503.008" type="curve"/>
			<point x="368.532" y="559.99"/>
			<point x="302.316" y="561.62"/>
			<point x="300.914" y="504.638" type="curve"/>
			<point x="291.576" y="566.942"/>
			<point x="196.461" y="552.686"/>
			<point x="205.799" y="490.382" type="curve"/>
			<point x="180.745" y="547.095"/>
			<point x="118.48" y="519.588"/>
			<point x="143.534" y="462.875" type="curve"/>
			<point x="107.172" y="489.045"/>
			<point x="27.043" y="377.709"/>
			<point x="63.405" y="351.539" type="curve"/>
			<point x="-1.524" y="354.579"/>
			<point x="-8.294" y="209.993"/>
			<point x="56.635" y="206.953" type="curve"/>
			<point x="16.709" y="188.462"/>
			<point x="79.49" y="52.907"/>
			<point x="119.416" y="71.399" type="curve"/>
			<point x="89.789" y="23.878"/>
			<point x="137.548" y="-5.898"/>
			<point x="167.175" y="41.623" type="curve"/>
			<point x="151.27" y="-17.267"/>
			<point x="232.801" y="-39.288"/>
		</contour>
		<contour>
			<point x="631.333" y="301" type="curve"/>
			<point x="618.423" y="317.339"/>
			<point x="641.385" y="389.644"/>
			<point x="610.962" y="399.305" type="curve"/>
			<point x="619.555" y="363.358"/>
			<point x="677.816" y="377.286"/>
			<point x="669.222" y="413.233" type="curve"/>
			<point x="649.689" y="384.528"/>
			<point x="682.694" y="362.068"/>
			<point x="702.227" y="390.773" type="curve"/>
			<point x="669.109" y="377.071"/>
			<point x="681.534" y="347.039"/>
			<point x="714.652" y="360.74" type="curve"/>
			<point x="678.987" y="357.201"/>
			<point x="682.335" y="323.461"/>
			<point x="718" y="327" type="curve"/>
			<point x="700.713" y="355.812"/>
			<point x="657.38" y="329.812"/>
			<point x="674.667" y="301" type="curve"/>
			<point x="674.667" y="332.92"/>
			<point x="631.333" y="332.92"/>
		</contour>
		<contour>
			<point x="382.462" y="164.417" type="curve"/>
			<point x="344.711" y="148.01"/>
			<point x="276.685" y="218.108"/>
			<point x="252.974" y="195.098" type="curve"/>
			<point x="291.582" y="196.674"/>
			<point x="288.858" y="263.38"/>
			<point x="250.251" y="261.804" type="curve"/>
			<point x="287.208" y="261.399"/>
			<point x="287.521" y="289.914"/>
			<point x="250.563" y="290.319" type="curve"/>
			<point x="282.85" y="286.783"/>
			<point x="288.681" y="340.01"/>
			<point x="256.394" y="343.547" type="curve"/>
			<point x="287.887" y="326.439"/>
			<point x="309.007" y="365.317"/>
			<point x="277.513" y="382.425" type="curve"/>
			<point x="289.012" y="347.152"/>
			<point x="327.256" y="359.619"/>
			<point x="315.757" y="394.892" type="curve"/>
			<point x="296.353" y="351.427"/>
			<point x="357.207" y="324.259"/>
			<point x="376.612" y="367.724" type="curve"/>
			<point x="344.609" y="357.488"/>
			<point x="355.755" y="322.644"/>
			<point x="387.757" y="332.881" type="curve"/>
			<point x="359.238" y="331.356"/>
			<point x="363.23" y="256.672"/>
			<point x="391.749" y="258.196" type="curve"/>
			<point x="354.969" y="261.839"/>
			<point x="345.682" y="168.059"/>
		</contour>
	</outline>
</glyph>
